<svg width="50" height="50" viewBox="0 0 50 50" fill="none" xmlns="http://www.w3.org/2000/svg">
<path d="M15.9065 5.96888C15.8635 5.97669 15.8205 5.98841 15.7815 6.00013C15.3166 6.10561 14.9885 6.52358 15.0002 7.00016V8.00018H14.0002C13.9689 8.00018 13.9377 8.00018 13.9064 8.00018C13.3556 8.02752 12.9259 8.49628 12.9533 9.04708C12.9806 9.59787 13.4494 10.0276 14.0002 10.0002H15.0002V11.0003C14.9963 11.3596 15.1838 11.6956 15.4963 11.8792C15.8088 12.0589 16.1916 12.0589 16.5042 11.8792C16.8167 11.6956 17.0042 11.3596 17.0003 11.0003V10.0002H18.0003C18.3597 10.0041 18.6956 9.81664 18.8792 9.50413C19.0589 9.19162 19.0589 8.80881 18.8792 8.4963C18.6956 8.18379 18.3597 7.99629 18.0003 8.0002H17.0003V7.00018C17.012 6.71111 16.8948 6.43375 16.6877 6.23844C16.4768 6.03921 16.1916 5.94154 15.9065 5.96888ZM28.313 12.969L27.0005 13.1565C20.2191 14.1253 15.0002 19.9575 15.0002 27.0006C15.0002 34.7195 21.2816 41.0009 29.0005 41.0009C36.0436 41.0009 41.8719 35.782 42.8446 29.0006L43.0321 27.6881L41.7196 27.8756C41.1375 27.9576 40.5672 28.0006 40.0008 28.0006C33.36 28.0006 28.0005 22.6411 28.0005 16.0004C28.0005 15.4339 28.0435 14.8636 28.1255 14.2816L28.313 12.969ZM26.0317 15.5316C26.0239 15.6918 26.0005 15.8363 26.0005 16.0004C26.0005 23.7193 32.2818 30.0007 40.0008 30.0007C40.1648 30.0007 40.3094 29.9772 40.4695 29.9694C39.1297 35.1336 34.5905 39.0009 29.0005 39.0009C22.3598 39.0009 17.0003 33.6414 17.0003 27.0006C17.0003 21.4106 20.8675 16.8676 26.0317 15.5316ZM7.9063 17.9691C7.86333 17.977 7.82036 17.9887 7.7813 18.0004C7.31645 18.1059 6.98831 18.5239 7.00003 19.0004C6.96878 19.0004 6.93753 19.0004 6.90628 19.0004C6.35549 19.0278 5.92579 19.4965 5.95314 20.0473C5.98048 20.5981 6.44924 21.0278 7.00004 21.0005C6.99613 21.3599 7.18364 21.6958 7.49615 21.8794C7.80865 22.0591 8.19147 22.0591 8.50398 21.8794C8.81648 21.6958 9.00399 21.3599 9.00008 21.0005C9.35947 21.0044 9.6954 20.8169 9.87901 20.5044C10.0587 20.1919 10.0587 19.8091 9.87901 19.4965C9.69541 19.184 9.35947 18.9965 9.00008 19.0004C9.0118 18.7114 8.89461 18.434 8.68757 18.2387C8.47663 18.0395 8.19147 17.9418 7.9063 17.9691Z" fill="#FDFDFD"/>
</svg>
