<svg width="50" height="50" viewBox="0 0 50 50" fill="none" xmlns="http://www.w3.org/2000/svg">
<path d="M11.9065 5.9689C11.8635 5.97671 11.8205 5.98843 11.7815 6.00015C11.3166 6.10562 10.9885 6.5236 11.0002 7.00017V8.0002H10.0002C9.96894 8.0002 9.93769 8.0002 9.90644 8.0002C9.35565 8.02754 8.92595 8.4963 8.9533 9.0471C8.98064 9.59789 9.4494 10.0276 10.0002 10.0002H11.0002V11.0003C10.9963 11.3597 11.1838 11.6956 11.4963 11.8792C11.8088 12.0589 12.1916 12.0589 12.5042 11.8792C12.8167 11.6956 13.0042 11.3597 13.0003 11.0003V10.0002H14.0003C14.3597 10.0042 14.6956 9.81665 14.8792 9.50415C15.0589 9.19164 15.0589 8.80882 14.8792 8.49632C14.6956 8.18381 14.3597 7.99631 14.0003 8.00022H13.0003V7.00019C13.012 6.71113 12.8948 6.43377 12.6877 6.23846C12.4768 6.03923 12.1916 5.94156 11.9065 5.9689ZM36.157 5.9689L34.8445 6.21891C31.1139 6.96111 28.0553 9.58617 26.7193 13.0628C26.5201 13.5823 26.7779 14.1605 27.2975 14.3597C27.817 14.5589 28.3951 14.3011 28.5944 13.7816C29.5475 11.305 31.6062 9.42602 34.1257 8.56272C34.4382 14.348 39.1376 19.0004 45.001 19.0004C45.2158 19.0004 45.4151 18.9497 45.626 18.9379C45.2393 20.645 44.5166 22.2193 43.3134 23.4068C42.915 23.7935 42.9111 24.4302 43.2978 24.8287C43.6846 25.2271 44.3213 25.231 44.7197 24.8443C46.5479 23.0435 47.755 20.5903 47.9698 17.8754L48.0636 16.5629L46.751 16.8129C46.1807 16.9262 45.6026 17.0004 45.001 17.0004C40.0204 17.0004 36.0008 12.9808 36.0008 8.00022C36.0008 7.77755 36.0125 7.54318 36.032 7.28145L36.157 5.9689ZM24.0005 16.0004C18.4887 16.0004 14.0003 20.4887 14.0003 26.0006C14.0003 26.4068 14.0745 26.7936 14.1253 27.1881C10.7033 27.6413 8.00015 30.4577 8.00015 34.0008C8.00015 37.8563 11.1447 41.0009 15.0003 41.0009H36.0008C40.9579 41.0009 45.001 36.9579 45.001 32.0007C45.001 27.0436 40.9579 23.0005 36.0008 23.0005C35.1258 23.0005 34.3328 23.2662 33.532 23.5005C32.403 19.2153 28.6334 16.0004 24.0005 16.0004ZM3.9063 17.9692C3.86333 17.977 3.82036 17.9887 3.7813 18.0004C3.31645 18.1059 2.98831 18.5239 3.00003 19.0004C2.96878 19.0004 2.93753 19.0004 2.90628 19.0004C2.35549 19.0278 1.92579 19.4965 1.95314 20.0473C1.98048 20.5981 2.44924 21.0278 3.00004 21.0005C2.99613 21.3599 3.18364 21.6958 3.49615 21.8794C3.80865 22.0591 4.19147 22.0591 4.50398 21.8794C4.81648 21.6958 5.00399 21.3599 5.00008 21.0005C5.35947 21.0044 5.6954 20.8169 5.87901 20.5044C6.0587 20.1919 6.0587 19.8091 5.87901 19.4966C5.69541 19.184 5.35947 18.9965 5.00008 19.0005C5.0118 18.7114 4.89461 18.434 4.68757 18.2387C4.47663 18.0395 4.19147 17.9418 3.9063 17.9692ZM24.0005 18.0004C28.0162 18.0004 31.3171 20.9419 31.9069 24.7818L32.0944 26.0631L33.282 25.5631C34.1179 25.2076 35.032 25.0006 36.0008 25.0006C39.8798 25.0006 43.0009 28.1217 43.0009 32.0007C43.0009 35.8797 39.8798 39.0009 36.0008 39.0009H15.0003C12.2268 39.0009 10.0002 36.7743 10.0002 34.0008C10.0002 31.2273 12.2268 29.0006 15.0003 29.0006C15.0042 29.0006 15.0589 28.9967 15.1878 29.0006L16.5003 29.0632L16.2191 27.7819C16.0863 27.1998 16.0003 26.61 16.0003 26.0006C16.0003 21.5708 19.5707 18.0004 24.0005 18.0004Z" fill="#FDFDFD"/>
</svg>
