<svg width="50" height="50" viewBox="0 0 50 50" fill="none" xmlns="http://www.w3.org/2000/svg">
<path d="M22.5004 11.0002C16.7112 11.0002 12.0002 15.7113 12.0002 21.5005C12.0002 21.6724 12.0236 21.8325 12.0314 22.0005C12.0197 22.0005 12.0119 22.0005 12.0002 22.0005C7.59383 22.0005 4 25.5943 4 30.0007C4 34.407 7.59383 38.0008 12.0002 38.0008H36.0007C41.5126 38.0008 46.0009 33.5125 46.0009 28.0006C46.0009 22.4888 41.5126 18.0004 36.0007 18.0004C34.7468 18.0004 33.5749 18.2973 32.4694 18.7192C31.2311 14.2972 27.3091 11.0002 22.5004 11.0002ZM22.5004 13.0003C26.7505 13.0003 30.235 16.098 30.8756 20.1567L31.0944 21.5317L32.3444 20.9067C33.4499 20.3364 34.6765 20.0004 36.0007 20.0004C40.4305 20.0004 44.0009 23.5708 44.0009 28.0006C44.0009 32.4304 40.4305 36.0008 36.0007 36.0008H12.0002C8.67588 36.0008 6.00004 33.325 6.00004 30.0007C6.00004 26.6764 8.67588 24.0005 12.0002 24.0005C12.3244 24.0005 12.633 24.0396 12.9689 24.0943L14.3752 24.313L14.1252 22.938C14.0432 22.4575 14.0002 21.977 14.0002 21.5005C14.0002 16.7933 17.7933 13.0003 22.5004 13.0003Z" fill="#FDFDFD"/>
</svg>
