<svg width="50" height="50" viewBox="0 0 50 50" fill="none" xmlns="http://www.w3.org/2000/svg">
<path d="M22.5004 5.00011C16.7112 5.00011 12.0002 9.71115 12.0002 15.5003C12.0002 15.6722 12.0236 15.8324 12.0314 16.0004C12.0197 16.0004 12.0119 16.0004 12.0002 16.0004C7.59383 16.0004 4 19.5942 4 24.0005C4 28.4069 7.59383 32.0007 12.0002 32.0007H12.6877C12.6877 32.5046 13.0627 32.9304 13.5627 32.9929C14.0627 33.0593 14.5315 32.739 14.6565 32.2507L14.7502 32.0007H19.6878C19.6878 32.5046 20.0629 32.9304 20.5629 32.9929C21.0629 33.0593 21.5316 32.739 21.6566 32.2507L21.7504 32.0007H26.688C26.688 32.5046 27.063 32.9304 27.563 32.9929C28.063 33.0593 28.5318 32.739 28.6568 32.2507L28.7505 32.0007H33.6882C33.6882 32.5046 34.0632 32.9304 34.5632 32.9929C35.0632 33.0593 35.5319 32.739 35.657 32.2507L35.7507 32.0007H36.0007C41.5126 32.0007 46.0009 27.5123 46.0009 22.0005C46.0009 16.4886 41.5126 12.0003 36.0007 12.0003C34.7468 12.0003 33.5749 12.2971 32.4694 12.719C31.2311 8.30096 27.3052 5.00011 22.5004 5.00011ZM22.5004 7.00015C26.7505 7.00015 30.235 10.0979 30.8756 14.1566L31.0944 15.5316L32.3444 14.9066C33.446 14.3363 34.6765 14.0003 36.0007 14.0003C40.4305 14.0003 44.0009 17.5707 44.0009 22.0005C44.0009 26.4303 40.4305 30.0007 36.0007 30.0007H35.3132C35.1804 29.9616 35.0437 29.9538 34.9069 29.9694C34.8757 29.9772 34.8444 29.9889 34.8132 30.0007H28.313C28.1802 29.9616 28.0435 29.9538 27.9068 29.9694C27.8755 29.9772 27.8443 29.9889 27.813 30.0007H21.3129C21.1801 29.9616 21.0433 29.9538 20.9066 29.9694C20.8754 29.9772 20.8441 29.9889 20.8129 30.0007H14.3127C14.1799 29.9616 14.0432 29.9538 13.9065 29.9694C13.8752 29.9772 13.844 29.9889 13.8127 30.0007H12.0002C8.67588 30.0007 6.00004 27.3248 6.00004 24.0005C6.00004 20.6762 8.67588 18.0004 12.0002 18.0004C12.3244 18.0004 12.633 18.0395 12.9689 18.0941L14.3752 18.3129L14.1252 16.9379C14.0432 16.4574 14.0002 15.9769 14.0002 15.5003C14.0002 10.7932 17.7933 7.00015 22.5004 7.00015ZM12.8127 33.907L12.0002 34.282L11.8439 34.5945L11.4064 36.0633L11.5314 36.9696L12.3439 37.3758L13.1565 36.9696L13.3127 36.6571L13.7502 35.1883L13.594 34.3133L12.8127 33.907ZM26.813 33.907L26.0005 34.282L25.8442 34.5945L25.4067 36.0633L25.5317 36.9696L26.3442 37.3758L27.1568 36.9696L27.313 36.6571L27.7505 35.1883L27.5943 34.3133L26.813 33.907ZM19.3441 35.407L18.5316 35.782L18.3753 36.0945L17.6878 38.3133L17.8441 39.1884L18.6566 39.5946L19.4378 39.2196L19.6253 38.9071L20.2816 36.6883L20.1566 35.8133L19.3441 35.407ZM33.3444 35.407L32.5319 35.782L32.3756 36.0945L31.6881 38.3133L31.8444 39.1884L32.6569 39.5946L33.4382 39.2196L33.6257 38.9071L34.2819 36.6883L34.1569 35.8133L33.3444 35.407ZM11.3439 38.2821C11.3009 38.2899 11.258 38.3016 11.2189 38.3133C10.8673 38.4032 10.59 38.6805 10.5001 39.0321L10.1876 39.9696C10.0548 40.3173 10.129 40.7079 10.3751 40.9892C10.6212 41.2665 11.0002 41.3837 11.3634 41.2939C11.7228 41.2079 12.0041 40.9228 12.0939 40.5634L12.4064 39.5946C12.5158 39.2704 12.4494 38.911 12.2346 38.6454C12.0197 38.3798 11.6838 38.243 11.3439 38.2821ZM25.3442 38.2821C25.3013 38.2899 25.2583 38.3016 25.2192 38.3133C24.8677 38.4032 24.5903 38.6805 24.5005 39.0321L24.1879 39.9696C24.0551 40.3173 24.1294 40.7079 24.3755 40.9892C24.6215 41.2665 25.0005 41.3837 25.3638 41.2939C25.7231 41.2079 26.0044 40.9228 26.0942 40.5634L26.4067 39.5946C26.5161 39.2704 26.4497 38.911 26.2349 38.6454C26.02 38.3798 25.6841 38.243 25.3442 38.2821ZM17.1878 42.0322C16.7854 42.0791 16.4534 42.3642 16.344 42.7509L16.0315 43.7197C15.8753 44.2549 16.1839 44.8135 16.719 44.9697C17.2542 45.126 17.8128 44.8174 17.9691 44.2822L18.2503 43.3447C18.3597 43.0205 18.2933 42.6611 18.0784 42.3955C17.8636 42.1298 17.5276 41.9931 17.1878 42.0322ZM31.1881 42.0322C30.7858 42.0791 30.4537 42.3642 30.3443 42.7509L30.0318 43.7197C29.8756 44.2549 30.1842 44.8135 30.7193 44.9697C31.2545 45.126 31.8131 44.8174 31.9694 44.2822L32.2506 43.3447C32.36 43.0205 32.2936 42.6611 32.0788 42.3955C31.8639 42.1298 31.528 41.9931 31.1881 42.0322Z" fill="#FDFDFD"/>
</svg>
