<svg width="50" height="50" viewBox="0 0 50 50" fill="none" xmlns="http://www.w3.org/2000/svg">
<path d="M18.0006 14.0003C12.4888 14.0003 8.00038 18.4887 8.00038 24.0005C8.00038 24.4068 8.0746 24.7935 8.12538 25.1881C4.70344 25.6412 2.00024 28.4577 2.00024 32.0007C2.00024 35.8563 5.14485 39.0009 9.0004 39.0009H30.0009C34.958 39.0009 39.0011 34.9578 39.0011 30.0007C39.0011 25.0435 34.958 21.0005 30.0009 21.0005C29.1258 21.0005 28.3329 21.2661 27.5321 21.5005C26.4031 17.2152 22.6335 14.0003 18.0006 14.0003ZM18.0006 16.0003C22.0163 16.0003 25.3172 18.9418 25.907 22.7817L26.0945 24.063L27.2821 23.563C28.118 23.2075 29.0321 23.0005 30.0009 23.0005C33.8799 23.0005 37.001 26.1217 37.001 30.0007C37.001 33.8797 33.8799 37.0008 30.0009 37.0008H9.0004C6.2269 37.0008 4.00029 34.7742 4.00029 32.0007C4.00029 29.2272 6.2269 27.0006 9.0004 27.0006C9.00431 27.0006 9.05899 26.9967 9.18791 27.0006L10.5004 27.0631L10.2192 25.7818C10.0864 25.1998 10.0004 24.6099 10.0004 24.0005C10.0004 19.5707 13.5708 16.0003 18.0006 16.0003ZM10.8754 41.0009C10.6528 41.0243 10.4418 41.1259 10.2817 41.2822L8.28164 43.2822C7.88319 43.6807 7.88319 44.3213 8.28164 44.7197C8.68008 45.1182 9.32072 45.1182 9.71917 44.7197L11.7192 42.7197C12.0434 42.4189 12.1294 41.9423 11.9341 41.5478C11.7426 41.1493 11.309 40.9306 10.8754 41.0009ZM29.8759 41.0009C29.6532 41.0243 29.4423 41.1259 29.2821 41.2822L27.2821 43.2822C26.8836 43.6807 26.8836 44.3213 27.2821 44.7197C27.6805 45.1182 28.3211 45.1182 28.7196 44.7197L30.7196 42.7197C31.0439 42.4189 31.1298 41.9423 30.9345 41.5478C30.7431 41.1493 30.3095 40.9306 29.8759 41.0009ZM19.8756 45.001C19.653 45.0244 19.442 45.126 19.2819 45.2823L17.2818 47.2823C16.8834 47.6807 16.8834 48.3214 17.2818 48.7198C17.6803 49.1183 18.3209 49.1183 18.7194 48.7198L20.7194 46.7198C21.0436 46.419 21.1296 45.9424 20.9343 45.5479C20.7428 45.1494 20.3092 44.9307 19.8756 45.001Z" fill="#FDFDFD"/>
<path d="M31.505 6L30.1925 6.25001C26.4619 6.99221 23.4033 9.61727 22.0673 13.0939C21.8681 13.6134 22.1259 14.1916 22.6455 14.3908C23.165 14.59 23.7431 14.3322 23.9424 13.8127C24.8955 11.3361 26.9542 9.45711 29.4737 8.59382C29.7862 14.3791 34.4856 19.0315 40.349 19.0315C40.5638 19.0315 40.7631 18.9808 40.974 18.969C40.5873 20.6761 39.8646 22.2504 38.6614 23.4379C38.263 23.8246 38.2591 24.4613 38.6458 24.8598C39.0326 25.2582 39.6693 25.2621 40.0677 24.8754C41.8959 23.0746 43.103 20.6214 43.3178 17.9065L43.4116 16.594L42.099 16.844C41.5287 16.9573 40.9506 17.0315 40.349 17.0315C35.3684 17.0315 31.3488 13.0119 31.3488 8.03131C31.3488 7.80865 31.3605 7.57427 31.38 7.31255L31.505 6Z" fill="#FDFDFD"/>
</svg>
