<svg width="50" height="50" viewBox="0 0 50 50" fill="none" xmlns="http://www.w3.org/2000/svg">
<path d="M22.5004 4.00009C16.7503 4.00009 12.0002 8.7502 12.0002 14.5003C12.0002 14.6995 12.0197 14.8167 12.0314 15.0042C12.0236 15.0042 12.008 15.0003 12.0002 15.0003C7.57039 15.0003 4 18.5707 4 23.0005C4 27.4303 7.57039 31.0007 12.0002 31.0007H13.0002C13.3596 31.0046 13.6955 30.8171 13.8791 30.5046C14.0588 30.1921 14.0588 29.8093 13.8791 29.4968C13.6955 29.1842 13.3596 28.9967 13.0002 29.0007H12.0002C8.62901 29.0007 6.00004 26.3717 6.00004 23.0005C6.00004 19.6294 8.62901 17.0004 12.0002 17.0004C12.3986 17.0004 12.7346 17.0316 12.7814 17.0473L14.0979 17.4887V16.098C14.0979 15.4652 14.0002 14.8675 14.0002 14.5003C14.0002 9.8518 17.8519 6.00016 22.5004 6.00016C26.813 6.00016 30.2857 9.13304 30.9108 13.1566L31.1256 14.5082L32.3483 13.8949C33.4303 13.3558 34.6804 13.0003 36.0007 13.0003C40.4656 13.0003 44.0009 16.5355 44.0009 21.0005C44.0009 25.4654 40.4656 29.0007 36.0007 29.0007H35.0007C34.6413 28.9968 34.3054 29.1843 34.1218 29.4968C33.9421 29.8093 33.9421 30.1921 34.1218 30.5046C34.3054 30.8171 34.6413 31.0046 35.0007 31.0007H36.0007C41.536 31.0007 46.0009 26.5358 46.0009 21.0005C46.0009 15.4652 41.536 11.0003 36.0007 11.0003C34.7312 11.0003 33.5749 11.305 32.4967 11.7151C31.2701 7.3244 27.356 4.00009 22.5004 4.00009ZM23.0004 20.0004L16.0003 29.0006H20.0004L14.9026 37.0008L26.0005 27.0006H21.0004L28.0005 20.0004H23.0004ZM29.0006 27.0006L22.0004 36.0008H26.0982L21.0004 44.001L32.0983 34.0008H27.0982L34.0983 27.0006H29.0006Z" fill="#FDFDFD"/>
</svg>
