<svg width="50" height="50" viewBox="0 0 50 50" fill="none" xmlns="http://www.w3.org/2000/svg">
<path d="M22.5004 5.00012C16.7151 5.00012 12.0002 9.71117 12.0002 15.5004C12.0002 15.6722 12.0236 15.8324 12.0314 16.0004C12.0197 16.0004 12.0119 16.0004 12.0002 16.0004C7.59383 16.0004 4 19.5942 4 24.0005C4 28.4069 7.59383 32.0007 12.0002 32.0007C12.3596 32.0046 12.6955 31.8171 12.8791 31.5046C13.0588 31.1921 13.0588 30.8093 12.8791 30.4968C12.6955 30.1843 12.3596 29.9968 12.0002 30.0007C8.67588 30.0007 6.00004 27.3248 6.00004 24.0006C6.00004 20.6763 8.67588 18.0004 12.0002 18.0004C12.3244 18.0004 12.633 18.0395 12.9689 18.0942L14.3752 18.3129L14.1252 16.9379C14.0432 16.4574 14.0002 15.9769 14.0002 15.5004C14.0002 10.7932 17.7933 7.00018 22.5004 7.00018C26.7505 7.00018 30.235 10.0979 30.8756 14.1566L31.0944 15.5316L32.3444 14.9066C33.4499 14.3363 34.6765 14.0003 36.0007 14.0003C40.4305 14.0003 44.0009 17.5707 44.0009 22.0005C44.0009 26.4303 40.4305 30.0007 36.0007 30.0007C35.6413 29.9968 35.3054 30.1843 35.1218 30.4968C34.9421 30.8093 34.9421 31.1921 35.1218 31.5046C35.3054 31.8171 35.6413 32.0046 36.0007 32.0007C41.5126 32.0007 46.0009 27.5123 46.0009 22.0005C46.0009 16.4887 41.5126 12.0003 36.0007 12.0003C34.7468 12.0003 33.5749 12.2972 32.4694 12.719C31.2311 8.29708 27.3091 5.00012 22.5004 5.00012ZM23.9067 17.9692C23.8637 17.977 23.8207 17.9887 23.7817 18.0004C23.3168 18.1059 22.9887 18.5239 23.0004 19.0004V20.0005H22.5004C22.4692 20.0005 22.4379 20.0005 22.4067 20.0005C21.8559 20.0278 21.4262 20.4966 21.4535 21.0474C21.4809 21.5982 21.9496 22.0279 22.5004 22.0005H23.0004V25.2506L20.1566 23.6255L20.4066 23.188C20.5941 22.8677 20.5863 22.4693 20.391 22.1568C20.1918 21.8403 19.8402 21.6607 19.4691 21.688C19.141 21.7153 18.8519 21.9028 18.6878 22.188L18.4378 22.6255L17.5628 22.1255C17.3636 22.0083 17.1331 21.9653 16.9066 22.0005C16.473 22.0552 16.1292 22.3833 16.0472 22.813C15.969 23.2427 16.18 23.6724 16.5628 23.8756L17.4378 24.3756L17.1878 24.8131C16.9613 25.1217 16.93 25.5318 17.1058 25.8717C17.2855 26.2115 17.641 26.4186 18.0238 26.4069C18.4105 26.3951 18.7504 26.1647 18.9066 25.8131L19.1566 25.3756L21.9692 27.0006L19.1566 28.6257L18.9066 28.1881C18.7074 27.8327 18.3089 27.6374 17.9066 27.6881C17.5746 27.735 17.2894 27.946 17.1449 28.2467C17.0003 28.5475 17.0159 28.8991 17.1878 29.1882L17.4378 29.6257L16.5628 30.1257C16.0784 30.403 15.9105 31.0163 16.1878 31.5007C16.4651 31.9851 17.0785 32.1531 17.5628 31.8757L18.4379 31.3757L18.6879 31.8132C18.8441 32.1648 19.184 32.3953 19.5707 32.407C19.9535 32.4187 20.309 32.2117 20.4887 31.8718C20.6645 31.532 20.6332 31.1218 20.4066 30.8132L20.1566 30.3757L23.0005 28.7507V32.0007H22.5004C22.4692 32.0007 22.4379 32.0007 22.4067 32.0007C21.8559 32.0281 21.4262 32.4968 21.4535 33.0476C21.4809 33.5984 21.9496 34.0281 22.5005 34.0008H23.0005V35.0008C22.9966 35.3602 23.1841 35.6961 23.4966 35.8797C23.8091 36.0594 24.1919 36.0594 24.5044 35.8797C24.8169 35.6961 25.0044 35.3602 25.0005 35.0008V34.0008H25.5005C25.8599 34.0047 26.1958 33.8172 26.3794 33.5047C26.5591 33.1922 26.5591 32.8094 26.3794 32.4969C26.1958 32.1843 25.8599 31.9968 25.5005 32.0008H25.0005V28.7507L27.8443 30.3757L27.5943 30.8132C27.3677 31.1218 27.3365 31.532 27.5123 31.8718C27.692 32.2117 28.0474 32.4187 28.4303 32.407C28.817 32.3953 29.1568 32.1648 29.3131 31.8133L29.5631 31.3757L30.4381 31.8758C30.9225 32.1531 31.5358 31.9851 31.8131 31.5007C32.0905 31.0164 31.9225 30.4031 31.4381 30.1257L30.5631 29.6257L30.8131 29.1882C31.0006 28.8679 30.9928 28.4694 30.7975 28.1569C30.5983 27.8405 30.2467 27.6608 29.8756 27.6882C29.5475 27.7155 29.2584 27.903 29.0943 28.1882L28.8443 28.6257L26.0318 27.0006L28.8443 25.3756L29.0943 25.8131C29.2506 26.1647 29.5904 26.3952 29.9772 26.4069C30.36 26.4186 30.7155 26.2116 30.8952 25.8717C31.0709 25.5319 31.0397 25.1217 30.8131 24.8131L30.5631 24.3756L31.4381 23.8756C31.8952 23.6529 32.11 23.1256 31.9421 22.6451C31.778 22.1685 31.278 21.8911 30.7819 22.0005C30.6608 22.0201 30.5436 22.063 30.4381 22.1255L29.5631 22.6255L29.3131 22.188C29.1139 21.8326 28.7154 21.6372 28.3131 21.688C27.981 21.7349 27.6959 21.9458 27.5513 22.2466C27.4068 22.5474 27.4224 22.899 27.5943 23.1881L27.8443 23.6256L25.0005 25.2506V22.0005H25.5005C25.8599 22.0044 26.1958 21.8169 26.3794 21.5044C26.5591 21.1919 26.5591 20.8091 26.3794 20.4966C26.1959 20.1841 25.8599 19.9966 25.5005 20.0005H25.0005V19.0005C25.0122 18.7114 24.895 18.4341 24.688 18.2387C24.4771 18.0395 24.1919 17.9418 23.9067 17.9692ZM40.1571 33.9695C40.0946 33.9734 40.032 33.9851 39.9695 34.0008C39.6766 34.0594 39.4227 34.2508 39.282 34.5164C39.1453 34.7859 39.1336 35.0985 39.2508 35.3758L39.6883 36.4696L38.6258 36.9071C38.2586 37.0165 37.989 37.3212 37.9226 37.6962C37.8601 38.0712 38.0125 38.4501 38.3211 38.6767C38.6297 38.8993 39.0398 38.9267 39.3758 38.7509L40.4696 38.3134L40.9071 39.3759C41.0165 39.7431 41.3211 40.0126 41.6962 40.079C42.0712 40.1415 42.4501 39.9892 42.6766 39.6806C42.8993 39.372 42.9267 38.9618 42.7509 38.6259L42.3134 37.5321L43.3759 37.0946C43.8446 36.9227 44.1142 36.4383 44.0126 35.95C43.9111 35.4618 43.4657 35.1258 42.9696 35.1571C42.8485 35.1688 42.7353 35.2 42.6259 35.2508L41.5321 35.6883L41.0946 34.6258C40.9501 34.2313 40.575 33.9695 40.1571 33.9695ZM8.15634 34.9695C8.09384 34.9735 8.03134 34.9852 7.96884 35.0008C7.67586 35.0594 7.42196 35.2508 7.28132 35.5164C7.1446 35.786 7.13288 36.0985 7.25007 36.3758L7.68758 37.4696L6.62506 37.9071C6.25786 38.0165 5.98832 38.3212 5.92192 38.6962C5.85942 39.0712 6.01176 39.4501 6.32037 39.6767C6.62897 39.8993 7.03914 39.9267 7.37508 39.7509L8.46886 39.3134L8.90637 40.3759C9.01575 40.7431 9.32044 41.0127 9.69545 41.0791C10.0705 41.1416 10.4494 40.9892 10.6759 40.6806C10.8986 40.372 10.9259 39.9619 10.7502 39.6259L10.3126 38.5321L11.3752 38.0946C11.8439 37.9227 12.1135 37.4384 12.0119 36.9501C11.9103 36.4618 11.465 36.1258 10.9689 36.1571C10.8478 36.1688 10.7345 36.2 10.6252 36.2508L9.53138 36.6883L9.09387 35.6258C8.94934 35.2313 8.57432 34.9695 8.15634 34.9695ZM25.1567 38.9696C25.0942 38.9735 25.0317 38.9853 24.9692 39.0009C24.6762 39.0595 24.4223 39.2509 24.2817 39.5165C24.145 39.7861 24.1333 40.0986 24.2504 40.3759L24.688 41.4697L23.6254 41.9072C23.2582 42.0166 22.9887 42.3213 22.9223 42.6963C22.8598 43.0713 23.0121 43.4502 23.3207 43.6768C23.6293 43.8994 24.0395 43.9268 24.3755 43.751L25.4692 43.3135L25.9067 44.376C26.0161 44.7432 26.3208 45.0127 26.6958 45.0792C27.0708 45.1417 27.4498 44.9893 27.6763 44.6807C27.899 44.3721 27.9263 43.9619 27.7505 43.626L27.313 42.5322L28.3756 42.0947C28.8443 41.9228 29.1138 41.4384 29.0123 40.9502C28.9107 40.4619 28.4654 40.1259 27.9693 40.1572C27.8482 40.1689 27.7349 40.2001 27.6255 40.2509L26.5318 40.6884L26.0942 39.6259C25.9497 39.2314 25.5747 38.9696 25.1567 38.9696ZM15.1565 42.9697C15.094 42.9736 15.0315 42.9853 14.969 43.001C14.676 43.0596 14.4221 43.251 14.2815 43.5166C14.1448 43.7861 14.133 44.0987 14.2502 44.376L14.6877 45.4698L13.6252 45.9073C13.258 46.0167 12.9885 46.3214 12.9221 46.6964C12.8596 47.0714 13.0119 47.4503 13.3205 47.6769C13.6291 47.8995 14.0393 47.9269 14.3752 47.7511L15.469 47.3136L15.9065 48.3761C16.0159 48.7433 16.3206 49.0128 16.6956 49.0792C17.0706 49.1417 17.4495 48.9894 17.6761 48.6808C17.8988 48.3722 17.9261 47.962 17.7503 47.6261L17.3128 46.5323L18.3753 46.0948C18.8441 45.9229 19.1136 45.4385 19.0121 44.9502C18.9105 44.462 18.4652 44.126 17.9691 44.1573C17.848 44.169 17.7347 44.2002 17.6253 44.251L16.5315 44.6885L16.094 43.626C15.9495 43.2315 15.5745 42.9697 15.1565 42.9697ZM35.1569 42.9697C35.0944 42.9736 35.0319 42.9853 34.9694 43.001C34.6765 43.0596 34.4226 43.251 34.2819 43.5166C34.1452 43.7861 34.1335 44.0987 34.2507 44.376L34.6882 45.4698L33.6257 45.9073C33.2585 46.0167 32.9889 46.3214 32.9225 46.6964C32.86 47.0714 33.0124 47.4503 33.321 47.6769C33.6296 47.8995 34.0397 47.9269 34.3757 47.7511L35.4695 47.3136L35.907 48.3761C36.0164 48.7433 36.321 49.0128 36.696 49.0792C37.0711 49.1417 37.45 48.9894 37.6765 48.6808C37.8992 48.3722 37.9265 47.962 37.7508 47.6261L37.3133 46.5323L38.3758 46.0948C38.8445 45.9229 39.1141 45.4385 39.0125 44.9502C38.9109 44.462 38.4656 44.126 37.9695 44.1573C37.8484 44.169 37.7351 44.2002 37.6258 44.251L36.532 44.6885L36.0945 43.626C35.9499 43.2315 35.5749 42.9697 35.1569 42.9697Z" fill="#FDFDFD"/>
</svg>
