<svg width="50" height="50" viewBox="0 0 50 50" fill="none" xmlns="http://www.w3.org/2000/svg">
<path d="M27.3131 10.969L26.0005 11.1565C21.4653 11.805 17.641 14.6292 15.5941 18.5317C15.4144 18.852 15.4261 19.2426 15.6214 19.5551C15.8167 19.8637 16.1683 20.0434 16.5316 20.02C16.8988 19.9965 17.223 19.77 17.3753 19.4379C18.9301 16.473 21.7114 14.3245 25.0318 13.469C25.024 13.6487 25.0005 13.8167 25.0005 14.0003C25.0005 21.7192 31.2819 28.0006 39.0008 28.0006C39.1649 28.0006 39.3094 27.9772 39.4696 27.9694C38.1297 33.1335 33.5905 37.0008 28.0006 37.0008C27.6412 36.9969 27.3053 37.1844 27.1217 37.4969C26.942 37.8094 26.942 38.1922 27.1217 38.5048C27.3052 38.8173 27.6412 39.0048 28.0006 39.0009C35.0437 39.0009 40.872 33.782 41.8446 27.0006L42.0321 25.6881L40.7196 25.8756C40.1376 25.9576 39.5673 26.0006 39.0008 26.0006C32.3601 26.0006 27.0006 20.6411 27.0006 14.0003C27.0006 13.4339 27.0435 12.8636 27.1256 12.2815L27.3131 10.969ZM8.81266 22.0005C8.26186 22.0513 7.85561 22.5435 7.90639 23.0943C7.95717 23.6451 8.44937 24.0513 9.00016 24.0005H24.0005C24.3599 24.0044 24.6958 23.8169 24.8794 23.5044C25.0591 23.1919 25.0591 22.8091 24.8794 22.4966C24.6958 22.1841 24.3599 21.9966 24.0005 22.0005H9.00016C8.96891 22.0005 8.93766 22.0005 8.90641 22.0005C8.87516 22.0005 8.84391 22.0005 8.81266 22.0005ZM13.8128 28.0006C13.262 28.0514 12.8557 28.5436 12.9065 29.0944C12.9573 29.6452 13.4495 30.0514 14.0003 30.0007H29.0006C29.36 30.0046 29.6959 29.8171 29.8795 29.5046C30.0592 29.1921 30.0592 28.8092 29.8795 28.4967C29.6959 28.1842 29.36 27.9967 29.0006 28.0006H14.0003C13.969 28.0006 13.9378 28.0006 13.9065 28.0006C13.8753 28.0006 13.844 28.0006 13.8128 28.0006ZM8.81266 34.0008C8.26186 34.0515 7.85561 34.5437 7.90639 35.0945C7.95717 35.6453 8.44937 36.0516 9.00016 36.0008H24.0005C24.3599 36.0047 24.6958 35.8172 24.8794 35.5047C25.0591 35.1922 25.0591 34.8094 24.8794 34.4969C24.6958 34.1844 24.3599 33.9969 24.0005 34.0008H9.00016C8.96891 34.0008 8.93766 34.0008 8.90641 34.0008C8.87516 34.0008 8.84391 34.0008 8.81266 34.0008Z" fill="#FDFDFD"/>
</svg>
