<svg width="50" height="50" viewBox="0 0 50 50" fill="none" xmlns="http://www.w3.org/2000/svg">
<path d="M19.0005 5.03331C18.871 5.03331 18.7406 5.09531 18.6626 5.22082C18.1706 6.00883 17.3149 7.49609 17.3149 8.2951C17.3149 9.21913 18.0695 9.96702 19.0005 9.96702C19.9315 9.96702 20.6861 9.21913 20.6861 8.29512C20.6861 7.4971 19.8304 6.00884 19.3384 5.22083C19.2604 5.09532 19.13 5.03331 19.0005 5.03331ZM31.0008 5.03331C30.8713 5.03331 30.7409 5.09531 30.6629 5.22082C30.1708 6.00883 29.3152 7.49609 29.3152 8.2951C29.3152 9.21913 30.0697 9.96702 31.0008 9.96702C31.9318 9.96702 32.6863 9.21913 32.6863 8.29512C32.6863 7.4971 31.8307 6.00884 31.3387 5.22083C31.2607 5.09532 31.1303 5.03331 31.0008 5.03331ZM10.0003 10.1916C9.87254 10.1916 9.7448 10.2532 9.6663 10.3752C9.09729 11.2593 8.00024 13.088 8.00024 14.053C8.00024 15.1271 8.89526 15.9964 10.0003 15.9964C11.1053 15.9964 12.0003 15.1281 12.0003 14.053C12.0003 13.088 10.9033 11.2593 10.3343 10.3752C10.2558 10.2532 10.128 10.1916 10.0003 10.1916ZM40.001 10.1916C39.8732 10.1916 39.7455 10.2532 39.667 10.3752C39.098 11.2593 38.0009 13.088 38.0009 14.053C38.0009 15.1271 38.8959 15.9964 40.001 15.9964C41.106 15.9964 42.001 15.1281 42.001 14.053C42.001 13.088 40.904 11.2593 40.3349 10.3752C40.2564 10.2532 40.1287 10.1916 40.001 10.1916ZM25.0006 12.0003C24.7246 12.0003 24.5006 12.2243 24.5006 12.5003V14.4788C15.911 14.7304 9.00027 21.3642 9.00027 29.5007C9.00027 29.7297 9.15522 29.929 9.37722 29.985C9.41823 29.996 9.45928 30.0007 9.50028 30.0007C9.68028 30.0007 9.84979 29.9039 9.93779 29.7409C9.95279 29.7139 11.4783 27.0006 14.6684 27.0006C17.8404 27.0006 19.333 29.6299 19.395 29.7429C19.483 29.9019 19.6505 30.0007 19.8325 30.0007C20.0135 30.0007 20.184 29.9029 20.272 29.7409C20.287 29.7139 21.8106 27.0006 25.0006 27.0006C28.1737 27.0006 29.6672 29.6299 29.7292 29.7429C29.8172 29.9019 29.9867 30.0007 30.1687 30.0007C30.3497 30.0007 30.5172 29.9029 30.6062 29.7409C30.6212 29.7139 32.1428 27.0006 35.3329 27.0006C38.506 27.0006 40.0015 29.6289 40.0635 29.7409C40.1735 29.9399 40.4 30.0401 40.626 29.9831C40.847 29.9261 41.001 29.7287 41.001 29.5007C41.001 21.3642 34.0903 14.7304 25.5006 14.4789V12.5003C25.5006 12.2243 25.2766 12.0003 25.0006 12.0003ZM25.0006 28.0006C24.7246 28.0006 24.5006 28.2246 24.5006 28.5006V40.4794C24.5006 41.9295 23.3197 43.1084 21.8697 43.1084C20.4197 43.1084 19.2388 41.9295 19.2388 40.4794C19.2388 40.2034 19.0148 39.9794 18.7388 39.9794C18.4628 39.9794 18.2388 40.2034 18.2388 40.4794C18.2388 42.4815 19.8676 44.1084 21.8697 44.1084C23.8717 44.1084 25.5006 42.4805 25.5006 40.4794V28.5006C25.5006 28.2246 25.2766 28.0006 25.0006 28.0006Z" fill="#FDFDFD"/>
</svg>
