<svg width="50" height="50" viewBox="0 0 50 50" fill="none" xmlns="http://www.w3.org/2000/svg">
<path d="M25.0006 8.00018C34.3748 8.00018 42.001 15.6263 42.001 25.0006C42.001 34.3748 34.3748 42.0009 25.0006 42.0009C15.6264 42.0009 8.00024 34.3748 8.00024 25.0006C8.00024 15.6263 15.6264 8.00018 25.0006 8.00018ZM25.0006 15.0003C25.5526 15.0003 26.0006 14.5523 26.0006 14.0003C26.0006 13.4483 25.5526 13.0003 25.0006 13.0003C24.4486 13.0003 24.0006 13.4483 24.0006 14.0003C24.0006 14.5523 24.4486 15.0003 25.0006 15.0003ZM17.2224 18.2224C17.7745 18.2224 18.2225 17.7744 18.2225 17.2224C18.2225 16.6704 17.7745 16.2224 17.2224 16.2224C16.6704 16.2224 16.2224 16.6704 16.2224 17.2224C16.2224 17.7744 16.6704 18.2224 17.2224 18.2224ZM14.0004 26.0006C14.5524 26.0006 15.0004 25.5526 15.0004 25.0006C15.0004 24.4485 14.5524 24.0005 14.0004 24.0005C13.4484 24.0005 13.0004 24.4485 13.0004 25.0006C13.0004 25.5526 13.4484 26.0006 14.0004 26.0006ZM17.2224 33.7787C17.7745 33.7787 18.2225 33.3307 18.2225 32.7787C18.2225 32.2267 17.7745 31.7787 17.2224 31.7787C16.6704 31.7787 16.2224 32.2267 16.2224 32.7787C16.2224 33.3307 16.6704 33.7787 17.2224 33.7787ZM25.0006 37.0008C25.5526 37.0008 26.0006 36.5528 26.0006 36.0008C26.0006 35.4488 25.5526 35.0008 25.0006 35.0008C24.4486 35.0008 24.0006 35.4488 24.0006 36.0008C24.0006 36.5528 24.4486 37.0008 25.0006 37.0008ZM32.7788 33.7787C33.3308 33.7787 33.7788 33.3307 33.7788 32.7787C33.7788 32.2267 33.3308 31.7787 32.7788 31.7787C32.2268 31.7787 31.7788 32.2267 31.7788 32.7787C31.7788 33.3307 32.2268 33.7787 32.7788 33.7787ZM36.0009 26.0006C36.5529 26.0006 37.0009 25.5526 37.0009 25.0006C37.0009 24.4485 36.5529 24.0005 36.0009 24.0005C35.4489 24.0005 35.0008 24.4485 35.0008 25.0006C35.0008 25.5526 35.4489 26.0006 36.0009 26.0006ZM26.3437 24.3645L31.7118 18.9964C31.6248 19.2584 31.7938 19.5884 32.0558 19.6754C32.1088 19.6934 32.1608 19.7014 32.2138 19.7014C32.4228 19.7014 32.6178 19.5694 32.6888 19.3594L33.3958 17.2384C33.4558 17.0584 33.4088 16.8604 33.2748 16.7264C33.1408 16.5934 32.9438 16.5444 32.7628 16.6054L30.6407 17.3124C30.3787 17.3994 30.2377 17.6824 30.3247 17.9444C30.4127 18.2074 30.7467 18.3704 31.0088 18.2854L25.6376 23.6565C25.0806 23.3935 24.4016 23.4785 23.9406 23.9385C23.4806 24.3985 23.3956 25.0786 23.6586 25.6346L21.5115 27.7816C21.2075 27.6016 20.8635 27.4996 20.5005 27.4996C20.2245 27.4996 20.0005 27.7236 20.0005 27.9996C20.0005 28.2756 20.2245 28.4996 20.5005 28.4996C20.7675 28.4996 21.0185 28.6036 21.2075 28.7926C21.3955 28.9816 21.5005 29.2326 21.5005 29.4997C21.5005 29.7757 21.7245 29.9997 22.0006 29.9997C22.2766 29.9997 22.5006 29.7757 22.5006 29.4997C22.5006 29.1376 22.3976 28.7936 22.2186 28.4886L24.3656 26.3416C24.9226 26.6046 25.6016 26.5196 26.0616 26.0596C26.5217 25.6006 26.6067 24.9216 26.3437 24.3645Z" fill="#FDFDFD"/>
</svg>
