<svg width="50" height="50" viewBox="0 0 50 50" fill="none" xmlns="http://www.w3.org/2000/svg">
<g clip-path="url(#clip0_153_115)">
<path d="M25.0006 0.09375L24.2818 0.781265L17.4066 7.68767C17.1098 7.92986 16.973 8.31659 17.059 8.6916C17.1449 9.0627 17.4379 9.35568 17.809 9.44162C18.184 9.52756 18.5707 9.39084 18.8129 9.09395L24.0005 3.93759V20.0004C23.9966 20.3598 24.1841 20.6958 24.4966 20.8794C24.8092 21.0591 25.192 21.0591 25.5045 20.8794C25.817 20.6958 26.0045 20.3598 26.0006 20.0004V3.93759L31.1882 9.09395C31.4304 9.39084 31.8171 9.52755 32.1921 9.44162C32.5632 9.35568 32.8562 9.0627 32.9421 8.6916C33.0281 8.31659 32.8914 7.92986 32.5945 7.68767L25.7193 0.781265L25.0006 0.09375ZM24.9068 27.9694C24.8638 27.9772 24.8209 27.9889 24.7818 28.0006C24.317 28.1061 23.9888 28.5241 24.0005 29.0006V35.0008C23.9966 35.3602 24.1841 35.6961 24.4966 35.8797C24.8092 36.0594 25.192 36.0594 25.5045 35.8797C25.817 35.6961 26.0045 35.3602 26.0006 35.0008V29.0006C26.0123 28.7116 25.8951 28.4342 25.6881 28.2389C25.4771 28.0397 25.192 27.942 24.9068 27.9694ZM10.6877 33.8757C10.3127 33.9422 10.012 34.2156 9.90648 34.5789C9.80101 34.9461 9.91039 35.3367 10.1877 35.5945L14.4066 39.8134C14.6488 40.1103 15.0355 40.247 15.4105 40.1611C15.7816 40.0751 16.0746 39.7821 16.1605 39.411C16.2465 39.036 16.1097 38.6493 15.8129 38.4071L11.594 34.1883C11.4065 33.989 11.1487 33.8797 10.8753 33.8758C10.844 33.8758 10.8128 33.8758 10.7815 33.8758C10.7502 33.8758 10.719 33.8757 10.6877 33.8757ZM39.0009 33.8757C38.7743 33.907 38.5634 34.0203 38.4071 34.1883L34.1883 38.4071C33.8914 38.6493 33.7547 39.036 33.8406 39.411C33.9265 39.7821 34.2195 40.0751 34.5906 40.161C34.9656 40.247 35.3524 40.1103 35.5946 39.8134L39.8134 35.5945C40.1103 35.3094 40.2001 34.868 40.04 34.489C39.8837 34.1101 39.5048 33.8679 39.0946 33.8757C39.0634 33.8757 39.0321 33.8757 39.0009 33.8757ZM24.9068 39.0009C24.8756 39.0087 24.8443 39.0204 24.8131 39.0321C24.7506 39.036 24.6881 39.0477 24.6256 39.0634C24.6138 39.0751 24.606 39.0829 24.5943 39.0946C19.5942 39.3056 15.5511 43.0869 15.0628 48.0011H1.00003C0.968784 48.0011 0.937533 48.0011 0.906282 48.0011C0.35549 48.0284 -0.0742096 48.4972 -0.046859 49.048C-0.0195184 49.5988 0.449242 50.0285 1.00004 50.0011H49.0011C49.0949 50.005 49.1925 49.9933 49.2824 49.9699C49.4464 49.9269 49.5988 49.841 49.7199 49.7199C49.7433 49.6886 49.7628 49.6574 49.7824 49.6261C49.8058 49.6066 49.8253 49.587 49.8449 49.5636C49.8683 49.5324 49.8879 49.5011 49.9074 49.4699C49.9621 49.3527 49.9933 49.2238 50.0011 49.0948C50.0089 49.0206 50.0089 48.9503 50.0011 48.8761C49.9855 48.7198 49.9308 48.5714 49.8449 48.4386C49.8253 48.4073 49.8058 48.3761 49.7824 48.3448C49.7511 48.3214 49.7199 48.3019 49.6886 48.2823C49.6418 48.2355 49.5871 48.1925 49.5324 48.1573C49.4191 48.0792 49.2902 48.0284 49.1574 48.0011C49.1066 47.9972 49.0519 47.9972 49.0011 48.0011H34.9383C34.4539 43.1064 30.4421 39.3368 25.4693 39.0946C25.4342 39.0946 25.4107 39.0634 25.3756 39.0634C25.274 39.0243 25.1686 39.0048 25.0631 39.0009C25.0435 39.0009 25.0201 39.0009 25.0006 39.0009C24.9693 39.0009 24.9381 39.0009 24.9068 39.0009ZM24.9381 41.0009C24.9576 41.0009 24.981 41.0009 25.0006 41.0009C25.0318 41.0009 25.0631 41.0009 25.0943 41.0009C29.1764 41.0478 32.4578 44.0518 32.9382 48.0011H17.0629C17.5473 44.0439 20.8442 41.0322 24.9381 41.0009Z" fill="#FDFDFD"/>
</g>
<defs>
<clipPath id="clip0_153_115">
<rect width="50" height="50" fill="white"/>
</clipPath>
</defs>
</svg>
