<svg width="50" height="50" viewBox="0 0 50 50" fill="none" xmlns="http://www.w3.org/2000/svg">
<path d="M24.9067 3.96884C24.8638 3.97665 24.8208 3.98837 24.7817 4.00009C24.3169 4.10556 23.9887 4.52354 24.0005 5.00011V11.0002C23.9966 11.3596 24.1841 11.6956 24.4966 11.8792C24.8091 12.0589 25.1919 12.0589 25.5044 11.8792C25.8169 11.6956 26.0044 11.3596 26.0005 11.0002V5.00011C26.0122 4.71105 25.895 4.43369 25.688 4.23838C25.4771 4.03915 25.1919 3.9415 24.9067 3.96884ZM10.6564 9.84397C10.2814 9.91038 9.98063 10.1838 9.87515 10.5471C9.76968 10.9143 9.87906 11.3049 10.1564 11.5628L14.4065 15.8129C14.6487 16.1098 15.0354 16.2465 15.4104 16.1605C15.7815 16.0746 16.0745 15.7816 16.1605 15.4105C16.2464 15.0355 16.1097 14.6488 15.8128 14.4066L11.5627 10.1565C11.3557 9.93382 11.0549 9.82054 10.7502 9.84398C10.7189 9.84398 10.6877 9.84397 10.6564 9.84397ZM39.032 9.84397C38.8055 9.87522 38.5945 9.9885 38.4383 10.1565L34.1882 14.4066C33.8913 14.6488 33.7546 15.0355 33.8405 15.4105C33.9265 15.7816 34.2194 16.0746 34.5905 16.1605C34.9656 16.2465 35.3523 16.1097 35.5945 15.8129L39.8446 11.5628C40.1571 11.2659 40.2469 10.801 40.0633 10.4104C39.8758 10.0159 39.4617 9.78929 39.032 9.84397ZM24.9067 15.0003C24.8755 15.0081 24.8442 15.0199 24.813 15.0316C24.7505 15.0355 24.688 15.0472 24.6255 15.0628C24.6138 15.0746 24.606 15.0824 24.5942 15.0941C19.2894 15.3207 15.0003 19.6411 15.0003 25.0006C15.0003 30.5046 19.4965 35.0008 25.0005 35.0008C30.5045 35.0008 35.0007 30.5046 35.0007 25.0006C35.0007 19.6606 30.7467 15.3558 25.4693 15.0941C25.4341 15.0941 25.4107 15.0628 25.3755 15.0628C25.2739 15.0238 25.1685 15.0042 25.063 15.0003C25.0435 15.0003 25.02 15.0003 25.0005 15.0003C24.9692 15.0003 24.938 15.0003 24.9067 15.0003ZM24.938 17.0004C24.9575 17.0004 24.981 17.0004 25.0005 17.0004C25.0317 17.0004 25.063 17.0004 25.0942 17.0004C29.4693 17.0512 33.0007 20.6137 33.0007 25.0006C33.0007 29.4225 29.4225 33.0007 25.0005 33.0007C20.5824 33.0007 17.0003 29.4225 17.0003 25.0006C17.0003 20.602 20.5473 17.0355 24.938 17.0004ZM4.71879 24.0005C4.168 24.0787 3.78127 24.5904 3.8594 25.1412C3.93753 25.692 4.44925 26.0787 5.00006 26.0006H11.0002C11.3596 26.0045 11.6955 25.817 11.8791 25.5045C12.0588 25.192 12.0588 24.8092 11.8791 24.4967C11.6955 24.1842 11.3596 23.9966 11.0002 24.0006H5.00006C4.96881 24.0006 4.93755 24.0006 4.9063 24.0006C4.87505 24.0006 4.8438 24.0006 4.81255 24.0006C4.7813 24.0006 4.75004 24.0005 4.71879 24.0005ZM38.7195 24.0005C38.1688 24.0787 37.782 24.5904 37.8602 25.1412C37.9383 25.692 38.45 26.0787 39.0008 26.0006H45.0009C45.3603 26.0045 45.6963 25.817 45.8799 25.5045C46.0596 25.192 46.0596 24.8092 45.8799 24.4967C45.6963 24.1842 45.3603 23.9966 45.0009 24.0006H39.0008C38.9696 24.0006 38.9383 24.0006 38.9071 24.0006C38.8758 24.0006 38.8446 24.0006 38.8133 24.0006C38.7821 24.0006 38.7508 24.0005 38.7195 24.0005ZM15.0003 33.8758C14.7737 33.907 14.5628 34.0203 14.4065 34.1883L10.1564 38.4384C9.85953 38.6806 9.72281 39.0673 9.80874 39.4423C9.89468 39.8134 10.1877 40.1064 10.5588 40.1923C10.9338 40.2782 11.3205 40.1415 11.5627 39.8446L15.8128 35.5945C16.1097 35.3094 16.1995 34.868 16.0394 34.489C15.8831 34.1101 15.5042 33.8679 15.094 33.8758C15.0628 33.8758 15.0315 33.8758 15.0003 33.8758ZM34.6882 33.8758C34.3132 33.9422 34.0124 34.2156 33.9069 34.5789C33.8015 34.9461 33.9108 35.3367 34.1882 35.5946L38.4383 39.8446C38.6805 40.1415 39.0672 40.2782 39.4422 40.1923C39.8133 40.1064 40.1063 39.8134 40.1922 39.4423C40.2782 39.0673 40.1415 38.6806 39.8446 38.4384L35.5945 34.1883C35.407 33.989 35.1492 33.8797 34.8757 33.8758C34.8445 33.8758 34.8132 33.8758 34.782 33.8758C34.7507 33.8758 34.7195 33.8758 34.6882 33.8758ZM24.9067 37.9696C24.8638 37.9774 24.8208 37.9891 24.7817 38.0008C24.3169 38.1063 23.9887 38.5243 24.0005 39.0009V45.001C23.9966 45.3604 24.1841 45.6963 24.4966 45.8799C24.8091 46.0596 25.1919 46.0596 25.5044 45.8799C25.8169 45.6963 26.0044 45.3604 26.0005 45.001V39.0009C26.0122 38.7118 25.895 38.4344 25.688 38.2391C25.4771 38.0399 25.1919 37.9423 24.9067 37.9696Z" fill="#141414"/>
</svg>
