<svg width="50" height="50" viewBox="0 0 50 50" fill="none" xmlns="http://www.w3.org/2000/svg">
<g clip-path="url(#clip0_153_34)">
<path d="M16.9067 3.96884C16.8637 3.97665 16.8207 3.98837 16.7816 4.00009C16.3168 4.10556 15.9887 4.52354 16.0004 5.00011V10.0002C15.9965 10.3596 16.184 10.6955 16.4965 10.8792C16.809 11.0588 17.1918 11.0588 17.5043 10.8792C17.8168 10.6956 18.0043 10.3596 18.0004 10.0002V5.00011C18.0121 4.71104 17.8949 4.43369 17.6879 4.23837C17.477 4.03915 17.1918 3.9415 16.9067 3.96884ZM5.5939 8.65644C5.55093 8.66425 5.50796 8.67597 5.4689 8.68769C5.09389 8.7541 4.7931 9.02754 4.68763 9.39084C4.58216 9.75804 4.69154 10.1487 4.96888 10.4065L8.50021 13.9378C8.89866 14.3363 9.5393 14.3363 9.93774 13.9378C10.3362 13.5394 10.3362 12.8987 9.93774 12.5003L6.40642 8.96896C6.19938 8.74629 5.8986 8.633 5.5939 8.65644ZM28.2194 8.65644C28.1764 8.66425 28.1335 8.67597 28.0944 8.68769C27.903 8.73066 27.7311 8.82833 27.5944 8.96895L24.0631 12.5003C23.6646 12.8987 23.6646 13.5394 24.0631 13.9378C24.4615 14.3363 25.1021 14.3363 25.5006 13.9378L29.0319 10.4065C29.3757 10.1174 29.4851 9.62912 29.2936 9.22286C29.1022 8.81269 28.6647 8.58223 28.2194 8.65644ZM16.9067 13.0003C16.8754 13.0081 16.8441 13.0198 16.8129 13.0315C16.7504 13.0354 16.6879 13.0472 16.6254 13.0628C16.6137 13.0745 16.6059 13.0823 16.5941 13.094C12.3909 13.3206 9.00022 16.7465 9.00022 21.0005C9.00022 23.9654 10.6174 26.5592 13.0316 27.9381C13.3402 28.1647 13.7503 28.1959 14.0902 28.0202C14.43 27.8405 14.6371 27.485 14.6253 27.1022C14.6136 26.7154 14.3832 26.3756 14.0316 26.2193C12.223 25.1841 11.0003 23.2349 11.0003 21.0005C11.0003 17.7074 13.6527 15.0355 16.9379 15.0003C16.9574 15.0003 16.9809 15.0003 17.0004 15.0003C17.0317 15.0003 17.0629 15.0003 17.0942 15.0003C18.5434 15.0238 19.8481 15.5589 20.8755 16.4379C21.2974 16.8012 21.9341 16.7504 22.2974 16.3285C22.6607 15.9066 22.6099 15.2699 22.188 14.9066C20.9067 13.8128 19.2505 13.2034 17.4692 13.094C17.4379 13.0823 17.4067 13.0706 17.3754 13.0628C17.2739 13.0237 17.1684 13.0042 17.0629 13.0003C17.0434 13.0003 17.0199 13.0003 17.0004 13.0003C16.9692 13.0003 16.9379 13.0003 16.9067 13.0003ZM29.0007 16.0004C23.4888 16.0004 19.0004 20.4887 19.0004 26.0006C19.0004 26.4068 19.0747 26.7936 19.1255 27.1881C15.7035 27.6412 13.0003 30.4577 13.0003 34.0008C13.0003 37.8563 16.1449 41.0009 20.0005 41.0009H41.0009C45.9581 41.0009 50.0011 36.9578 50.0011 32.0007C50.0011 27.0436 45.9581 23.0005 41.0009 23.0005C40.1259 23.0005 39.3329 23.2661 38.5321 23.5005C37.4032 19.2153 33.6336 16.0004 29.0007 16.0004ZM29.0007 18.0004C33.0164 18.0004 36.3172 20.9419 36.9071 24.7818L37.0946 26.0631L38.2821 25.5631C39.1181 25.2076 40.0322 25.0006 41.0009 25.0006C44.8799 25.0006 48.0011 28.1217 48.0011 32.0007C48.0011 35.8797 44.8799 39.0009 41.0009 39.0009H20.0005C17.227 39.0009 15.0004 36.7743 15.0004 34.0008C15.0004 31.2273 17.227 29.0006 20.0005 29.0006C20.0044 29.0006 20.0591 28.9967 20.188 29.0006L21.5005 29.0631L21.2192 27.7819C21.0864 27.1998 21.0005 26.61 21.0005 26.0006C21.0005 21.5708 24.5709 18.0004 29.0007 18.0004ZM0.71879 20.0004C0.167997 20.0786 -0.218731 20.5903 -0.1406 21.1411C-0.0624678 21.6919 0.449254 22.0786 1.00006 22.0005H6.00017C6.35956 22.0044 6.69549 21.8169 6.8791 21.5044C7.05879 21.1919 7.05879 20.8091 6.8791 20.4966C6.6955 20.1841 6.35956 19.9966 6.00017 20.0005H1.00006C0.968805 20.0005 0.937555 20.0005 0.906304 20.0005C0.875053 20.0005 0.843802 20.0005 0.812552 20.0005C0.781301 20.0005 0.75004 20.0004 0.71879 20.0004ZM9.12523 27.7506C9.08226 27.7584 9.03928 27.7701 9.00022 27.7819C8.80881 27.8248 8.63694 27.9225 8.50021 28.0631L4.96888 31.5945C4.57044 31.9929 4.57044 32.6335 4.96888 33.032C5.36733 33.4304 6.00797 33.4304 6.40642 33.032L9.93774 29.4694C10.2503 29.1725 10.3401 28.7077 10.1565 28.317C9.969 27.9225 9.55493 27.6959 9.12523 27.7506Z" fill="#141414"/>
</g>
<defs>
<clipPath id="clip0_153_34">
<rect width="50" height="50" fill="white"/>
</clipPath>
</defs>
</svg>
