<svg width="50" height="50" viewBox="0 0 50 50" fill="none" xmlns="http://www.w3.org/2000/svg">
<path d="M22.5004 6.00014C16.7112 6.00014 12.0002 10.7112 12.0002 16.5004C12.0002 16.6644 12.0041 16.8324 12.0158 17.0004H12.0002C7.58992 17.0004 4 20.5903 4 25.0006C4 27.9577 5.61723 30.5397 8.0079 31.9226C8.02743 31.1999 8.30479 30.5437 8.75011 30.0358C7.09773 28.9655 6.00004 27.11 6.00004 25.0006C6.00004 21.6919 8.69151 19.0004 12.0002 19.0004C12.301 19.0004 12.6213 19.0278 12.9846 19.0903L14.3674 19.3168L14.133 17.934C14.0432 17.4145 14.0002 16.9457 14.0002 16.5004C14.0002 11.8128 17.8128 8.00018 22.5004 8.00018C26.6997 8.00018 30.2272 11.012 30.8834 15.1644L31.0983 16.5316L32.3288 15.8949C33.4811 15.3011 34.7155 15.0003 36.0007 15.0003C40.411 15.0003 44.0009 18.5903 44.0009 23.0005C44.0009 27.0123 41.0282 30.3366 37.1726 30.9069C37.7547 31.403 38.2664 31.9812 38.6883 32.6257C42.8993 31.446 46.001 27.5826 46.001 23.0005C46.001 17.4848 41.5165 13.0003 36.0007 13.0003C34.821 13.0003 33.6804 13.2034 32.5827 13.6058C31.317 9.12912 27.2622 6.00014 22.5004 6.00014ZM24.3754 20.0004C22.4652 20.0004 20.8363 21.1997 20.1761 22.8755C19.9769 23.3872 20.2269 23.9693 20.7426 24.1724C21.2582 24.3716 21.8363 24.1216 22.0395 23.606C22.4106 22.6646 23.2973 22.0005 24.3755 22.0005C25.7349 22.0005 26.8755 23.1411 26.8755 24.5005C26.8755 25.86 25.7349 27.0006 24.3755 27.0006H13.0002C12.6408 26.9967 12.3049 27.1842 12.1213 27.4967C11.9416 27.8092 11.9416 28.192 12.1213 28.5045C12.3049 28.817 12.6408 29.0046 13.0002 29.0006H24.3755C24.4497 29.0006 24.5239 28.9928 24.5942 28.9811C26.9575 28.86 28.8756 26.8912 28.8756 24.5005C28.8756 22.0356 26.8403 20.0004 24.3754 20.0004ZM11.0001 31.0007C10.6408 30.9968 10.3048 31.1843 10.1212 31.4968C9.94152 31.8093 9.94152 32.1921 10.1212 32.5046C10.3048 32.8171 10.6408 33.0046 11.0001 33.0007H32.0006C34.2194 33.0007 36.0007 34.7781 36.0007 37.0008C36.0007 39.2157 34.2311 40.9072 31.9694 40.997C30.2584 41.0361 28.9068 40.0517 28.3091 38.3798C28.1216 37.8602 27.5474 37.5907 27.0278 37.7743C26.5083 37.9618 26.2388 38.536 26.4224 39.0555C27.2818 41.4423 29.4693 43.0595 32.024 43.0009C32.028 43.0009 32.0319 43.0009 32.0358 43.0009C35.2936 42.8759 38.0007 40.3017 38.0007 37.0008C38.0007 33.7351 35.3601 31.0632 32.1061 31.0046C32.0709 31.0046 32.0358 31.0007 32.0006 31.0007L11.0001 31.0007ZM9.0001 35.0008C8.64072 34.9969 8.30478 35.1844 8.12117 35.4969C7.94148 35.8094 7.94148 36.1922 8.12117 36.5047C8.30477 36.8172 8.64071 37.0047 9.0001 37.0008H18.0003C19.0863 37.0008 20.0003 37.9149 20.0003 39.0009C20.0003 40.0868 19.0863 41.0009 18.0003 41.0009C17.2073 41.0009 16.5667 40.5751 16.2542 39.954C16.0081 39.4579 15.4065 39.2587 14.9104 39.5048C14.4182 39.7548 14.219 40.3564 14.4651 40.8486C15.1135 42.1455 16.4729 43.001 18.0003 43.001C20.1918 43.001 22.0004 41.1923 22.0004 39.0009C22.0004 36.8836 20.309 35.1414 18.2191 35.0203C18.1488 35.0086 18.0745 35.0008 18.0003 35.0008L9.0001 35.0008Z" fill="#141414"/>
</svg>
