<svg width="50" height="50" viewBox="0 0 50 50" fill="none" xmlns="http://www.w3.org/2000/svg">
<g clip-path="url(#clip0_153_58)">
<path d="M16.9067 1.96878C16.8637 1.97659 16.8207 1.98831 16.7816 2.00003C16.3168 2.10551 15.9887 2.52349 16.0004 3.00006V8.00017C15.9965 8.35955 16.184 8.69549 16.4965 8.8791C16.809 9.05879 17.1918 9.05879 17.5043 8.8791C17.8168 8.6955 18.0043 8.35955 18.0004 8.00017V3.00006C18.0121 2.71099 17.8949 2.43363 17.6879 2.23832C17.477 2.03909 17.1918 1.94143 16.9067 1.96878ZM5.5939 6.65639C5.55093 6.6642 5.50796 6.67592 5.4689 6.68764C5.09389 6.75405 4.7931 7.02748 4.68763 7.39078C4.58216 7.75798 4.69154 8.14861 4.96888 8.40644L8.53146 11.9378C8.92991 12.3245 9.56665 12.3206 9.95337 11.9221C10.3401 11.5237 10.3362 10.887 9.93775 10.5002L6.40643 6.96891C6.19939 6.74625 5.8986 6.63295 5.5939 6.65639ZM28.2194 6.65639C28.1764 6.6642 28.1335 6.67592 28.0944 6.68764C27.903 6.73061 27.7311 6.82827 27.5944 6.96889L24.0631 10.5002C23.6646 10.8987 23.6646 11.5393 24.0631 11.9378C24.4615 12.3362 25.1021 12.3362 25.5006 11.9378L29.0319 8.40643C29.3757 8.11736 29.4851 7.62907 29.2936 7.22281C29.1022 6.81264 28.6647 6.58218 28.2194 6.65639ZM16.9067 11.0002C16.8754 11.008 16.8441 11.0198 16.8129 11.0315C16.7504 11.0354 16.6879 11.0471 16.6254 11.0627C16.6137 11.0745 16.6059 11.0823 16.5941 11.094C12.3909 11.3205 9.00022 14.7464 9.00022 19.0004C9.00022 21.9653 10.6174 24.5591 13.0316 25.9381C13.3402 26.1646 13.7503 26.1959 14.0902 26.0201C14.43 25.8404 14.6371 25.4849 14.6253 25.1021C14.6136 24.7154 14.3832 24.3755 14.0316 24.2193C12.223 23.1841 11.0003 21.2348 11.0003 19.0004C11.0003 15.7074 13.6527 13.0354 16.9379 13.0003C16.9574 13.0003 16.9809 13.0003 17.0004 13.0003C17.0317 13.0003 17.0629 13.0003 17.0942 13.0003C18.5434 13.0237 19.8481 13.5628 20.8755 14.4378C21.2974 14.8011 21.9341 14.7503 22.2974 14.3284C22.6607 13.9066 22.6099 13.2698 22.188 12.9065C20.9067 11.8128 19.2505 11.2034 17.4692 11.094C17.4379 11.0823 17.4067 11.0706 17.3754 11.0627C17.2739 11.0237 17.1684 11.0042 17.0629 11.0002C17.0434 11.0002 17.0199 11.0002 17.0004 11.0002C16.9692 11.0002 16.9379 11.0002 16.9067 11.0002ZM29.0007 14.0003C23.4888 14.0003 19.0004 18.4887 19.0004 24.0005C19.0004 24.4068 19.0747 24.7935 19.1255 25.188C15.7035 25.6412 13.0003 28.4576 13.0003 32.0007C13.0003 35.8563 16.1449 39.0009 20.0005 39.0009H41.0009C45.9581 39.0009 50.0011 34.9578 50.0011 30.0007C50.0011 25.0435 45.9581 21.0005 41.0009 21.0005C40.1259 21.0005 39.3329 21.2661 38.5321 21.5005C37.4032 17.2152 33.6336 14.0003 29.0007 14.0003ZM29.0007 16.0003C33.0164 16.0003 36.3172 18.9418 36.9071 22.7817L37.0946 24.063L38.2821 23.563C39.1181 23.2075 40.0322 23.0005 41.0009 23.0005C44.8799 23.0005 48.0011 26.1217 48.0011 30.0007C48.0011 33.8797 44.8799 37.0008 41.0009 37.0008H20.0005C17.227 37.0008 15.0004 34.7742 15.0004 32.0007C15.0004 29.2272 17.227 27.0006 20.0005 27.0006C20.0044 27.0006 20.0591 26.9967 20.188 27.0006L21.5005 27.0631L21.2192 25.7818C21.0864 25.1998 21.0005 24.6099 21.0005 24.0005C21.0005 19.5707 24.5709 16.0003 29.0007 16.0003ZM0.71879 18.0004C0.167997 18.0785 -0.218731 18.5902 -0.1406 19.141C-0.0624678 19.6918 0.449254 20.0786 1.00006 20.0004H6.00017C6.35956 20.0044 6.69549 19.8168 6.8791 19.5043C7.05879 19.1918 7.05879 18.809 6.8791 18.4965C6.6955 18.184 6.35956 17.9965 6.00017 18.0004H1.00006C0.968805 18.0004 0.937555 18.0004 0.906304 18.0004C0.875053 18.0004 0.843802 18.0004 0.812552 18.0004C0.781301 18.0004 0.75004 18.0004 0.71879 18.0004ZM9.12523 25.7506C9.08226 25.7584 9.03928 25.7701 9.00022 25.7818C8.82053 25.8287 8.66038 25.9263 8.53146 26.0631L4.96888 29.5944C4.57044 29.9928 4.57044 30.6335 4.96888 31.0319C5.36733 31.4304 6.00797 31.4304 6.40642 31.0319L9.93775 27.4693C10.2503 27.1725 10.3401 26.7076 10.1565 26.317C9.969 25.9224 9.55493 25.6959 9.12523 25.7506ZM21.8755 41.0009C21.6528 41.0243 21.4419 41.1259 21.2817 41.2822L19.2817 43.2822C18.8833 43.6806 18.8833 44.3213 19.2817 44.7197C19.6802 45.1182 20.3208 45.1182 20.7192 44.7197L22.7193 42.7197C23.0435 42.4189 23.1295 41.9423 22.9341 41.5478C22.7427 41.1493 22.3091 40.9306 21.8755 41.0009ZM40.8759 41.0009C40.6533 41.0243 40.4423 41.1259 40.2822 41.2822L38.2821 43.2822C37.8837 43.6806 37.8837 44.3213 38.2821 44.7197C38.6806 45.1182 39.3212 45.1182 39.7197 44.7197L41.7197 42.7197C42.0439 42.4189 42.1299 41.9423 41.9345 41.5478C41.7431 41.1493 41.3095 40.9306 40.8759 41.0009ZM30.8757 45.001C30.653 45.0244 30.4421 45.126 30.2819 45.2822L28.2819 47.2823C27.8835 47.6807 27.8835 48.3214 28.2819 48.7198C28.6804 49.1183 29.321 49.1183 29.7194 48.7198L31.7195 46.7198C32.0437 46.419 32.1296 45.9424 31.9343 45.5479C31.7429 45.1494 31.3093 44.9307 30.8757 45.001Z" fill="#141414"/>
</g>
<defs>
<clipPath id="clip0_153_58">
<rect width="50" height="50" fill="white"/>
</clipPath>
</defs>
</svg>
