<svg width="50" height="50" viewBox="0 0 50 50" fill="none" xmlns="http://www.w3.org/2000/svg">
<path d="M23.9067 3.96884C23.8637 3.97665 23.8208 3.98837 23.7817 4.00009C23.3168 4.10556 22.9887 4.52354 23.0004 5.00011V11.0002C22.9965 11.3596 23.184 11.6956 23.4965 11.8792C23.809 12.0589 24.1919 12.0589 24.5044 11.8792C24.8169 11.6956 25.0044 11.3596 25.0005 11.0002V5.00011C25.0122 4.71105 24.895 4.43369 24.688 4.23838C24.477 4.03915 24.1919 3.9415 23.9067 3.96884ZM9.65638 9.84397C9.28137 9.91038 8.98058 10.1838 8.87511 10.5471C8.76964 10.9143 8.87902 11.3049 9.15637 11.5628L13.4065 15.8129C13.6487 16.1098 14.0354 16.2465 14.4104 16.1605C14.7815 16.0746 15.0745 15.7816 15.1604 15.4105C15.2464 15.0355 15.1096 14.6488 14.8127 14.4066L10.5626 10.1565C10.3556 9.93382 10.0548 9.82054 9.75013 9.84398C9.71888 9.84398 9.68763 9.84397 9.65638 9.84397ZM38.032 9.84397C37.8054 9.87522 37.5945 9.9885 37.4382 10.1565L33.1881 14.4066C32.8913 14.6488 32.7545 15.0355 32.8405 15.4105C32.9264 15.7816 33.2194 16.0746 33.5905 16.1605C33.9655 16.2465 34.3522 16.1097 34.5944 15.8129L38.8445 11.5628C39.157 11.2659 39.2469 10.801 39.0633 10.4104C38.8758 10.0159 38.4617 9.78929 38.032 9.84397ZM23.9067 15.0003C23.8754 15.0081 23.8442 15.0199 23.8129 15.0316C23.77 15.0316 23.7309 15.0316 23.6879 15.0316C23.6684 15.0394 23.645 15.0511 23.6254 15.0628C20.3207 15.1918 17.3831 16.8793 15.6565 19.4692C15.344 19.934 15.4729 20.563 15.9378 20.8755C16.4026 21.188 17.0315 21.0591 17.344 20.5942C18.7699 18.4535 21.1801 17.0238 23.9379 17.0004C23.9575 17.0004 23.9809 17.0004 24.0004 17.0004C24.0317 17.0004 24.0629 17.0004 24.0942 17.0004C28.4693 17.0512 32.0006 20.6137 32.0006 25.0006C32.0006 28.1959 30.11 30.9343 27.4068 32.2195C26.9068 32.4617 26.6958 33.0632 26.938 33.5632C27.1802 34.0633 27.7818 34.2742 28.2818 34.032C31.6647 32.4265 34.0007 28.9772 34.0007 25.0006C34.0007 19.6606 29.7467 15.3558 24.4692 15.0941C24.438 15.0824 24.4067 15.0706 24.3755 15.0628C24.2739 15.0238 24.1684 15.0042 24.0629 15.0003C24.0434 15.0003 24.02 15.0003 24.0004 15.0003C23.9692 15.0003 23.9379 15.0003 23.9067 15.0003ZM5.71879 23.0005C5.168 23.0786 4.78127 23.5904 4.8594 24.1412C4.93753 24.692 5.44925 25.0787 6.00006 25.0006H21.0004C21.3598 25.0045 21.6957 24.817 21.8793 24.5045C22.059 24.192 22.059 23.8091 21.8793 23.4966C21.6957 23.1841 21.3598 22.9966 21.0004 23.0005H6.00006C5.96881 23.0005 5.93755 23.0005 5.9063 23.0005C5.87505 23.0005 5.8438 23.0005 5.81255 23.0005C5.7813 23.0005 5.75004 23.0005 5.71879 23.0005ZM37.7195 24.0005C37.1687 24.0787 36.782 24.5904 36.8601 25.1412C36.9382 25.692 37.45 26.0787 38.0008 26.0006H44.0009C44.3603 26.0045 44.6962 25.817 44.8798 25.5045C45.0595 25.192 45.0595 24.8092 44.8798 24.4967C44.6962 24.1842 44.3603 23.9966 44.0009 24.0006H38.0008C37.9695 24.0006 37.9383 24.0006 37.907 24.0006C37.8758 24.0006 37.8445 24.0006 37.8133 24.0006C37.782 24.0006 37.7507 24.0005 37.7195 24.0005ZM10.7189 29.0006C10.1681 29.0788 9.78138 29.5905 9.85951 30.1413C9.93764 30.6921 10.4494 31.0788 11.0002 31.0007H26.0005C26.3599 31.0046 26.6958 30.8171 26.8794 30.5046C27.0591 30.1921 27.0591 29.8093 26.8794 29.4968C26.6958 29.1843 26.3599 28.9968 26.0005 29.0007H11.0002C10.9689 29.0007 10.9377 29.0007 10.9064 29.0007C10.8752 29.0007 10.8439 29.0007 10.8127 29.0007C10.7814 29.0007 10.7502 29.0006 10.7189 29.0006ZM33.6882 33.8758C33.3132 33.9422 33.0124 34.2156 32.9069 34.5789C32.8014 34.9461 32.9108 35.3367 33.1881 35.5946L37.4382 39.8446C37.6804 40.1415 38.0672 40.2782 38.4422 40.1923C38.8133 40.1064 39.1062 39.8134 39.1922 39.4423C39.2781 39.0673 39.1414 38.6806 38.8445 38.4384L34.5944 34.1883C34.4069 33.989 34.1491 33.8797 33.8757 33.8758C33.8444 33.8758 33.8132 33.8758 33.7819 33.8758C33.7507 33.8758 33.7194 33.8758 33.6882 33.8758ZM5.71879 35.0008C5.168 35.0789 4.78127 35.5906 4.8594 36.1414C4.93753 36.6922 5.44925 37.079 6.00006 37.0008H21.0004C21.3598 37.0047 21.6957 36.8172 21.8793 36.5047C22.059 36.1922 22.059 35.8094 21.8793 35.4969C21.6957 35.1844 21.3598 34.9969 21.0004 35.0008H6.00006C5.96881 35.0008 5.93755 35.0008 5.9063 35.0008C5.87505 35.0008 5.8438 35.0008 5.81255 35.0008C5.7813 35.0008 5.75004 35.0008 5.71879 35.0008ZM23.9067 37.9696C23.8637 37.9774 23.8208 37.9891 23.7817 38.0008C23.3168 38.1063 22.9887 38.5243 23.0004 39.0009V45.001C22.9965 45.3604 23.184 45.6963 23.4965 45.8799C23.809 46.0596 24.1919 46.0596 24.5044 45.8799C24.8169 45.6963 25.0044 45.3604 25.0005 45.001V39.0009C25.0122 38.7118 24.895 38.4344 24.688 38.2391C24.477 38.0399 24.1919 37.9423 23.9067 37.9696Z" fill="#141414"/>
</svg>
