<svg width="50" height="50" viewBox="0 0 50 50" fill="none" xmlns="http://www.w3.org/2000/svg">
<path d="M18.0005 7.96307C17.8395 7.96307 17.6794 8.0321 17.5864 8.1701C17.1534 8.81011 7.00024 23.9276 7.00024 31.0397C7.00024 37.1119 11.9354 42.0517 18.0005 42.0517C24.0656 42.0517 29.0007 37.1109 29.0007 31.0397C29.0007 23.9276 18.8476 8.81011 18.4146 8.1701C18.3216 8.0321 18.1615 7.96307 18.0005 7.96307ZM39.501 9.00215L34.5302 9.01582C34.2541 9.01682 34.0311 9.23982 34.0321 9.51583C34.0331 9.79184 34.2571 10.0158 34.5321 10.0158L39.501 10.0022C39.776 10.0022 40.001 10.2232 40.001 10.5022V14.0003H36.5009C36.2249 14.0003 36.0009 14.2243 36.0009 14.5003C36.0009 14.7763 36.2249 15.0003 36.5009 15.0003H40.001V19.0004H36.5009C36.2249 19.0004 36.0009 19.2244 36.0009 19.5004C36.0009 19.7764 36.2249 20.0004 36.5009 20.0004H40.001V24.5005H34.5009C34.2248 24.5005 34.0008 24.7245 34.0008 25.0006C34.0008 25.2766 34.2248 25.5006 34.5009 25.5006H40.001V30.0007H36.5009C36.2249 30.0007 36.0009 30.2247 36.0009 30.5007C36.0009 30.7767 36.2249 31.0007 36.5009 31.0007H40.001V35.0008H36.5009C36.2249 35.0008 36.0009 35.2248 36.0009 35.5008C36.0009 35.7768 36.2249 36.0008 36.5009 36.0008H40.001V39.4989C40.001 39.7779 39.775 39.9989 39.501 39.9989L34.5321 39.9853C34.2571 39.9853 34.0331 40.2103 34.0321 40.4853C34.0311 40.7613 34.2541 40.9853 34.5302 40.9853L39.501 40.999C40.33 40.999 41.001 40.327 41.001 39.497V10.5022C41.001 9.67317 40.33 9.00215 39.501 9.00215ZM18.0005 9.35568C19.1878 11.1731 22.6672 16.6485 25.1901 22.0005H10.8089C13.3316 16.6484 16.8126 11.1731 18.0005 9.35568Z" fill="#141414"/>
</svg>
