<svg width="25" height="25" viewBox="0 0 25 25" fill="none" xmlns="http://www.w3.org/2000/svg">
<g clip-path="url(#clip0_187_20)">
<path d="M1.50009 2.00012C0.67387 2.00012 0 2.67399 0 3.50021C0 4.15064 0.4219 4.69755 1.00006 4.90654C1.01959 4.91436 1.04303 4.91631 1.06256 4.92217C1.2032 4.96514 1.34578 5.0003 1.50009 5.0003C2.32631 5.0003 3.00018 4.32643 3.00018 3.50021C3.00018 2.67399 2.32631 2.00012 1.50009 2.00012ZM5.39094 2.9533C4.93389 2.9533 4.4612 2.96502 3.96899 3.00018L3.50021 3.03143V12.3289L4.23463 11.9382C5.38508 11.3386 6.57461 11.0632 7.96922 11.0632C9.06499 11.0632 10.1803 11.2292 11.36 11.4069C12.6922 11.6062 14.0672 11.8132 15.5947 11.8132C18.7433 11.8132 21.6536 10.8971 24.7671 8.92241L25.0952 8.71927L23.8295 4.89092L23.3608 5.01593C21.0852 5.65268 19.2062 5.96911 17.5948 5.96911C15.2333 5.96911 13.7586 5.3011 12.2038 4.59403C10.4362 3.78929 8.60207 2.9533 5.39094 2.9533ZM9.2818 4.50027C10.2155 4.78544 11.0143 5.14289 11.7976 5.50033C12.1277 5.65073 12.4539 5.79332 12.7976 5.93786L11.907 10.485C11.7741 10.4655 11.6315 10.442 11.5007 10.4225C10.5221 10.2741 9.59236 10.1432 8.65676 10.0944L9.2818 4.50027ZM1.00006 5.95348V22.5013H2.00012V5.95348C1.838 5.98669 1.67197 6.00036 1.50009 6.00036C1.3282 6.00036 1.16218 5.98669 1.00006 5.95348ZM19.9856 6.78166L21.0481 9.73496C19.9484 10.1783 18.8429 10.4889 17.7354 10.6569L17.5167 6.96917C17.544 6.96917 17.5674 6.96917 17.5948 6.96917C18.339 6.96917 19.1281 6.90471 19.9856 6.78166Z" fill="#111111"/>
</g>
<defs>
<clipPath id="clip0_187_20">
<rect width="25" height="25" fill="white"/>
</clipPath>
</defs>
</svg>
