<svg width="151" height="37" viewBox="0 0 151 37" fill="none" xmlns="http://www.w3.org/2000/svg">
<g clip-path="url(#clip0_87_3)">
<path d="M32.5475 36.2661L32.4304 36.3832H22.2799C22.0535 36.3833 21.8314 36.3213 21.6379 36.2039C21.4443 36.0865 21.2867 35.9182 21.1823 35.7174L19.5174 32.5106L19.1967 31.8938C19.0568 31.6268 18.9796 31.3314 18.9711 31.03C18.9625 30.7287 19.0228 30.4294 19.1473 30.1548C19.1535 30.1424 19.1597 30.1365 19.1656 30.1241C19.2115 30.0202 19.2672 29.9211 19.3322 29.828C19.417 29.7147 19.5119 29.6095 19.6159 29.5135C20.4483 28.726 21.3321 27.9947 22.2615 27.3243C22.2615 27.3243 22.3724 27.2504 22.5697 27.1395C22.5759 27.1333 22.5821 27.1333 22.5884 27.1271C22.6067 27.1146 22.6316 27.1025 22.6499 27.0901C22.7359 27.04 22.8223 26.9907 22.9091 26.9421C22.9768 26.9052 23.0507 26.8619 23.1247 26.8251C23.1987 26.7818 23.2726 26.7386 23.3528 26.7016C23.433 26.6584 23.5132 26.6153 23.5995 26.5721L23.8586 26.4425C23.951 26.3993 24.0436 26.3502 24.1361 26.3129L24.3397 26.2206C24.4003 26.1964 24.4599 26.1696 24.5184 26.1404L24.5986 26.1097C24.6725 26.0786 24.7464 26.0478 24.8266 26.0171H24.8329C24.8699 26.0047 24.9009 25.9925 24.9316 25.9801C24.9932 25.9553 25.055 25.9307 25.1166 25.9124C25.2706 25.863 25.4189 25.8136 25.5606 25.7766C25.743 25.7308 25.9347 25.7384 26.113 25.7985C26.2912 25.8587 26.4484 25.9687 26.5658 26.1156L27.3675 27.1025L32.3132 33.1951L32.683 33.6454C33.3136 34.4253 33.2552 35.5553 32.5475 36.2661Z" fill="#DFC49C"/>
<path d="M21.6611 26.0706C21.5667 26.0706 21.4736 26.0489 21.3892 26.0068C19.8113 25.2294 18.9644 22.1158 18.8732 21.7632C18.8355 21.6061 18.861 21.4405 18.9442 21.302C19.0274 21.1635 19.1617 21.0632 19.3181 21.0227C19.4744 20.9821 19.6404 21.0045 19.7804 21.085C19.9204 21.1655 20.0232 21.2977 20.0667 21.4532C20.3586 22.5739 21.1232 24.5011 21.9341 24.9005C22.059 24.962 22.1594 25.0641 22.219 25.1899C22.2786 25.3158 22.2938 25.4582 22.2621 25.5938C22.2305 25.7294 22.1539 25.8504 22.0447 25.9369C21.9356 26.0234 21.8004 26.0705 21.6611 26.0703L21.6611 26.0706Z" fill="black"/>
<path d="M25.8999 17.8032L25.505 21.867C25.4991 21.9101 25.4929 21.9472 25.4867 21.9903L25.1166 25.9124C25.055 25.937 24.9933 25.9553 24.9317 25.9802C24.9009 25.9926 24.8699 26.0047 24.8329 26.0171H24.8267C24.7465 26.0479 24.6725 26.0787 24.5986 26.1097L24.5184 26.1405C24.4569 26.1712 24.4013 26.1958 24.3398 26.2207L24.1362 26.313C24.0436 26.3502 23.951 26.3993 23.8587 26.4425L23.5995 26.5721C23.5132 26.6153 23.433 26.6585 23.3528 26.7017C23.2727 26.7387 23.1988 26.7819 23.1248 26.825C23.0508 26.862 22.9768 26.9052 22.9091 26.9422C22.8103 26.9975 22.7239 27.047 22.65 27.0901C22.6316 27.1025 22.6068 27.1147 22.5884 27.1271C22.5822 27.1333 22.576 27.1333 22.5698 27.1395C22.3725 27.2505 22.2615 27.3244 22.2615 27.3244C21.3322 27.9947 20.4484 28.7261 19.6159 29.5135C19.512 29.6095 19.417 29.7148 19.3323 29.828C19.2673 29.9211 19.2115 30.0203 19.1657 30.1241C19.1598 30.1365 19.1535 30.1425 19.1473 30.1549L18.9994 30.0872C18.8574 29.902 18.7465 29.754 18.6725 29.637C18.553 29.491 18.4065 29.3696 18.2409 29.2792C17.1307 28.5826 14.3374 27.454 13.3816 26.3872H13.3754L11.5128 23.5257C10.7668 22.348 10.039 21.2072 9.81097 20.8496C9.70249 20.6574 9.64364 20.4412 9.63973 20.2205C9.63583 19.9999 9.687 19.7817 9.78861 19.5858C9.89022 19.3899 10.0391 19.2224 10.2217 19.0985C10.4043 18.9746 10.6149 18.8981 10.8345 18.8761C10.8345 18.8761 9.69383 16.2675 11.4389 16.0826C11.6261 16.0721 11.8138 16.0927 11.9939 16.1444C12.0741 16.169 12.1604 16.1935 12.2468 16.2246C12.2468 16.2246 11.7966 14.4608 13.0053 14.1585C13.2893 14.0828 13.587 14.0744 13.8748 14.134C14.1293 13.6703 14.4755 13.2632 14.8924 12.9376C15.0255 12.8295 15.1803 12.7514 15.3464 12.7089C15.5125 12.6663 15.6858 12.6601 15.8545 12.6909C16.0784 12.7442 16.2956 12.8228 16.5018 12.9252C16.8796 13.1168 17.2371 13.3461 17.5688 13.6097C17.566 13.5137 17.5851 13.4183 17.6246 13.3307C17.6642 13.2431 17.7231 13.1657 17.7969 13.1042C18.3225 12.8208 18.882 12.6053 19.4618 12.4628L21.5894 12.0187H21.6015L22.4402 11.8398L22.4713 11.8339C22.641 11.8057 22.8151 11.8215 22.977 11.8798C23.1389 11.9381 23.2832 12.0368 23.396 12.1667L24.5492 14.467L25.5793 16.5142C25.7279 16.6901 25.8341 16.8978 25.8897 17.1213C25.9453 17.3448 25.9488 17.578 25.8999 17.8031V17.8032Z" fill="#DFC49C"/>
<path d="M30.9133 36.2663L30.7962 36.3833H22.2798C22.0534 36.3835 21.8313 36.3215 21.6378 36.204C21.4442 36.0866 21.2867 35.9183 21.1822 35.7175L19.5173 32.5107L19.1966 31.8939C19.0567 31.6269 18.9796 31.3315 18.971 31.0302C18.9624 30.7288 19.0227 30.4295 19.1472 30.155L18.9993 30.0873C18.8573 29.9021 18.7464 29.7541 18.6724 29.6371C18.5529 29.4911 18.4064 29.3697 18.2408 29.2793C18.9928 28.5765 19.79 27.9235 20.6272 27.3246C20.6272 27.3246 20.8799 27.1641 21.2748 26.9423C21.4721 26.8311 21.7064 26.7018 21.9653 26.5723L22.2244 26.4426L22.5019 26.3131L22.7054 26.2208L22.9643 26.1098C23.1371 26.0356 23.3099 25.974 23.4823 25.9126C23.6302 25.8631 23.7784 25.8137 23.9264 25.7767C24.0844 25.7363 24.2502 25.7372 24.4079 25.7793C24.5655 25.8215 24.7097 25.9034 24.8266 26.0172H24.8328C24.8704 26.0452 24.9033 26.0785 24.9316 26.1158L25.7333 27.1026L30.6789 33.1953L31.0487 33.6455C31.6825 34.4246 31.6237 35.5566 30.9132 36.2663H30.9133Z" fill="#FFE0B2"/>
<path d="M24.2658 17.8035L23.8708 21.8673C23.8649 21.9104 23.8587 21.9475 23.8525 21.9906L23.4825 25.9127C23.31 25.9743 23.1372 26.0358 22.9644 26.11L22.7055 26.221L22.502 26.3133C22.4095 26.3506 22.3168 26.3996 22.2245 26.4428L21.9654 26.5724C21.7065 26.702 21.4723 26.8313 21.2749 26.9425C20.88 27.1643 20.6274 27.3248 20.6274 27.3248C19.7902 27.9237 18.993 28.5767 18.2409 29.2796C17.1307 28.5829 14.3374 27.4543 13.3816 26.3875H13.3754L11.5128 23.526C10.7668 22.3483 10.039 21.2076 9.81097 20.8499C9.70249 20.6577 9.64364 20.4415 9.63973 20.2209C9.63583 20.0002 9.687 19.782 9.78861 19.5861C9.89022 19.3902 10.0391 19.2227 10.2217 19.0988C10.4043 18.9749 10.6149 18.8985 10.8345 18.8764C10.8345 18.8764 9.69383 16.2678 11.4389 16.0829C11.6261 16.0724 11.8138 16.093 11.9939 16.1447C12.0741 16.1693 12.1604 16.1939 12.2468 16.2249C12.2468 16.2249 11.7966 14.4611 13.0053 14.1588C13.2893 14.0832 13.587 14.0748 13.8748 14.1343C14.1293 13.6706 14.4755 13.2635 14.8924 12.9379C15.2607 13.1277 15.6096 13.3528 15.9343 13.6101C15.9317 13.514 15.9509 13.4186 15.9904 13.331C16.03 13.2435 16.0889 13.166 16.1627 13.1045C16.2716 13.0374 16.3849 12.9776 16.5018 12.9255C16.93 12.7346 17.3735 12.58 17.8276 12.4631L20.806 11.8401L20.8371 11.8342C20.9695 11.8128 21.1048 11.8181 21.2351 11.8498C21.3654 11.8816 21.488 11.9391 21.5956 12.0191H21.6015C21.6608 12.0617 21.7147 12.1114 21.7619 12.167L22.915 14.4674L23.9451 16.5145C24.0937 16.6904 24.2 16.8981 24.2555 17.1216C24.3111 17.3451 24.3146 17.5784 24.2658 17.8034V17.8035Z" fill="#FFE0B2"/>
<path d="M17.7404 20.8422C17.5849 20.8425 17.435 20.7837 17.3212 20.6776C15.5959 19.0798 13.1233 17.09 11.8335 16.7428C11.7267 16.7083 11.6145 16.6934 11.5024 16.6988C11.2449 16.7256 11.1894 16.821 11.1654 16.8617C10.9567 17.2188 11.182 18.1275 11.3999 18.6293C11.5352 18.9412 11.3929 19.304 11.0813 19.4401C10.9316 19.5055 10.7622 19.509 10.61 19.4496C10.4579 19.3903 10.3355 19.273 10.2697 19.1236C10.1372 18.821 9.50586 17.2603 10.0992 16.2418C10.232 16.0184 10.4179 15.8313 10.6405 15.697C10.863 15.5628 11.1153 15.4856 11.3748 15.4723C11.6371 15.4502 11.9016 15.4773 12.154 15.5521C14.048 16.062 17.2292 18.9119 18.1596 19.7735C18.2504 19.8578 18.3137 19.9675 18.3413 20.0884C18.3689 20.2092 18.3594 20.3355 18.3141 20.4509C18.2688 20.5663 18.1899 20.6653 18.0875 20.7352C17.9851 20.805 17.864 20.8424 17.7401 20.8425L17.7404 20.8422Z" fill="#BEA182"/>
<path d="M18.5427 18.6112C18.3949 18.6113 18.252 18.5581 18.1404 18.4612C17.8708 18.2292 17.1341 17.5743 16.1124 16.5095C15.149 15.5062 14.4201 14.8601 13.7641 14.7407C13.5616 14.6972 13.3516 14.7031 13.1518 14.7576C13.0992 14.7677 13.0494 14.7889 13.0058 14.8199C12.9622 14.8509 12.9257 14.8908 12.8989 14.9371C12.7633 15.3006 12.7442 15.6971 12.8441 16.0719C12.8664 16.1511 12.8726 16.2339 12.8624 16.3155C12.8522 16.3971 12.8258 16.4759 12.7847 16.5471C12.7436 16.6184 12.6887 16.6807 12.6232 16.7304C12.5577 16.7801 12.4829 16.8162 12.4032 16.8366C12.3235 16.8569 12.2405 16.8611 12.1592 16.8489C12.0778 16.8368 11.9998 16.8084 11.9295 16.7656C11.8593 16.7228 11.7984 16.6664 11.7503 16.5997C11.7022 16.5329 11.6679 16.4573 11.6495 16.3771C11.4669 15.6858 11.5343 14.9522 11.8397 14.3057C11.9503 14.1195 12.0972 13.9576 12.2718 13.8295C12.4464 13.7015 12.645 13.61 12.8557 13.5604C13.2317 13.4613 13.6256 13.4515 14.006 13.5316C14.9722 13.7075 15.8389 14.4443 17.0022 15.6559C17.9874 16.6828 18.6894 17.3069 18.9455 17.5277C19.0407 17.61 19.1086 17.7194 19.1399 17.8412C19.1713 17.9631 19.1646 18.0917 19.1208 18.2097C19.0769 18.3276 18.998 18.4293 18.8946 18.5011C18.7913 18.5729 18.6685 18.6114 18.5427 18.6114V18.6112ZM14.4786 23.633C14.3877 23.633 14.3005 23.6294 14.2206 23.6223C13.8762 23.5834 13.5529 23.4365 13.2969 23.2028L12.5793 22.4982C12.5009 22.4226 12.4439 22.3276 12.4142 22.2229C12.3844 22.1181 12.3829 22.0074 12.4098 21.9019C12.4368 21.7964 12.4912 21.6999 12.5675 21.6222C12.6438 21.5445 12.7393 21.4885 12.8444 21.4597C12.9494 21.4309 13.0601 21.4305 13.1654 21.4583C13.2706 21.4862 13.3666 21.5414 13.4437 21.6183L14.1466 22.3091C14.2038 22.3569 14.2738 22.3869 14.3479 22.3955C14.6293 22.4155 14.9122 22.3788 15.1795 22.2876C15.2278 22.2519 15.2614 22.1997 15.2737 22.1409C15.2766 22.1154 15.2749 22.0898 15.2684 22.0649C15.2344 21.9082 15.2628 21.7445 15.3476 21.6084C15.4323 21.4723 15.5667 21.3745 15.7223 21.3359C15.8779 21.2972 16.0425 21.3207 16.1811 21.4013C16.3197 21.4819 16.4214 21.6133 16.4647 21.7677C16.516 21.9768 16.5206 22.1948 16.4775 22.4059C16.3919 22.7899 16.1581 23.1246 15.8271 23.3372C15.4084 23.5441 14.9455 23.6457 14.4786 23.633Z" fill="#BEA182"/>
<path d="M13.8741 14.7482C13.7678 14.748 13.6634 14.7203 13.5709 14.6678C13.4785 14.6153 13.4012 14.5398 13.3465 14.4486C13.2918 14.3575 13.2616 14.2537 13.2589 14.1474C13.2561 14.0412 13.2808 13.936 13.3307 13.8421C13.4448 13.6278 14.4918 11.7576 15.9891 12.0891C16.7175 12.2883 17.3926 12.6468 17.9656 13.1386C18.2336 13.3492 18.2801 13.7368 18.0698 14.0047C17.8595 14.2726 17.4717 14.3192 17.2038 14.1088C16.7734 13.7346 16.2681 13.4565 15.7218 13.293C15.2593 13.1954 14.6324 14.0258 14.4181 14.4232C14.3652 14.5215 14.2867 14.6036 14.191 14.6608C14.0952 14.718 13.9857 14.7482 13.8741 14.7482Z" fill="#BEA182"/>
<path d="M19.1468 30.7719C19.0583 30.7719 18.9708 30.7527 18.8904 30.7157L18.7422 30.648C18.6509 30.6062 18.5712 30.5427 18.5099 30.4631C18.3535 30.2593 18.2318 30.095 18.1505 29.966C17.609 29.6084 17.0409 29.2929 16.4511 29.0223C15.1639 28.3708 13.7087 27.6346 12.972 26.8529C12.9279 26.8157 12.8897 26.7722 12.8585 26.7237L10.996 23.8624C10.2462 22.6793 9.51907 21.5392 9.29122 21.1815C9.12699 20.8865 9.03846 20.5554 9.03354 20.2178C9.02862 19.8802 9.10747 19.5466 9.26304 19.247C9.40781 18.9606 9.62649 18.7182 9.89643 18.5447C10.1664 18.3713 10.4778 18.2731 10.7984 18.2605C11.0357 18.2413 11.2745 18.2601 11.5058 18.3163C12.9324 18.6628 14.2468 19.368 15.3243 20.3652C15.5852 20.5786 15.8354 20.8047 16.074 21.0427C16.1673 21.1398 16.2476 21.2485 16.3131 21.3661C16.675 21.4167 17.289 21.4424 17.4409 21.068C17.4615 21.0158 17.53 20.8428 17.405 20.7474C17.2917 20.6619 17.2105 20.5408 17.1743 20.4035C17.1381 20.2663 17.1491 20.1208 17.2054 19.9906C17.2604 19.8628 17.3576 19.7578 17.4807 19.6932C17.6039 19.6286 17.7455 19.6083 17.8818 19.6357C17.888 19.6377 18.7106 19.7803 18.8114 19.4144C18.8935 19.1234 18.5262 18.7962 18.5197 18.79C18.5169 18.788 18.38 18.6766 18.1311 18.4535C18.0687 18.3975 18.0184 18.3294 17.9832 18.2534C17.948 18.1774 17.9286 18.095 17.9261 18.0112C17.9239 17.9274 17.9387 17.8441 17.9697 17.7662C18.0007 17.6884 18.0473 17.6177 18.1065 17.5584C18.1734 17.4915 18.2543 17.4404 18.3434 17.4087C18.4326 17.3771 18.5276 17.3657 18.6217 17.3755C18.8342 17.4003 19.6791 17.4048 19.8719 16.9969C19.9376 16.8592 19.7268 16.628 19.7245 16.6257L19.2237 16.1029C18.9639 16.1286 18.7016 16.0997 18.4536 16.018C18.2056 15.9363 17.9775 15.8036 17.7838 15.6284C17.5063 15.3638 17.2886 15.0428 17.1453 14.6871C17.0021 14.3314 16.9366 13.9491 16.9534 13.566C16.953 13.3731 16.9993 13.183 17.0885 13.012C17.1776 12.8409 17.3068 12.694 17.4652 12.5839C18.0464 12.2623 18.6682 12.0203 19.3138 11.8641L22.3139 11.2363L22.334 11.2327C22.3471 11.2296 22.3603 11.2269 22.3736 11.2247C22.6473 11.1808 22.9277 11.2073 23.1884 11.3017C23.449 11.3962 23.6813 11.5554 23.8635 11.7645C23.8963 11.803 23.9244 11.8452 23.9473 11.8903L26.1 16.1774C26.2888 16.417 26.4233 16.6948 26.4942 16.9916C26.565 17.2883 26.5705 17.597 26.5102 17.896L26.1186 21.9268C26.1175 21.9383 26.1071 22.0103 26.1053 22.0214L25.7305 25.9702C25.7193 26.0883 25.6744 26.2006 25.6011 26.2938C25.5278 26.3871 25.4292 26.4572 25.3171 26.4959C24.3668 26.8549 23.4542 27.3068 22.5926 27.8449C21.6911 28.4934 20.8355 29.2032 20.0317 29.9694C19.8942 30.0938 19.7838 30.245 19.707 30.4137C19.6576 30.5207 19.5785 30.6112 19.4792 30.6747C19.3799 30.7382 19.2646 30.7719 19.1467 30.7719H19.1468ZM13.849 25.9852C14.4204 26.6125 15.8544 27.3379 17.0081 27.9219C17.7594 28.2308 18.4601 28.6507 19.0869 29.1674C19.1238 29.1296 19.1619 29.0929 19.2009 29.0573C20.0582 28.2461 20.9694 27.4937 21.9283 26.8055C22.7592 26.2869 23.6325 25.8397 24.5389 25.4686L25.2861 17.7438C25.2883 17.7201 25.2919 17.6966 25.2969 17.6733C25.3261 17.5404 25.3243 17.4026 25.2915 17.2706C25.2586 17.1386 25.1958 17.0159 25.1077 16.9122C25.0766 16.8753 25.0499 16.8349 25.0279 16.7917L22.8876 12.5289C22.8095 12.4665 22.7116 12.4344 22.6117 12.4385C22.5797 12.4467 22.5471 12.4522 22.5141 12.455L19.5879 13.0669C19.1053 13.1872 18.6376 13.361 18.1934 13.5849C18.1886 13.609 18.1853 13.6335 18.1835 13.658C18.1789 13.8526 18.2139 14.046 18.2864 14.2267C18.3588 14.4073 18.4672 14.5713 18.605 14.7088C18.6818 14.7808 18.7752 14.8329 18.8769 14.8603C18.9786 14.8878 19.0855 14.8898 19.1882 14.8662C19.2554 14.8518 19.3237 14.8414 19.3923 14.8349C19.504 14.8221 19.6171 14.8402 19.7193 14.8871C19.8214 14.934 19.9088 15.008 19.9719 15.1011L20.6039 15.7614C20.8406 15.9812 21.0042 16.2683 21.0726 16.584C21.141 16.8997 21.1109 17.2288 20.9864 17.5268C20.8701 17.7571 20.7069 17.9605 20.5072 18.1239C20.3075 18.2872 20.0758 18.4069 19.827 18.4752C19.9383 18.6652 20.0108 18.8753 20.0404 19.0934C20.07 19.3115 20.0561 19.5334 19.9995 19.7461C19.9154 20.0361 19.749 20.2955 19.5205 20.4928C19.292 20.6902 19.0112 20.817 18.712 20.858C18.7162 21.0873 18.6731 21.3149 18.5856 21.5268C18.089 22.7524 16.622 22.7347 15.7807 22.5224C15.7194 22.5135 15.6598 22.4953 15.604 22.4685C15.5175 22.4278 15.4416 22.3676 15.3822 22.2927C15.3227 22.2179 15.2814 22.1303 15.2613 22.0368C15.2514 21.9868 15.2273 21.9406 15.1919 21.9039C15.0025 21.7147 14.7809 21.5146 14.5432 21.3196C13.6174 20.4457 12.4811 19.8263 11.245 19.5216C11.1337 19.4941 11.019 19.483 10.9045 19.4887C10.7926 19.4848 10.6818 19.513 10.5853 19.5699C10.4888 19.6269 10.4106 19.7103 10.36 19.8102C10.3029 19.9191 10.2709 20.0392 10.2661 20.162C10.2613 20.2848 10.284 20.4072 10.3323 20.5201C10.559 20.8755 11.2868 22.0171 12.0337 23.1957L13.849 25.9852Z" fill="#BEA182"/>
<path d="M27.3675 27.1025C26.8865 27.3613 20.9048 30.6297 19.5975 32.4673L19.5174 32.5106L19.1967 31.8938C18.7769 31.0977 18.9494 30.1184 19.6159 29.5135C20.4483 28.726 21.3322 27.9947 22.2615 27.3243C23.1639 26.76 24.1204 26.287 25.1166 25.9124C25.2707 25.863 25.4189 25.8136 25.5606 25.7766C25.743 25.7308 25.9347 25.7384 26.113 25.7985C26.2912 25.8587 26.4484 25.9687 26.5658 26.1156L27.3675 27.1025Z" fill="#E91E63"/>
<path d="M16.9087 22.6195L13.8133 25.9248L13.3816 26.3875H13.3754L12.9559 26.8312L9.04007 31.0125C9.00192 31.0541 8.95298 31.0842 8.89871 31.0996C8.84443 31.115 8.78694 31.1151 8.73265 31.0997C8.67827 31.0844 8.62921 31.0543 8.59098 31.0127C8.55274 30.9712 8.52683 30.9198 8.51614 30.8643L8.13364 28.9589C8.12227 28.9031 8.09571 28.8515 8.0569 28.8098C8.01808 28.7681 7.96852 28.738 7.91366 28.7227C7.85881 28.7074 7.80079 28.7076 7.74602 28.7231C7.69124 28.7387 7.64182 28.7691 7.60321 28.8109L2.18274 34.6876C2.13183 34.7426 2.06277 34.7773 1.98827 34.7854C1.91378 34.7935 1.83886 34.7744 1.77733 34.7316C1.7158 34.6888 1.67178 34.6253 1.65338 34.5526C1.63498 34.4799 1.64343 34.4031 1.67717 34.3361L8.27564 21.6513C8.304 21.5965 8.34827 21.5516 8.40263 21.5225C8.45698 21.4934 8.51888 21.4814 8.58017 21.4881C8.64153 21.4948 8.69945 21.5198 8.74631 21.5599C8.79317 21.6001 8.82678 21.6535 8.84271 21.7131L9.71835 24.7592C9.73243 24.8119 9.76033 24.8598 9.79917 24.898C9.838 24.9362 9.88635 24.9633 9.9392 24.9765C9.99205 24.9897 10.0475 24.9886 10.0997 24.9732C10.152 24.9577 10.1991 24.9286 10.2363 24.8888L11.0751 23.9886L11.5129 23.526L11.9631 23.0881L12.5738 22.49L12.5799 22.4962L13.2953 23.2052C13.5529 23.437 13.8759 23.5835 14.22 23.6247C14.3002 23.631 14.3865 23.631 14.4791 23.631C14.9469 23.6463 15.4111 23.5445 15.8296 23.3348C16.0952 23.167 16.2971 22.9152 16.4032 22.6195C16.5712 22.6382 16.7408 22.6382 16.9087 22.6195ZM34.9585 3.05904L28.1813 14.6769C28.1497 14.7325 28.1016 14.7769 28.0436 14.804C27.9855 14.831 27.9206 14.8394 27.8576 14.8279C27.7946 14.8165 27.7367 14.7857 27.6919 14.7398C27.6472 14.694 27.6179 14.6354 27.608 14.5721L27.238 12.3336C27.2289 12.2765 27.2039 12.2231 27.1659 12.1796C27.1278 12.136 27.0783 12.1041 27.023 12.0873C26.9676 12.0706 26.9087 12.0698 26.8529 12.085C26.7972 12.1002 26.7468 12.1307 26.7076 12.1732L24.9994 13.9864L24.5491 14.4674L23.396 12.167C23.2831 12.0372 23.1389 11.9384 22.977 11.8801C22.8151 11.8219 22.641 11.8061 22.4712 11.8342L23.0138 11.2544L27.9594 5.98803C27.9976 5.9464 28.0466 5.9162 28.1009 5.90079C28.1552 5.88539 28.2128 5.88539 28.2671 5.9008C28.3215 5.91614 28.3705 5.94627 28.4087 5.98784C28.447 6.02942 28.4729 6.0808 28.4836 6.13624L28.8659 8.04166C28.8773 8.09747 28.9038 8.14904 28.9427 8.19071C28.9815 8.23238 29.031 8.26253 29.0859 8.27783C29.1407 8.29312 29.1988 8.29298 29.2535 8.27741C29.3083 8.26184 29.3577 8.23145 29.3963 8.18959L34.4653 2.69519C34.5717 2.57942 34.7485 2.56251 34.8749 2.65595C35.0014 2.74938 35.0375 2.92297 34.9585 3.05904Z" fill="#FFEB3A"/>
<path d="M17.8861 20.9782C17.7278 20.9782 17.5756 20.9173 17.461 20.8082L17.3218 20.6784C15.5959 19.0793 13.1234 17.0897 11.8336 16.7425C11.7266 16.7083 11.6143 16.6934 11.5022 16.6987C11.2371 16.7261 11.1826 16.821 11.1589 16.8616C10.9616 17.2037 11.1854 18.0676 11.3988 18.5434C11.5389 18.854 11.4008 19.2193 11.0906 19.3593C11.0168 19.3927 10.9371 19.4112 10.8562 19.4138C10.7752 19.4163 10.6945 19.4029 10.6188 19.3743C10.543 19.3456 10.4736 19.3024 10.4146 19.2469C10.3555 19.1914 10.308 19.1249 10.2747 19.051C10.1424 18.7591 9.51261 17.2517 10.0893 16.2479C10.2224 16.0221 10.4097 15.8329 10.6341 15.6975C10.8585 15.5621 11.1131 15.4845 11.3749 15.4719C11.6374 15.4496 11.9016 15.4767 12.1543 15.5518C14.0484 16.0616 17.2295 18.9116 18.1596 19.7728L18.3121 19.9154C18.4012 20.0004 18.4628 20.1102 18.489 20.2305C18.5151 20.3509 18.5046 20.4763 18.4588 20.5907C18.4131 20.705 18.3342 20.8031 18.2322 20.8722C18.1302 20.9413 18.0099 20.9782 17.8867 20.9782H17.8861Z" fill="black"/>
<path d="M18.9096 18.9297C18.7682 18.9297 18.6311 18.881 18.5215 18.7917C17.6769 18.0774 16.8734 17.316 16.1147 16.5111C14.635 14.9675 13.9419 14.5591 13.154 14.7553C13.0705 14.7679 12.9907 14.7989 12.9205 14.8459C12.8503 14.893 12.7914 14.9549 12.7479 15.0274C12.7044 15.0999 12.6775 15.181 12.6691 15.2651C12.6606 15.3492 12.6709 15.4341 12.699 15.5138C12.7348 15.671 12.7076 15.8361 12.6232 15.9735C12.5388 16.1109 12.4039 16.2098 12.2474 16.249C12.091 16.2881 11.9254 16.2645 11.7862 16.183C11.647 16.1016 11.5452 15.9689 11.5027 15.8133C11.4342 15.5094 11.4328 15.1942 11.4987 14.8896C11.5707 14.5599 11.7374 14.2583 11.9783 14.0219C12.2191 13.7854 12.5238 13.6244 12.8548 13.5586C14.4503 13.1612 15.6777 14.2728 17.0051 15.6575C17.7294 16.4246 18.4953 17.1512 19.2995 17.8342C19.3983 17.9146 19.4698 18.0236 19.5041 18.1463C19.5384 18.269 19.5339 18.3993 19.4913 18.5193C19.4486 18.6393 19.3698 18.7432 19.2657 18.8166C19.1616 18.89 19.0373 18.9295 18.9099 18.9294L18.9096 18.9297ZM11.5134 24.1427C11.4093 24.1429 11.307 24.1167 11.2158 24.0666C11.1246 24.0165 11.0476 23.9441 10.992 23.8562C10.4576 23.0133 9.92214 22.1712 9.38551 21.3298L9.29092 21.1813C9.12687 20.8863 9.03847 20.5553 9.0336 20.2178C9.02873 19.8803 9.10755 19.5469 9.26302 19.2473C9.40778 18.9609 9.62649 18.7184 9.8965 18.5449C10.1665 18.3714 10.478 18.2733 10.7987 18.2607C11.0357 18.2407 11.2749 18.2593 11.5061 18.316C12.9328 18.6627 14.2473 19.3679 15.3251 20.3649C15.5856 20.5786 15.8357 20.8047 16.0746 21.0424C16.2494 21.2213 16.3775 21.4405 16.4474 21.6807C16.5173 21.9209 16.527 22.1746 16.4754 22.4193C16.3878 22.798 16.1553 23.1274 15.8279 23.3368C15.3284 23.577 14.7725 23.6756 14.2208 23.6219C13.8765 23.5833 13.5532 23.4365 13.2975 23.2028L12.5799 22.4982C12.5015 22.4226 12.4446 22.3276 12.4148 22.2228C12.3851 22.1181 12.3836 22.0073 12.4105 21.9018C12.4374 21.7963 12.4918 21.6998 12.5681 21.6222C12.6444 21.5445 12.7399 21.4884 12.8449 21.4596C12.9499 21.4308 13.0606 21.4303 13.1659 21.4581C13.2711 21.486 13.3671 21.5412 13.444 21.6182L14.1472 22.309C14.2043 22.3567 14.2741 22.3866 14.3481 22.3951C14.6297 22.4154 14.9126 22.3788 15.1798 22.2875C15.2282 22.2519 15.2617 22.1996 15.274 22.1408C15.2801 22.0972 15.2758 22.0528 15.2613 22.0113C15.2468 21.9697 15.2226 21.9322 15.1908 21.9019C15.003 21.715 14.7817 21.5149 14.5443 21.319C13.618 20.4456 12.4816 19.8264 11.2455 19.5214C11.1342 19.4939 11.0196 19.4829 10.9051 19.4887C10.7931 19.4848 10.6824 19.5129 10.5859 19.5699C10.4894 19.6269 10.4112 19.7102 10.3605 19.8102C10.3036 19.9191 10.2717 20.0392 10.2669 20.1619C10.2621 20.2846 10.2846 20.4069 10.3328 20.5198L10.4261 20.6664C10.7224 21.1316 11.3712 22.1489 12.0342 23.1954C12.0932 23.2887 12.1262 23.3961 12.1296 23.5064C12.133 23.6167 12.1068 23.7259 12.0537 23.8227C12.0005 23.9193 11.9224 23.9999 11.8274 24.0561C11.7325 24.1123 11.6243 24.142 11.514 24.1422L11.5134 24.1427ZM18.9997 30.7039C18.905 30.7041 18.8116 30.6824 18.7266 30.6406C18.6417 30.5988 18.5676 30.538 18.5099 30.4629C18.354 30.2594 18.2324 30.0959 18.1511 29.9669C17.6096 29.6087 17.0411 29.2928 16.4509 29.0221C15.1509 28.3641 13.68 27.6199 12.9505 26.8299C12.8623 26.7448 12.8013 26.6354 12.7756 26.5156C12.7499 26.3957 12.7604 26.2709 12.806 26.1571C12.8517 26.0434 12.9303 25.9458 13.0317 25.877C13.1331 25.8082 13.2528 25.7711 13.3754 25.7707C13.4629 25.7707 13.5494 25.7889 13.6295 25.8242C13.7096 25.8595 13.7815 25.911 13.8405 25.9756C14.4057 26.6045 15.8485 27.3351 17.0079 27.9214C18.3053 28.5783 18.9401 28.9111 19.1919 29.305C19.2603 29.4131 19.361 29.5457 19.4886 29.7117C19.5587 29.803 19.6018 29.9121 19.6131 30.0267C19.6244 30.1412 19.6034 30.2566 19.5526 30.3598C19.5017 30.4631 19.423 30.55 19.3252 30.6108C19.2275 30.6716 19.1148 30.7039 18.9997 30.7039Z" fill="black"/>
<path d="M16.8667 22.6139C16.6457 22.6142 16.4252 22.5921 16.2087 22.5478C16.0497 22.5119 15.9113 22.4145 15.8239 22.277C15.7365 22.1394 15.707 21.9728 15.7421 21.8136C15.7771 21.6544 15.8738 21.5156 16.0109 21.4275C16.148 21.3394 16.3144 21.3091 16.4738 21.3433C16.4819 21.3455 17.3362 21.4932 17.4084 21.166C17.4439 21.0357 17.4556 20.9 17.4428 20.7655C17.3129 20.694 17.213 20.5782 17.1615 20.4391C17.11 20.3 17.1104 20.1471 17.1625 20.0083C17.2147 19.8694 17.3151 19.7541 17.4454 19.6832C17.5757 19.6124 17.7271 19.5909 17.8719 19.6227C18.1234 19.686 18.3402 19.8454 18.4754 20.0668C18.5877 20.2741 18.6577 20.5016 18.6812 20.7362C18.7047 20.9707 18.6813 21.2076 18.6124 21.433C18.5336 21.7609 18.3481 22.0533 18.0851 22.2644C17.8222 22.4754 17.4966 22.5932 17.1594 22.5992C17.0621 22.609 16.9644 22.6142 16.8667 22.6139H16.8667Z" fill="black"/>
<path d="M18.2654 20.8916C18.0444 20.8919 17.8239 20.8696 17.6074 20.8253C17.4492 20.7887 17.3119 20.6911 17.2252 20.5539C17.1386 20.4166 17.1095 20.2507 17.1445 20.0921C17.2173 19.7622 17.5419 19.5519 17.8728 19.621C17.8843 19.6227 18.7352 19.7698 18.8074 19.4435C18.843 19.3133 18.8546 19.1776 18.8416 19.0431C18.7117 18.9717 18.612 18.8558 18.5605 18.7168C18.5091 18.5778 18.5095 18.4249 18.5616 18.2861C18.6136 18.1473 18.7139 18.0318 18.8442 17.961C18.9744 17.8902 19.1259 17.8687 19.2707 17.9005C19.5222 17.9637 19.739 18.123 19.8745 18.3442C19.9868 18.5515 20.0566 18.7791 20.0801 19.0137C20.1035 19.2483 20.0801 19.4853 20.0111 19.7107C19.9324 20.0386 19.7469 20.331 19.484 20.5421C19.221 20.7531 18.8953 20.8708 18.5582 20.8767C18.4611 20.8868 18.3634 20.8916 18.2654 20.8916ZM14.0794 14.4365C13.9744 14.4363 13.8711 14.4093 13.7794 14.3581C13.6878 14.3068 13.6107 14.2329 13.5556 14.1435C13.5006 14.0541 13.4692 13.9521 13.4646 13.8471C13.4601 13.7422 13.4824 13.6378 13.5294 13.5439C13.866 12.8755 14.76 11.8146 15.9891 12.0887C16.7175 12.288 17.3926 12.6465 17.9656 13.1383C18.2336 13.3486 18.2801 13.7365 18.0698 14.0043C17.8595 14.2722 17.4717 14.3188 17.2038 14.1085C16.7734 13.7342 16.2682 13.456 15.7218 13.2924C15.1337 13.1659 14.6344 14.0916 14.6295 14.1009C14.5775 14.202 14.4987 14.2868 14.4016 14.346C14.3046 14.4052 14.1931 14.4365 14.0794 14.4365Z" fill="black"/>
<path d="M19.2868 18.5777C19.0658 18.5779 18.8455 18.5557 18.629 18.5114C18.522 18.4893 18.4227 18.4392 18.3414 18.3661C18.2601 18.293 18.1997 18.1997 18.1664 18.0955C18.1331 17.9915 18.1281 17.8804 18.1518 17.7737C18.1755 17.6671 18.2272 17.5686 18.3014 17.4885C18.3757 17.4083 18.4699 17.3493 18.5744 17.3175C18.679 17.2857 18.7901 17.2822 18.8964 17.3074C18.9018 17.3083 19.7554 17.4562 19.8285 17.1296C19.8643 16.9985 19.8759 16.862 19.8626 16.7268C19.8082 16.6965 19.7586 16.6582 19.7155 16.6133L19.0189 15.8841C18.9414 15.8065 18.886 15.7096 18.8585 15.6033C18.831 15.4971 18.8324 15.3855 18.8625 15.28C18.8925 15.1745 18.9501 15.0788 19.0294 15.003C19.1087 14.9272 19.2068 14.8739 19.3135 14.8486C19.4203 14.8233 19.5319 14.827 19.6368 14.8593C19.7416 14.8916 19.836 14.9512 19.9101 15.0321L20.5339 15.6843C20.8325 15.8565 21.2755 16.3033 21.0327 17.3969C20.9539 17.7248 20.7685 18.0172 20.5055 18.2282C20.2425 18.4392 19.9169 18.5569 19.5797 18.5627C19.4824 18.5729 19.3847 18.5777 19.2868 18.5777ZM32.4303 36.9997H22.2768C21.9378 37.0004 21.6052 36.9077 21.3155 36.7316C21.0259 36.5556 20.7904 36.303 20.635 36.0018L18.6493 32.1782C18.0998 31.1335 18.327 29.8494 19.2015 29.0567C20.0587 28.2457 20.9698 27.4935 21.9284 26.8052C23.0133 26.1205 24.18 25.575 25.4011 25.1814C25.6984 25.1038 26.0118 25.114 26.3034 25.2108C26.595 25.3075 26.8523 25.4867 27.0443 25.7266L33.1594 33.2574C33.9959 34.2799 33.9196 35.7701 32.9836 36.7022L32.983 36.7028L32.8656 36.8198C32.75 36.935 32.5935 36.9997 32.4303 36.9997ZM25.8024 26.3618C25.7754 26.3617 25.7484 26.3652 25.7222 26.3722C24.623 26.7348 23.5718 27.2296 22.5917 27.8454C21.6906 28.4937 20.8352 29.2033 20.0316 29.9691C19.8085 30.1711 19.6589 30.4416 19.6065 30.738C19.5541 31.0344 19.6019 31.3398 19.7423 31.6061L21.7299 35.4339C21.7816 35.5343 21.8601 35.6185 21.9566 35.6772C22.0531 35.7359 22.1639 35.7669 22.2769 35.7667H32.1712C32.6042 35.2758 32.6178 34.5432 32.2031 34.0366L26.087 26.5048C26.0532 26.4614 26.0101 26.426 25.9609 26.4012C25.9117 26.3765 25.8576 26.363 25.8025 26.3618H25.8024ZM21.6611 26.0705C21.5668 26.0705 21.4736 26.0487 21.3892 26.0066C19.8113 25.2292 18.9644 22.1156 18.8732 21.763C18.8355 21.6059 18.8611 21.4403 18.9443 21.3018C19.0275 21.1634 19.1617 21.0631 19.3181 21.0226C19.4744 20.982 19.6404 21.0043 19.7804 21.0848C19.9204 21.1653 20.0232 21.2975 20.0667 21.4531C20.3586 22.5737 21.1233 24.5009 21.9341 24.9003C22.059 24.9619 22.1595 25.0639 22.219 25.1898C22.2786 25.3157 22.2938 25.458 22.2621 25.5936C22.2305 25.7293 22.1539 25.8502 22.0447 25.9367C21.9356 26.0232 21.8004 26.0703 21.6611 26.0702L21.6611 26.0705Z" fill="black"/>
<path d="M19.5971 33.0814C19.4839 33.0813 19.373 33.05 19.2764 32.991C19.1799 32.932 19.1014 32.8476 19.0496 32.7469C18.9978 32.6463 18.9747 32.5334 18.9827 32.4205C18.9908 32.3077 19.0298 32.1992 19.0954 32.107C20.5015 30.1321 26.4338 26.901 27.1059 26.5389C27.2499 26.4614 27.4188 26.4443 27.5755 26.4913C27.7321 26.5383 27.8637 26.6456 27.9412 26.7896C28.0187 26.9336 28.0359 27.1025 27.9889 27.2591C27.9419 27.4158 27.8345 27.5473 27.6905 27.6249C25.9352 28.5705 21.1491 31.3482 20.0996 32.8226C20.0426 32.9027 19.9672 32.968 19.8798 33.013C19.7924 33.0581 19.6954 33.0815 19.5971 33.0814ZM27.7498 16.0333C27.6039 16.0332 27.4628 15.9814 27.3514 15.887C27.2401 15.7927 27.1658 15.662 27.1418 15.5181L26.7296 13.0467L24.9989 14.8892C24.9248 14.9681 24.8313 15.0262 24.7277 15.0574C24.6241 15.0887 24.514 15.0921 24.4087 15.0673C24.3033 15.0426 24.2062 14.9906 24.1273 14.9166C24.0484 14.8425 23.9903 14.7489 23.959 14.6453C23.9278 14.5417 23.9244 14.4316 23.9491 14.3262C23.9738 14.2209 24.0258 14.1239 24.0999 14.0449L26.6836 11.2946C26.7623 11.2108 26.8628 11.1507 26.9739 11.1211C27.0849 11.0914 27.202 11.0933 27.312 11.1266C27.422 11.16 27.5205 11.2234 27.5963 11.3097C27.6722 11.396 27.7224 11.5019 27.7413 11.6152L28.0775 13.6311L33.0026 5.18815L29.4365 9.05145C29.3593 9.13506 29.2606 9.19571 29.1511 9.2267C29.0417 9.25769 28.9258 9.25782 28.8163 9.22706C28.7069 9.19626 28.6081 9.13584 28.5308 9.05247C28.4536 8.9691 28.4008 8.86602 28.3784 8.75459L27.9965 6.84548L22.9207 12.2558L22.0183 11.4151L22.0245 11.4089L27.9167 5.12831C27.9942 5.04568 28.0929 4.98598 28.2021 4.95575C28.3113 4.92553 28.4267 4.92595 28.5357 4.95697C28.6446 4.98809 28.7429 5.04859 28.8197 5.13184C28.8965 5.21508 28.9489 5.31787 28.9712 5.42894L29.3506 7.32648L35.9299 0.198443C36.033 0.0867561 36.1737 0.0170691 36.3251 0.00274613C36.4764 -0.0115768 36.6277 0.0304725 36.7499 0.12083C36.8721 0.211245 36.9566 0.34358 36.9873 0.492462C37.0179 0.641343 36.9925 0.796292 36.9159 0.9276L28.2825 15.7275C28.2282 15.8206 28.1504 15.8978 28.057 15.9515C27.9635 16.0051 27.8576 16.0333 27.7499 16.0333H27.7498ZM0.616692 36.9999C0.51078 36.9998 0.406665 36.9725 0.314382 36.9205C0.222098 36.8685 0.144758 36.7937 0.0898159 36.7031C0.0348738 36.6126 0.00418231 36.5094 0.000699691 36.4036C-0.00278293 36.2977 0.0210608 36.1927 0.0699325 36.0988L8.08654 20.6823C8.14341 20.5728 8.23185 20.4829 8.34042 20.4242C8.44898 20.3655 8.57267 20.3408 8.69545 20.3532C8.81822 20.3656 8.93445 20.4146 9.02912 20.4937C9.12378 20.5729 9.19252 20.6786 9.22646 20.7972L10.1608 24.0675L11.0633 23.1044L12.5803 21.6179C12.8233 21.3793 13.2138 21.3835 13.4522 21.6269C13.6905 21.8699 13.6866 22.2607 13.4432 22.4989L11.9449 23.9665L10.3167 25.7051C10.2421 25.7847 10.1478 25.8431 10.0433 25.8744C9.93882 25.9056 9.82791 25.9086 9.72191 25.8829C9.61583 25.8573 9.51844 25.804 9.43968 25.7285C9.36092 25.6529 9.3036 25.5579 9.27357 25.4529L8.46594 22.6256L3.29116 32.577L7.56356 27.9484C7.64071 27.8649 7.73942 27.8044 7.84879 27.7735C7.95817 27.7426 8.07396 27.7425 8.18338 27.7732C8.2928 27.804 8.39161 27.8644 8.46888 27.9477C8.54616 28.0311 8.59891 28.1341 8.62131 28.2456L9.00265 30.1536L12.9253 25.9656C12.9426 25.9472 12.9609 25.93 12.9804 25.9139L22.0642 16.223C22.1547 16.1193 22.2772 16.0486 22.4123 16.0221C22.5474 15.9956 22.6874 16.0149 22.8104 16.0768C22.8825 16.1128 22.9468 16.1628 22.9995 16.2238C23.0522 16.2848 23.0923 16.3556 23.1175 16.4322C23.1428 16.5088 23.1526 16.5896 23.1464 16.6699C23.1403 16.7503 23.1182 16.8287 23.0816 16.9005L23.0755 16.9129C23.0491 16.9641 23.0159 17.0114 22.9766 17.0535L13.8316 26.8088C13.8147 26.8273 13.7964 26.8446 13.7769 26.8604L9.0833 31.8715C9.00585 31.9542 8.90711 32.014 8.79793 32.0442C8.68875 32.0744 8.57335 32.074 8.4644 32.0429C8.35545 32.0119 8.25717 31.9514 8.18035 31.8681C8.10353 31.7848 8.05115 31.682 8.02895 31.5709L7.64934 29.674L1.06972 36.8014C1.01203 36.864 0.941969 36.914 0.863979 36.9481C0.785989 36.9823 0.701761 36.9999 0.61662 36.9999H0.616692Z" fill="black"/>
<path d="M25.1171 26.5291C25.0312 26.5292 24.9462 26.5114 24.8676 26.4767C24.789 26.4421 24.7185 26.3914 24.6606 26.3279C24.6028 26.2644 24.5588 26.1895 24.5316 26.108C24.5044 26.0265 24.4945 25.9403 24.5025 25.8547L25.2859 17.7438C25.2879 17.7201 25.2915 17.6964 25.2967 17.673C25.326 17.5402 25.3242 17.4025 25.2914 17.2706C25.2587 17.1386 25.1958 17.0161 25.1077 16.9125C25.0765 16.8753 25.0496 16.8347 25.0276 16.7914L22.887 12.5286C22.8089 12.4664 22.7111 12.4343 22.6113 12.4382C22.5794 12.4464 22.5469 12.452 22.5141 12.4549L19.5877 13.0669C19.1041 13.1873 18.6355 13.3615 18.1907 13.5863C18.1613 13.9413 18.2654 14.2945 18.4825 14.5769C18.5559 14.6916 18.6629 14.781 18.789 14.8328C18.915 14.8846 19.0539 14.8962 19.1868 14.8662C20.7557 14.574 21.8846 14.7174 22.5477 15.2911C22.7433 15.4593 22.8983 15.6695 23.0012 15.906C23.1042 16.1426 23.1524 16.3993 23.1422 16.657C23.1389 16.7402 23.1189 16.822 23.0832 16.8972C23.0476 16.9725 22.9972 17.0399 22.9349 17.0952C22.8726 17.1505 22.7998 17.1927 22.7209 17.2192C22.6419 17.2457 22.5584 17.256 22.4754 17.2494C22.3923 17.2429 22.3115 17.2196 22.2376 17.1811C22.1638 17.1426 22.0985 17.0895 22.0456 17.0251C21.9928 16.9607 21.9535 16.8863 21.9301 16.8064C21.9067 16.7264 21.8997 16.6426 21.9095 16.5599C21.9054 16.4952 21.8883 16.4321 21.8592 16.3742C21.8301 16.3163 21.7896 16.265 21.7401 16.2231C21.575 16.0803 21.0175 15.7802 19.414 16.0783C18.4134 16.246 17.4426 15.6493 17.14 14.681C16.8529 13.9533 16.8323 12.9864 17.4658 12.5839C18.0469 12.2625 18.6684 12.0205 19.3139 11.8644L22.314 11.2365L22.3338 11.2329C22.3468 11.23 22.36 11.2272 22.3733 11.2253C22.647 11.1813 22.9274 11.2077 23.1881 11.3021C23.4487 11.3965 23.6811 11.5557 23.8632 11.7647C23.8962 11.8031 23.9245 11.8454 23.9473 11.8906L26.0997 16.1774C26.2886 16.417 26.4232 16.6948 26.4941 16.9915C26.5649 17.2883 26.5704 17.5969 26.5102 17.896L26.1187 21.9267C26.1175 21.9383 26.1071 22.0103 26.1054 22.0213L25.7305 25.9702C25.7161 26.123 25.6453 26.2649 25.5319 26.3683C25.4184 26.4716 25.2705 26.529 25.1171 26.5291ZM32.4303 37H22.2799C22.1163 37 21.9595 36.935 21.8439 36.8194C21.7283 36.7038 21.6633 36.547 21.6633 36.3835C21.6633 36.3025 21.6792 36.2223 21.7102 36.1475C21.7412 36.0727 21.7866 36.0047 21.8438 35.9474C21.9011 35.8901 21.9691 35.8447 22.0439 35.8137C22.1187 35.7827 22.1989 35.7667 22.2799 35.7667H32.4303C32.7708 35.7667 33.0468 36.0428 33.0468 36.3835C33.0468 36.7239 32.7708 37 32.4303 37Z" fill="black"/>
</g>
<path d="M58.412 31.8678C58.3186 31.1024 58.244 30.2718 58.188 29.3758C58.1506 28.4611 58.132 27.6118 58.132 26.8278C58.132 25.5771 58.1693 24.3824 58.244 23.2438C58.3373 22.0864 58.44 20.8824 58.552 19.6318C58.6826 18.3624 58.8226 16.9904 58.972 15.5158C59.1213 14.0224 59.252 12.3051 59.364 10.3638C59.6066 10.3638 59.952 10.4384 60.4 10.5878C60.8666 10.7184 61.3333 10.8771 61.8 11.0638C62.2666 11.2504 62.6773 11.4464 63.032 11.6518C63.3866 11.8384 63.592 11.9971 63.648 12.1278C63.3306 12.8558 63.0413 13.8171 62.78 15.0118C62.5373 16.1878 62.332 17.4758 62.164 18.8758C61.996 20.2758 61.8653 21.7131 61.772 23.1878C61.6786 24.6624 61.632 26.0438 61.632 27.3318C61.632 27.9291 61.6413 28.5171 61.66 29.0958C61.6786 29.6744 61.7066 30.2064 61.744 30.6918C62.136 30.1131 62.584 29.2918 63.088 28.2278C63.6106 27.1451 64.1426 25.9411 64.684 24.6158C65.244 23.2904 65.7946 21.9091 66.336 20.4718C66.896 19.0158 67.4093 17.6344 67.876 16.3278C68.3426 15.0024 68.7346 13.8171 69.052 12.7718C69.388 11.7078 69.6213 10.9051 69.752 10.3638C69.9946 10.3638 70.3493 10.4384 70.816 10.5878C71.3013 10.7184 71.768 10.8771 72.216 11.0638C72.6826 11.2504 73.0933 11.4464 73.448 11.6518C73.8026 11.8384 73.9986 11.9971 74.036 12.1278C73.7186 12.8558 73.4293 13.8171 73.168 15.0118C72.9253 16.1878 72.72 17.4758 72.552 18.8758C72.384 20.2758 72.2533 21.7131 72.16 23.1878C72.0666 24.6624 72.02 26.0438 72.02 27.3318C72.02 27.8731 72.02 28.4144 72.02 28.9558C72.0386 29.4784 72.0666 29.9544 72.104 30.3838C72.7013 28.8344 73.3173 27.3038 73.952 25.7918C74.6053 24.2611 75.2493 22.8051 75.884 21.4238C76.5186 20.0238 77.1346 18.7264 77.732 17.5318C78.3293 16.3184 78.88 15.2451 79.384 14.3118C79.888 13.3598 80.3266 12.5758 80.7 11.9598C81.0733 11.3438 81.3626 10.9331 81.568 10.7278C81.9973 10.7838 82.436 10.9424 82.884 11.2038C83.3506 11.4464 83.7613 11.7638 84.116 12.1558C83.5746 12.5851 82.9586 13.2944 82.268 14.2838C81.5773 15.2544 80.868 16.3838 80.14 17.6718C79.412 18.9598 78.6746 20.3318 77.928 21.7878C77.2 23.2438 76.5186 24.6624 75.884 26.0438C75.2493 27.4251 74.68 28.7131 74.176 29.9078C73.6906 31.1024 73.3173 32.0638 73.056 32.7918C72.5706 33.0158 72.0946 33.1278 71.628 33.1278C71.0306 33.0531 70.4613 32.9038 69.92 32.6798C69.3973 32.4558 69.024 32.1851 68.8 31.8678C68.744 31.5691 68.6973 31.2238 68.66 30.8318C68.6226 30.4211 68.5946 30.0198 68.576 29.6278C68.5573 29.2358 68.5386 28.8624 68.52 28.5078C68.52 28.1344 68.52 27.8171 68.52 27.5558C68.52 25.8944 68.5853 24.2051 68.716 22.4878C68.8466 20.7518 69.0053 18.8944 69.192 16.9158C68.7626 18.1851 68.2866 19.5478 67.764 21.0038C67.2413 22.4598 66.6906 23.9064 66.112 25.3438C65.552 26.7624 64.9733 28.1251 64.376 29.4318C63.7973 30.7198 63.228 31.8398 62.668 32.7918C62.1826 33.0158 61.7066 33.1278 61.24 33.1278C60.6426 33.0531 60.0733 32.9038 59.532 32.6798C59.0093 32.4558 58.636 32.1851 58.412 31.8678Z" fill="#272727"/>
<path d="M90.0603 19.4078C89.9856 20.5651 89.7803 21.5638 89.4443 22.4038C89.1083 23.2251 88.6229 23.9531 87.9883 24.5878C87.3723 25.2038 86.6163 25.7638 85.7203 26.2678C84.8243 26.7718 83.7789 27.2571 82.5843 27.7238C82.5843 27.8358 82.5749 27.9571 82.5563 28.0878C82.5563 28.1998 82.5563 28.3211 82.5563 28.4518C82.5563 28.6944 82.5749 28.9464 82.6123 29.2078C82.6496 29.4691 82.7149 29.7118 82.8083 29.9358C82.9016 30.1598 83.0323 30.3464 83.2003 30.4958C83.3683 30.6264 83.5829 30.6918 83.8443 30.6918C84.3483 30.6918 84.8429 30.5798 85.3283 30.3558C85.8136 30.1318 86.2709 29.8611 86.7003 29.5438C87.1483 29.2078 87.5589 28.8531 87.9323 28.4798C88.3243 28.0878 88.6696 27.7331 88.9683 27.4158C89.1549 27.5838 89.3136 27.7424 89.4443 27.8918C88.6043 29.0118 87.6803 29.9451 86.6723 30.6918C85.6829 31.4198 84.7403 31.8864 83.8443 32.0918C82.5563 31.9424 81.5483 31.4758 80.8203 30.6918C80.1109 29.8891 79.7563 28.9278 79.7563 27.8078C79.7563 27.0424 79.8589 26.2678 80.0643 25.4838C80.2883 24.6811 80.5869 23.9158 80.9603 23.1878C81.3523 22.4411 81.8003 21.7411 82.3043 21.0878C82.8269 20.4344 83.3776 19.8651 83.9563 19.3798C84.5536 18.8944 85.1603 18.5118 85.7763 18.2318C86.4109 17.9518 87.0363 17.8118 87.6523 17.8118C88.5109 17.9238 89.3136 18.4558 90.0603 19.4078ZM88.1283 20.3318C87.6243 20.4064 87.1016 20.6118 86.5603 20.9478C86.0189 21.2838 85.5056 21.7318 85.0203 22.2918C84.5536 22.8518 84.1243 23.5051 83.7323 24.2518C83.3403 24.9984 83.0323 25.8011 82.8083 26.6598C84.3016 25.9131 85.5429 24.9984 86.5323 23.9158C87.5216 22.8144 88.0536 21.6198 88.1283 20.3318Z" fill="#272727"/>
<path d="M101.017 19.6878C101.203 19.6878 101.418 19.7251 101.661 19.7998C101.922 19.8558 102.155 19.9398 102.361 20.0518C102.566 20.1451 102.734 20.2478 102.865 20.3598C103.014 20.4718 103.089 20.5744 103.089 20.6678C102.715 21.4518 102.37 22.2451 102.053 23.0478C101.735 23.8318 101.465 24.5878 101.241 25.3158C101.017 26.0438 100.839 26.7251 100.709 27.3598C100.597 27.9944 100.541 28.5451 100.541 29.0118C100.541 29.5344 100.597 29.9731 100.709 30.3278C100.821 30.6638 101.007 30.9064 101.269 31.0558C101.045 31.2051 100.755 31.3264 100.401 31.4198C100.046 31.5131 99.7286 31.5598 99.4486 31.5598C98.4406 31.5598 97.9366 30.8691 97.9366 29.4878C97.9366 28.4238 98.2913 26.9678 99.0006 25.1198C98.6273 25.9784 98.1979 26.7904 97.7126 27.5558C97.2272 28.3024 96.7326 28.9651 96.2286 29.5438C95.7246 30.1224 95.2113 30.5984 94.6886 30.9718C94.1846 31.3264 93.7179 31.5411 93.2886 31.6158C92.5979 31.5784 92.0379 31.2518 91.6086 30.6358C91.1792 30.0011 90.9646 29.1984 90.9646 28.2278C90.9646 27.1824 91.1886 26.0811 91.6366 24.9238C92.0846 23.7664 92.6539 22.6931 93.3446 21.7038C94.0539 20.7144 94.8192 19.8931 95.6406 19.2398C96.4619 18.5678 97.2552 18.2131 98.0206 18.1758C98.2073 18.2318 98.4126 18.3438 98.6366 18.5118C98.8792 18.6798 99.1032 18.8758 99.3086 19.0998C99.5326 19.3238 99.7192 19.5571 99.8686 19.7998C100.018 20.0238 100.102 20.2198 100.121 20.3878C99.3739 20.4998 98.5993 20.8638 97.7966 21.4798C97.0126 22.0958 96.2939 22.8424 95.6406 23.7198C95.0059 24.5784 94.4832 25.5024 94.0726 26.4918C93.6619 27.4811 93.4566 28.4051 93.4566 29.2638C93.4566 29.6184 93.5872 29.8424 93.8486 29.9358C94.3899 29.8238 95.0152 29.3664 95.7246 28.5638C96.4339 27.7424 97.2926 26.4824 98.3006 24.7838C98.4873 24.4478 98.6926 24.0744 98.9166 23.6638C99.1593 23.2531 99.4019 22.8238 99.6446 22.3758C99.8873 21.9278 100.121 21.4798 100.345 21.0318C100.587 20.5651 100.811 20.1171 101.017 19.6878Z" fill="#272727"/>
<path d="M105.696 20.2758C105.603 20.1638 105.519 19.9304 105.444 19.5758C105.369 19.2024 105.332 18.8851 105.332 18.6238C105.817 18.6611 106.284 18.6984 106.732 18.7358C107.18 18.7544 107.591 18.7731 107.964 18.7918C108.244 18.2318 108.543 17.6811 108.86 17.1398C109.196 16.5798 109.513 16.0758 109.812 15.6278C110.129 15.1611 110.419 14.7691 110.68 14.4518C110.96 14.1344 111.175 13.9291 111.324 13.8358C111.511 13.8358 111.744 13.8731 112.024 13.9478C112.323 14.0038 112.621 14.0878 112.92 14.1998C113.219 14.2931 113.489 14.3958 113.732 14.5078C113.975 14.6198 114.143 14.7318 114.236 14.8438C113.676 15.5531 113.191 16.2158 112.78 16.8318C112.388 17.4291 111.959 18.1198 111.492 18.9038C111.865 18.9038 112.239 18.8944 112.612 18.8758C113.004 18.8571 113.396 18.8291 113.788 18.7918C113.881 18.8851 113.956 19.0064 114.012 19.1558C114.068 19.2864 114.096 19.4264 114.096 19.5758C113.181 19.9118 112.071 20.0984 110.764 20.1358C110.297 21.0318 109.877 21.9278 109.504 22.8238C109.149 23.7011 108.841 24.5504 108.58 25.3718C108.337 26.1931 108.141 26.9678 107.992 27.6958C107.861 28.4238 107.796 29.0771 107.796 29.6558C107.796 30.4771 108.104 30.9344 108.72 31.0278C109.28 30.9531 109.812 30.8131 110.316 30.6078C110.82 30.4024 111.268 30.1411 111.66 29.8238C111.772 29.9918 111.837 30.1318 111.856 30.2438C111.744 30.4118 111.548 30.6078 111.268 30.8318C111.007 31.0558 110.717 31.2704 110.4 31.4758C110.083 31.6998 109.775 31.8864 109.476 32.0358C109.177 32.1851 108.953 32.2691 108.804 32.2878C108.337 32.2691 107.871 32.1664 107.404 31.9798C106.937 31.7931 106.508 31.5598 106.116 31.2798C105.743 30.9998 105.435 30.6918 105.192 30.3558C104.949 30.0011 104.828 29.6558 104.828 29.3198C104.828 28.8718 104.884 28.3118 104.996 27.6398C105.127 26.9491 105.304 26.2024 105.528 25.3998C105.752 24.5971 106.013 23.7571 106.312 22.8798C106.611 22.0024 106.937 21.1344 107.292 20.2758H105.696Z" fill="#272727"/>
<path d="M113.86 30.5238C113.86 29.8704 113.925 29.1051 114.056 28.2278C114.186 27.3318 114.373 26.3798 114.616 25.3718C114.877 24.3638 115.176 23.3091 115.512 22.2078C115.867 21.1064 116.258 20.0051 116.688 18.9038C117.061 17.9144 117.491 16.9158 117.976 15.9078C118.48 14.8998 119.021 13.9104 119.6 12.9398C120.179 11.9691 120.776 11.0451 121.392 10.1678C122.027 9.29043 122.661 8.48777 123.296 7.75977C123.594 7.75977 123.912 7.7971 124.248 7.87177C124.603 7.94643 124.939 8.0491 125.256 8.17977C125.592 8.29177 125.891 8.43177 126.152 8.59977C126.432 8.76777 126.656 8.93577 126.824 9.10377C125.424 10.5411 124.164 11.9971 123.044 13.4718C121.924 14.9278 121.037 16.2998 120.384 17.5878C120.029 18.2971 119.702 18.9598 119.404 19.5758C119.124 20.1918 118.862 20.8078 118.62 21.4238C118.377 22.0211 118.153 22.6278 117.948 23.2438C117.761 23.8411 117.584 24.4758 117.416 25.1478C121 20.5744 123.66 18.2878 125.396 18.2878C125.881 18.2878 126.404 18.4464 126.964 18.7638C127.524 19.0811 128.018 19.5104 128.448 20.0518C127.869 20.6864 127.272 21.4518 126.656 22.3478C126.04 23.2438 125.47 24.1491 124.948 25.0638C124.444 25.9598 124.024 26.7998 123.688 27.5838C123.37 28.3491 123.212 28.9184 123.212 29.2918C123.212 29.4784 123.24 29.6091 123.296 29.6838C123.352 29.7398 123.473 29.7678 123.66 29.7678C123.94 29.7678 124.164 29.7304 124.332 29.6558C124.5 29.5811 124.603 29.5438 124.64 29.5438C124.733 29.6931 124.789 29.7958 124.808 29.8518C124.826 29.9078 124.836 29.9544 124.836 29.9918C124.836 30.0664 124.724 30.1784 124.5 30.3278C124.276 30.4584 124.005 30.5984 123.688 30.7478C123.389 30.8784 123.09 30.9998 122.792 31.1118C122.493 31.2238 122.269 31.2798 122.12 31.2798C121.933 31.2798 121.746 31.2238 121.56 31.1118C121.373 31.0184 121.205 30.8878 121.056 30.7198C120.925 30.5518 120.813 30.3651 120.72 30.1598C120.645 29.9544 120.608 29.7398 120.608 29.5158C120.608 29.2358 120.682 28.8251 120.832 28.2838C121 27.7238 121.224 27.0798 121.504 26.3518C121.784 25.6051 122.12 24.7931 122.512 23.9158C122.904 23.0384 123.324 22.1424 123.772 21.2278C123.772 21.1531 123.735 21.1158 123.66 21.1158C123.604 21.1158 123.454 21.1904 123.212 21.3398C122.988 21.4891 122.773 21.6384 122.568 21.7878C121.896 22.2918 121.215 22.9171 120.524 23.6638C119.852 24.3918 119.189 25.1944 118.536 26.0718C117.901 26.9491 117.294 27.8824 116.716 28.8718C116.156 29.8424 115.671 30.8224 115.26 31.8118C115.204 31.9424 115.12 32.0638 115.008 32.1758C114.896 32.2878 114.802 32.3438 114.728 32.3438C114.672 32.3438 114.588 32.2784 114.476 32.1478C114.382 32.0171 114.289 31.8491 114.196 31.6438C114.121 31.4571 114.046 31.2611 113.972 31.0558C113.897 30.8504 113.86 30.6731 113.86 30.5238Z" fill="#272727"/>
<path d="M138.377 19.4078C138.302 20.5651 138.097 21.5638 137.761 22.4038C137.425 23.2251 136.939 23.9531 136.305 24.5878C135.689 25.2038 134.933 25.7638 134.037 26.2678C133.141 26.7718 132.095 27.2571 130.901 27.7238C130.901 27.8358 130.891 27.9571 130.873 28.0878C130.873 28.1998 130.873 28.3211 130.873 28.4518C130.873 28.6944 130.891 28.9464 130.929 29.2078C130.966 29.4691 131.031 29.7118 131.125 29.9358C131.218 30.1598 131.349 30.3464 131.517 30.4958C131.685 30.6264 131.899 30.6918 132.161 30.6918C132.665 30.6918 133.159 30.5798 133.645 30.3558C134.13 30.1318 134.587 29.8611 135.017 29.5438C135.465 29.2078 135.875 28.8531 136.249 28.4798C136.641 28.0878 136.986 27.7331 137.285 27.4158C137.471 27.5838 137.63 27.7424 137.761 27.8918C136.921 29.0118 135.997 29.9451 134.989 30.6918C133.999 31.4198 133.057 31.8864 132.161 32.0918C130.873 31.9424 129.865 31.4758 129.137 30.6918C128.427 29.8891 128.073 28.9278 128.073 27.8078C128.073 27.0424 128.175 26.2678 128.381 25.4838C128.605 24.6811 128.903 23.9158 129.277 23.1878C129.669 22.4411 130.117 21.7411 130.621 21.0878C131.143 20.4344 131.694 19.8651 132.273 19.3798C132.87 18.8944 133.477 18.5118 134.093 18.2318C134.727 17.9518 135.353 17.8118 135.969 17.8118C136.827 17.9238 137.63 18.4558 138.377 19.4078ZM136.445 20.3318C135.941 20.4064 135.418 20.6118 134.877 20.9478C134.335 21.2838 133.822 21.7318 133.337 22.2918C132.87 22.8518 132.441 23.5051 132.049 24.2518C131.657 24.9984 131.349 25.8011 131.125 26.6598C132.618 25.9131 133.859 24.9984 134.849 23.9158C135.838 22.8144 136.37 21.6198 136.445 20.3318Z" fill="#272727"/>
<path d="M139.001 30.4398C139.094 29.8984 139.253 29.1891 139.477 28.3118C139.72 27.4158 140 26.4731 140.317 25.4838C140.634 24.4758 140.97 23.4678 141.325 22.4598C141.68 21.4518 142.025 20.5464 142.361 19.7438C142.604 19.1651 142.818 18.7171 143.005 18.3998C143.192 18.0638 143.397 17.7838 143.621 17.5598C143.882 17.5971 144.153 17.6624 144.433 17.7558C144.713 17.8491 144.984 17.9611 145.245 18.0918C145.506 18.2224 145.74 18.3624 145.945 18.5118C146.15 18.6424 146.309 18.7731 146.421 18.9038C145.917 19.5011 145.469 20.1824 145.077 20.9478C144.704 21.7131 144.321 22.6931 143.929 23.8878C144.937 22.9918 145.824 22.1331 146.589 21.3118C147.373 20.4904 148.101 19.5758 148.773 18.5678C148.885 18.4744 149.081 18.4278 149.361 18.4278C149.622 18.4278 149.874 18.4744 150.117 18.5678C150.36 18.6424 150.528 18.7544 150.621 18.9038C150.285 19.7998 150.117 20.6864 150.117 21.5638C150.117 22.3851 150.238 23.0011 150.481 23.4118C150.462 23.5238 150.332 23.7384 150.089 24.0558C149.865 24.3731 149.613 24.6718 149.333 24.9518C148.829 24.6904 148.381 24.3358 147.989 23.8878C147.597 23.4211 147.308 22.9171 147.121 22.3758C146.244 22.9918 145.497 23.5984 144.881 24.1958C144.265 24.7744 143.733 25.4278 143.285 26.1558C142.856 26.8651 142.482 27.6864 142.165 28.6198C141.866 29.5531 141.577 30.6638 141.297 31.9518C141.129 31.9331 140.924 31.8678 140.681 31.7558C140.457 31.6624 140.224 31.5411 139.981 31.3918C139.757 31.2424 139.552 31.0838 139.365 30.9158C139.178 30.7478 139.057 30.5891 139.001 30.4398Z" fill="#272727"/>
<defs>
<clipPath id="clip0_87_3">
<rect width="37" height="37" fill="white"/>
</clipPath>
</defs>
</svg>
