<svg width="151" height="37" viewBox="0 0 151 37" fill="none" xmlns="http://www.w3.org/2000/svg">
<g clip-path="url(#clip0_190_32)">
<path d="M32.5475 36.2663L32.4304 36.3833H22.2799C22.0535 36.3835 21.8314 36.3215 21.6379 36.204C21.4443 36.0866 21.2867 35.9183 21.1823 35.7175L19.5174 32.5107L19.1967 31.8939C19.0568 31.6269 18.9796 31.3315 18.9711 31.0301C18.9625 30.7288 19.0228 30.4295 19.1473 30.155C19.1535 30.1425 19.1597 30.1366 19.1656 30.1242C19.2115 30.0203 19.2672 29.9212 19.3322 29.8281C19.417 29.7149 19.5119 29.6096 19.6159 29.5136C20.4483 28.7262 21.3321 27.9948 22.2615 27.3245C22.2615 27.3245 22.3724 27.2505 22.5697 27.1396C22.5759 27.1334 22.5821 27.1334 22.5884 27.1272C22.6067 27.1148 22.6316 27.1026 22.6499 27.0902C22.7359 27.0401 22.8223 26.9908 22.9091 26.9423C22.9768 26.9053 23.0507 26.862 23.1247 26.8252C23.1987 26.7819 23.2726 26.7388 23.3528 26.7018C23.433 26.6585 23.5132 26.6154 23.5995 26.5722L23.8586 26.4426C23.951 26.3995 24.0436 26.3503 24.1361 26.313L24.3397 26.2208C24.4003 26.1965 24.4599 26.1697 24.5184 26.1405L24.5986 26.1098C24.6725 26.0788 24.7464 26.048 24.8266 26.0172H24.8329C24.8699 26.0048 24.9009 25.9926 24.9316 25.9803C24.9932 25.9554 25.055 25.9308 25.1166 25.9125C25.2706 25.8631 25.4189 25.8137 25.5606 25.7767C25.743 25.7309 25.9347 25.7385 26.113 25.7987C26.2912 25.8588 26.4484 25.9688 26.5658 26.1158L27.3675 27.1026L32.3132 33.1953L32.683 33.6455C33.3136 34.4254 33.2552 35.5555 32.5475 36.2663Z" fill="#DFC49C"/>
<path d="M21.6611 26.0706C21.5667 26.0706 21.4736 26.0489 21.3892 26.0068C19.8113 25.2294 18.9644 22.1157 18.8732 21.7631C18.8355 21.606 18.861 21.4404 18.9442 21.302C19.0274 21.1635 19.1617 21.0632 19.3181 21.0227C19.4744 20.9821 19.6404 21.0045 19.7804 21.085C19.9204 21.1655 20.0232 21.2977 20.0667 21.4532C20.3586 22.5739 21.1232 24.5011 21.9341 24.9005C22.059 24.962 22.1594 25.064 22.219 25.1899C22.2786 25.3158 22.2938 25.4582 22.2621 25.5938C22.2305 25.7294 22.1539 25.8503 22.0447 25.9369C21.9356 26.0234 21.8004 26.0704 21.6611 26.0703L21.6611 26.0706Z" fill="black"/>
<path d="M25.8999 17.8033L25.505 21.8671C25.4991 21.9102 25.4929 21.9473 25.4867 21.9905L25.1166 25.9125C25.055 25.9371 24.9933 25.9555 24.9317 25.9803C24.9009 25.9928 24.8699 26.0049 24.8329 26.0173H24.8267C24.7465 26.048 24.6725 26.0788 24.5986 26.1099L24.5184 26.1406C24.4569 26.1714 24.4013 26.196 24.3398 26.2208L24.1362 26.3131C24.0436 26.3504 23.951 26.3995 23.8587 26.4427L23.5995 26.5723C23.5132 26.6155 23.433 26.6586 23.3528 26.7018C23.2727 26.7388 23.1988 26.782 23.1248 26.8252C23.0508 26.8622 22.9768 26.9054 22.9091 26.9423C22.8103 26.9977 22.7239 27.0471 22.65 27.0903C22.6316 27.1027 22.6068 27.1148 22.5884 27.1272C22.5822 27.1335 22.576 27.1335 22.5698 27.1397C22.3725 27.2506 22.2615 27.3245 22.2615 27.3245C21.3322 27.9949 20.4484 28.7262 19.6159 29.5137C19.512 29.6097 19.417 29.7149 19.3323 29.8282C19.2673 29.9212 19.2115 30.0204 19.1657 30.1243C19.1598 30.1367 19.1535 30.1426 19.1473 30.155L18.9994 30.0873C18.8574 29.9021 18.7465 29.7542 18.6725 29.6371C18.553 29.4912 18.4065 29.3697 18.2409 29.2794C17.1307 28.5828 14.3374 27.4541 13.3816 26.3873H13.3754L11.5128 23.5258C10.7668 22.3481 10.039 21.2074 9.81097 20.8498C9.70249 20.6576 9.64364 20.4413 9.63973 20.2207C9.63583 20 9.687 19.7819 9.78861 19.586C9.89022 19.3901 10.0391 19.2226 10.2217 19.0986C10.4043 18.9747 10.6149 18.8983 10.8345 18.8763C10.8345 18.8763 9.69383 16.2676 11.4389 16.0828C11.6261 16.0723 11.8138 16.0929 11.9939 16.1445C12.0741 16.1691 12.1604 16.1937 12.2468 16.2248C12.2468 16.2248 11.7966 14.461 13.0053 14.1587C13.2893 14.083 13.587 14.0746 13.8748 14.1341C14.1293 13.6704 14.4755 13.2634 14.8924 12.9378C15.0255 12.8296 15.1803 12.7516 15.3464 12.709C15.5125 12.6664 15.6858 12.6603 15.8545 12.691C16.0784 12.7443 16.2956 12.8229 16.5018 12.9253C16.8796 13.1169 17.2371 13.3463 17.5688 13.6099C17.566 13.5138 17.5851 13.4184 17.6246 13.3309C17.6642 13.2433 17.7231 13.1658 17.7969 13.1043C18.3225 12.821 18.882 12.6055 19.4618 12.463L21.5894 12.0189H21.6015L22.4402 11.84L22.4713 11.834C22.641 11.8059 22.8151 11.8217 22.977 11.8799C23.1389 11.9382 23.2832 12.037 23.396 12.1668L24.5492 14.4672L25.5793 16.5143C25.7279 16.6902 25.8341 16.898 25.8897 17.1214C25.9453 17.3449 25.9488 17.5782 25.8999 17.8033V17.8033Z" fill="#DFC49C"/>
<path d="M30.9133 36.2663L30.7962 36.3833H22.2798C22.0534 36.3835 21.8313 36.3215 21.6378 36.204C21.4442 36.0866 21.2867 35.9183 21.1822 35.7175L19.5173 32.5107L19.1966 31.8939C19.0567 31.6269 18.9796 31.3315 18.971 31.0302C18.9624 30.7288 19.0227 30.4295 19.1472 30.155L18.9993 30.0873C18.8573 29.9021 18.7464 29.7541 18.6724 29.6371C18.5529 29.4911 18.4064 29.3697 18.2408 29.2793C18.9928 28.5765 19.79 27.9235 20.6272 27.3246C20.6272 27.3246 20.8799 27.1641 21.2748 26.9423C21.4721 26.8311 21.7064 26.7018 21.9653 26.5723L22.2244 26.4426L22.5019 26.3131L22.7054 26.2208L22.9643 26.1098C23.1371 26.0356 23.3099 25.974 23.4823 25.9126C23.6302 25.8631 23.7784 25.8137 23.9264 25.7767C24.0844 25.7363 24.2502 25.7372 24.4079 25.7793C24.5655 25.8215 24.7097 25.9034 24.8266 26.0172H24.8328C24.8704 26.0452 24.9033 26.0785 24.9316 26.1158L25.7333 27.1026L30.6789 33.1953L31.0487 33.6455C31.6825 34.4246 31.6237 35.5566 30.9132 36.2663H30.9133Z" fill="#FFE0B2"/>
<path d="M24.2658 17.8033L23.8708 21.8671C23.8649 21.9102 23.8587 21.9473 23.8525 21.9905L23.4825 25.9125C23.31 25.9741 23.1372 26.0356 22.9644 26.1098L22.7055 26.2208L22.502 26.3131C22.4095 26.3504 22.3168 26.3995 22.2245 26.4427L21.9654 26.5722C21.7065 26.7018 21.4723 26.8311 21.2749 26.9423C20.88 27.1642 20.6274 27.3246 20.6274 27.3246C19.7902 27.9235 18.993 28.5765 18.2409 29.2794C17.1307 28.5827 14.3374 27.4541 13.3816 26.3873H13.3754L11.5128 23.5258C10.7668 22.3481 10.039 21.2074 9.81097 20.8497C9.70249 20.6575 9.64364 20.4413 9.63973 20.2207C9.63583 20 9.687 19.7819 9.78861 19.586C9.89022 19.39 10.0391 19.2226 10.2217 19.0986C10.4043 18.9747 10.6149 18.8983 10.8345 18.8762C10.8345 18.8762 9.69383 16.2676 11.4389 16.0827C11.6261 16.0723 11.8138 16.0929 11.9939 16.1445C12.0741 16.1691 12.1604 16.1937 12.2468 16.2247C12.2468 16.2247 11.7966 14.461 13.0053 14.1587C13.2893 14.083 13.587 14.0746 13.8748 14.1341C14.1293 13.6704 14.4755 13.2634 14.8924 12.9377C15.2607 13.1275 15.6096 13.3526 15.9343 13.6099C15.9317 13.5138 15.9509 13.4184 15.9904 13.3309C16.03 13.2433 16.0889 13.1658 16.1627 13.1043C16.2716 13.0372 16.3849 12.9774 16.5018 12.9253C16.93 12.7345 17.3735 12.5798 17.8276 12.463L20.806 11.84L20.8371 11.834C20.9695 11.8126 21.1048 11.8179 21.2351 11.8496C21.3654 11.8814 21.488 11.9389 21.5956 12.0189H21.6015C21.6608 12.0615 21.7147 12.1112 21.7619 12.1668L22.915 14.4672L23.9451 16.5143C24.0937 16.6902 24.2 16.8979 24.2555 17.1214C24.3111 17.3449 24.3146 17.5782 24.2658 17.8032V17.8033Z" fill="#FFE0B2"/>
<path d="M17.7404 20.8421C17.5849 20.8424 17.435 20.7836 17.3212 20.6775C15.5959 19.0797 13.1233 17.0899 11.8335 16.7427C11.7267 16.7082 11.6145 16.6933 11.5024 16.6986C11.2449 16.7255 11.1894 16.8209 11.1654 16.8615C10.9567 17.2187 11.182 18.1273 11.3999 18.6292C11.5352 18.9411 11.3929 19.3039 11.0813 19.44C10.9316 19.5054 10.7622 19.5089 10.61 19.4495C10.4579 19.3902 10.3355 19.2729 10.2697 19.1234C10.1372 18.8209 9.50586 17.2601 10.0992 16.2416C10.232 16.0183 10.4179 15.8312 10.6405 15.6969C10.863 15.5627 11.1153 15.4855 11.3748 15.4722C11.6371 15.4501 11.9016 15.4772 12.154 15.552C14.048 16.0618 17.2292 18.9118 18.1596 19.7733C18.2504 19.8577 18.3137 19.9674 18.3413 20.0882C18.3689 20.2091 18.3594 20.3354 18.3141 20.4508C18.2688 20.5662 18.1899 20.6652 18.0875 20.7351C17.9851 20.8049 17.864 20.8423 17.7401 20.8424L17.7404 20.8421Z" fill="#BEA182"/>
<path d="M18.5427 18.6113C18.3949 18.6114 18.252 18.5581 18.1404 18.4613C17.8708 18.2293 17.1341 17.5743 16.1124 16.5096C15.149 15.5063 14.4201 14.8602 13.7641 14.7407C13.5616 14.6973 13.3516 14.7031 13.1518 14.7577C13.0992 14.7678 13.0494 14.789 13.0058 14.82C12.9622 14.8509 12.9257 14.8909 12.8989 14.9372C12.7633 15.3006 12.7442 15.6972 12.8441 16.072C12.8664 16.1512 12.8726 16.234 12.8624 16.3156C12.8522 16.3972 12.8258 16.476 12.7847 16.5472C12.7436 16.6185 12.6887 16.6808 12.6232 16.7305C12.5577 16.7802 12.4829 16.8163 12.4032 16.8366C12.3235 16.857 12.2405 16.8612 12.1592 16.849C12.0778 16.8368 11.9998 16.8085 11.9295 16.7657C11.8593 16.7229 11.7984 16.6664 11.7503 16.5997C11.7022 16.533 11.6679 16.4573 11.6495 16.3772C11.4669 15.6858 11.5343 14.9522 11.8397 14.3057C11.9503 14.1196 12.0972 13.9577 12.2718 13.8296C12.4464 13.7016 12.645 13.61 12.8557 13.5605C13.2317 13.4614 13.6256 13.4515 14.006 13.5317C14.9722 13.7076 15.8389 14.4444 17.0022 15.656C17.9874 16.6829 18.6894 17.307 18.9455 17.5278C19.0407 17.61 19.1086 17.7194 19.1399 17.8413C19.1713 17.9632 19.1646 18.0918 19.1208 18.2098C19.0769 18.3277 18.998 18.4294 18.8946 18.5012C18.7913 18.573 18.6685 18.6115 18.5427 18.6115V18.6113ZM14.4786 23.6331C14.3877 23.6331 14.3005 23.6295 14.2206 23.6224C13.8762 23.5834 13.5529 23.4366 13.2969 23.2029L12.5793 22.4983C12.5009 22.4227 12.4439 22.3277 12.4142 22.223C12.3844 22.1182 12.3829 22.0074 12.4098 21.9019C12.4368 21.7964 12.4912 21.6999 12.5675 21.6223C12.6438 21.5446 12.7393 21.4885 12.8444 21.4598C12.9494 21.431 13.0601 21.4305 13.1654 21.4584C13.2706 21.4863 13.3666 21.5414 13.4437 21.6184L14.1466 22.3092C14.2038 22.357 14.2738 22.387 14.3479 22.3955C14.6293 22.4156 14.9122 22.3789 15.1795 22.2877C15.2278 22.252 15.2614 22.1998 15.2737 22.1409C15.2766 22.1155 15.2749 22.0898 15.2684 22.065C15.2344 21.9083 15.2628 21.7445 15.3476 21.6084C15.4323 21.4723 15.5667 21.3746 15.7223 21.3359C15.8779 21.2973 16.0425 21.3207 16.1811 21.4013C16.3197 21.482 16.4214 21.6134 16.4647 21.7677C16.516 21.9769 16.5206 22.1948 16.4775 22.406C16.3919 22.79 16.1581 23.1247 15.8271 23.3372C15.4084 23.5442 14.9455 23.6457 14.4786 23.6331Z" fill="#BEA182"/>
<path d="M13.8741 14.7481C13.7678 14.7479 13.6634 14.7201 13.5709 14.6677C13.4785 14.6152 13.4012 14.5397 13.3465 14.4485C13.2918 14.3573 13.2616 14.2536 13.2589 14.1473C13.2561 14.041 13.2808 13.9358 13.3307 13.842C13.4448 13.6277 14.4918 11.7575 15.9891 12.0889C16.7175 12.2882 17.3926 12.6467 17.9656 13.1385C18.2336 13.3491 18.2801 13.7367 18.0698 14.0045C17.8595 14.2724 17.4717 14.319 17.2038 14.1087C16.7734 13.7345 16.2681 13.4564 15.7218 13.2929C15.2593 13.1952 14.6324 14.0257 14.4181 14.4231C14.3652 14.5214 14.2867 14.6035 14.191 14.6607C14.0952 14.7179 13.9857 14.7481 13.8741 14.7481Z" fill="#BEA182"/>
<path d="M19.1468 30.7717C19.0583 30.7717 18.9708 30.7526 18.8904 30.7156L18.7422 30.6479C18.6509 30.606 18.5712 30.5426 18.5099 30.463C18.3535 30.2592 18.2318 30.0948 18.1505 29.9658C17.609 29.6083 17.0409 29.2928 16.4511 29.0221C15.1639 28.3707 13.7087 27.6344 12.972 26.8527C12.9279 26.8156 12.8897 26.772 12.8585 26.7235L10.996 23.8622C10.2462 22.6792 9.51907 21.5391 9.29122 21.1813C9.12699 20.8863 9.03846 20.5552 9.03354 20.2176C9.02862 19.88 9.10747 19.5465 9.26304 19.2468C9.40781 18.9605 9.62649 18.718 9.89643 18.5446C10.1664 18.3711 10.4778 18.273 10.7984 18.2603C11.0357 18.2411 11.2745 18.26 11.5058 18.3162C12.9324 18.6626 14.2468 19.3679 15.3243 20.365C15.5852 20.5784 15.8354 20.8045 16.074 21.0425C16.1673 21.1396 16.2476 21.2484 16.3131 21.366C16.675 21.4166 17.289 21.4422 17.4409 21.0679C17.4615 21.0156 17.53 20.8426 17.405 20.7472C17.2917 20.6617 17.2105 20.5406 17.1743 20.4034C17.1381 20.2661 17.1491 20.1207 17.2054 19.9904C17.2604 19.8626 17.3576 19.7577 17.4807 19.6931C17.6039 19.6285 17.7455 19.6082 17.8818 19.6356C17.888 19.6375 18.7106 19.7801 18.8114 19.4142C18.8935 19.1232 18.5262 18.7961 18.5197 18.7899C18.5169 18.7878 18.38 18.6764 18.1311 18.4533C18.0687 18.3973 18.0184 18.3293 17.9832 18.2532C17.948 18.1772 17.9286 18.0948 17.9261 18.0111C17.9239 17.9273 17.9387 17.8439 17.9697 17.7661C18.0007 17.6882 18.0473 17.6175 18.1065 17.5582C18.1734 17.4914 18.2543 17.4402 18.3434 17.4086C18.4326 17.3769 18.5276 17.3656 18.6217 17.3753C18.8342 17.4001 19.6791 17.4047 19.8719 16.9967C19.9376 16.859 19.7268 16.6278 19.7245 16.6256L19.2237 16.1028C18.9639 16.1285 18.7016 16.0995 18.4536 16.0178C18.2056 15.9361 17.9775 15.8034 17.7838 15.6283C17.5063 15.3636 17.2886 15.0427 17.1453 14.6869C17.0021 14.3312 16.9366 13.9489 16.9534 13.5658C16.953 13.3729 16.9993 13.1828 17.0885 13.0118C17.1776 12.8408 17.3068 12.6939 17.4652 12.5837C18.0464 12.2622 18.6682 12.0201 19.3138 11.864L22.3139 11.2361L22.334 11.2325C22.3471 11.2294 22.3603 11.2268 22.3736 11.2246C22.6473 11.1807 22.9277 11.2072 23.1884 11.3016C23.449 11.396 23.6813 11.5553 23.8635 11.7643C23.8963 11.8028 23.9244 11.8451 23.9473 11.8902L26.1 16.1773C26.2888 16.4169 26.4233 16.6947 26.4942 16.9914C26.565 17.2882 26.5705 17.5968 26.5102 17.8959L26.1186 21.9266C26.1175 21.9382 26.1071 22.0102 26.1053 22.0212L25.7305 25.9701C25.7193 26.0881 25.6744 26.2005 25.6011 26.2937C25.5278 26.3869 25.4292 26.457 25.3171 26.4957C24.3668 26.8548 23.4542 27.3066 22.5926 27.8447C21.6911 28.4932 20.8355 29.2031 20.0317 29.9692C19.8942 30.0936 19.7838 30.2448 19.707 30.4135C19.6576 30.5205 19.5785 30.6111 19.4792 30.6746C19.3799 30.7381 19.2646 30.7718 19.1467 30.7717H19.1468ZM13.849 25.985C14.4204 26.6123 15.8544 27.3378 17.0081 27.9217C17.7594 28.2307 18.4601 28.6505 19.0869 29.1672C19.1238 29.1295 19.1619 29.0928 19.2009 29.0572C20.0582 28.2459 20.9694 27.4936 21.9283 26.8054C22.7592 26.2868 23.6325 25.8396 24.5389 25.4685L25.2861 17.7437C25.2883 17.72 25.2919 17.6964 25.2969 17.6732C25.3261 17.5403 25.3243 17.4025 25.2915 17.2704C25.2586 17.1384 25.1958 17.0158 25.1077 16.9121C25.0766 16.8751 25.0499 16.8347 25.0279 16.7915L22.8876 12.5287C22.8095 12.4663 22.7116 12.4343 22.6117 12.4384C22.5797 12.4465 22.5471 12.452 22.5141 12.4548L19.5879 13.0667C19.1053 13.1871 18.6376 13.3608 18.1934 13.5847C18.1886 13.6089 18.1853 13.6333 18.1835 13.6579C18.1789 13.8524 18.2139 14.0459 18.2864 14.2265C18.3588 14.4071 18.4672 14.5712 18.605 14.7086C18.6818 14.7807 18.7752 14.8327 18.8769 14.8602C18.9786 14.8876 19.0855 14.8897 19.1882 14.8661C19.2554 14.8516 19.3237 14.8412 19.3923 14.8347C19.504 14.8219 19.6171 14.84 19.7193 14.8869C19.8214 14.9339 19.9088 15.0079 19.9719 15.1009L20.6039 15.7612C20.8406 15.981 21.0042 16.2681 21.0726 16.5838C21.141 16.8995 21.1109 17.2286 20.9864 17.5267C20.8701 17.757 20.7069 17.9604 20.5072 18.1237C20.3075 18.2871 20.0758 18.4068 19.827 18.4751C19.9383 18.665 20.0108 18.8751 20.0404 19.0933C20.07 19.3114 20.0561 19.5332 19.9995 19.7459C19.9154 20.0359 19.749 20.2953 19.5205 20.4927C19.292 20.69 19.0112 20.8169 18.712 20.8579C18.7162 21.0871 18.6731 21.3148 18.5856 21.5266C18.089 22.7522 16.622 22.7345 15.7807 22.5222C15.7194 22.5134 15.6598 22.4952 15.604 22.4683C15.5175 22.4276 15.4416 22.3675 15.3822 22.2926C15.3227 22.2177 15.2814 22.1301 15.2613 22.0367C15.2514 21.9866 15.2273 21.9405 15.1919 21.9037C15.0025 21.7146 14.7809 21.5145 14.5432 21.3194C13.6174 20.4455 12.4811 19.8261 11.245 19.5215C11.1337 19.4939 11.019 19.4828 10.9045 19.4885C10.7926 19.4846 10.6818 19.5128 10.5853 19.5698C10.4888 19.6268 10.4106 19.7101 10.36 19.81C10.3029 19.9189 10.2709 20.0391 10.2661 20.1619C10.2613 20.2847 10.284 20.407 10.3323 20.52C10.559 20.8754 11.2868 22.0169 12.0337 23.1955L13.849 25.985Z" fill="#BEA182"/>
<path d="M27.3675 27.1026C26.8865 27.3615 20.9048 30.6298 19.5975 32.4675L19.5174 32.5107L19.1967 31.8939C18.7769 31.0978 18.9494 30.1185 19.6159 29.5136C20.4483 28.7262 21.3322 27.9948 22.2615 27.3245C23.1639 26.7601 24.1204 26.2871 25.1166 25.9125C25.2707 25.8631 25.4189 25.8137 25.5606 25.7767C25.743 25.7309 25.9347 25.7385 26.113 25.7987C26.2912 25.8588 26.4484 25.9688 26.5658 26.1158L27.3675 27.1026Z" fill="#E91E63"/>
<path d="M16.9087 22.6194L13.8132 25.9246L13.3816 26.3873H13.3754L12.9559 26.831L9.04003 31.0123C9.00189 31.0539 8.95295 31.0841 8.89868 31.0995C8.8444 31.1149 8.78691 31.1149 8.73262 31.0995C8.67824 31.0843 8.62918 31.0541 8.59095 31.0126C8.55271 30.971 8.5268 30.9196 8.51611 30.8641L8.13361 28.9587C8.12224 28.9029 8.09568 28.8513 8.05687 28.8096C8.01805 28.768 7.96849 28.7378 7.91363 28.7225C7.85878 28.7072 7.80076 28.7074 7.74599 28.7229C7.69121 28.7385 7.64179 28.7689 7.60318 28.8108L2.1827 34.6874C2.1318 34.7424 2.06274 34.7771 1.98824 34.7852C1.91375 34.7933 1.83883 34.7742 1.7773 34.7315C1.71577 34.6886 1.67175 34.6251 1.65335 34.5524C1.63495 34.4797 1.6434 34.4029 1.67714 34.3359L8.27561 21.6511C8.30397 21.5963 8.34824 21.5514 8.4026 21.5223C8.45695 21.4932 8.51885 21.4812 8.58014 21.488C8.6415 21.4946 8.69942 21.5196 8.74628 21.5598C8.79314 21.5999 8.82675 21.6533 8.84268 21.7129L9.71832 24.7591C9.7324 24.8117 9.7603 24.8596 9.79914 24.8978C9.83797 24.936 9.88632 24.9631 9.93917 24.9763C9.99202 24.9896 10.0474 24.9884 10.0997 24.973C10.1519 24.9575 10.1991 24.9284 10.2363 24.8886L11.075 23.9884L11.5129 23.5258L11.9631 23.0879L12.5737 22.4898L12.5799 22.496L13.2952 23.2051C13.5529 23.4368 13.8759 23.5833 14.2199 23.6246C14.3002 23.6308 14.3865 23.6308 14.4791 23.6308C14.9469 23.6461 15.4111 23.5443 15.8296 23.3346C16.0952 23.1668 16.297 22.915 16.4031 22.6194C16.5712 22.638 16.7408 22.638 16.9087 22.6194ZM34.9584 3.05886L28.1813 14.6767C28.1497 14.7323 28.1015 14.7767 28.0435 14.8038C27.9855 14.8309 27.9205 14.8392 27.8576 14.8277C27.7945 14.8163 27.7366 14.7855 27.6919 14.7397C27.6472 14.6938 27.6178 14.6352 27.608 14.5719L27.238 12.3334C27.2288 12.2763 27.2038 12.2229 27.1658 12.1794C27.1278 12.1358 27.0783 12.1039 27.023 12.0872C26.9676 12.0704 26.9087 12.0696 26.8529 12.0848C26.7971 12.1 26.7468 12.1306 26.7075 12.173L24.9993 13.9862L24.5491 14.4672L23.396 12.1668C23.2831 12.037 23.1388 11.9382 22.9769 11.8799C22.8151 11.8217 22.6409 11.8059 22.4712 11.834L23.0138 11.2542L27.9594 5.98785C27.9976 5.94622 28.0465 5.91601 28.1009 5.90061C28.1552 5.88521 28.2128 5.88521 28.2671 5.90062C28.3215 5.91595 28.3705 5.94609 28.4087 5.98766C28.4469 6.02923 28.4729 6.08061 28.4836 6.13606L28.8659 8.04148C28.8773 8.09728 28.9038 8.14886 28.9426 8.19053C28.9814 8.2322 29.031 8.26235 29.0859 8.27764C29.1407 8.29294 29.1987 8.2928 29.2535 8.27723C29.3083 8.26166 29.3577 8.23127 29.3963 8.18941L34.4653 2.695C34.5717 2.57923 34.7484 2.56232 34.8749 2.65576C35.0014 2.7492 35.0375 2.92278 34.9584 3.05886Z" fill="#FFEB3A"/>
<path d="M17.8861 20.9784C17.7278 20.9784 17.5756 20.9175 17.4609 20.8085L17.3217 20.6786C15.5959 19.0795 13.1233 17.0899 11.8335 16.7427C11.7266 16.7085 11.6143 16.6936 11.5021 16.6989C11.2371 16.7263 11.1826 16.8212 11.1589 16.8618C10.9616 17.2039 11.1854 18.0678 11.3988 18.5437C11.5388 18.8542 11.4008 19.2195 11.0906 19.3595C11.0168 19.3929 10.9371 19.4114 10.8561 19.414C10.7752 19.4165 10.6945 19.4031 10.6187 19.3745C10.543 19.3459 10.4736 19.3026 10.4145 19.2471C10.3555 19.1916 10.308 19.1251 10.2747 19.0513C10.1424 18.7593 9.51258 17.2519 10.0893 16.2481C10.2224 16.0223 10.4096 15.8332 10.634 15.6977C10.8585 15.5623 11.113 15.4848 11.3749 15.4722C11.6373 15.4498 11.9015 15.4769 12.1542 15.552C14.0483 16.0618 17.2295 18.9118 18.1596 19.773L18.3121 19.9156C18.4012 20.0006 18.4628 20.1104 18.4889 20.2308C18.5151 20.3511 18.5046 20.4765 18.4588 20.5909C18.4131 20.7053 18.3341 20.8033 18.2322 20.8724C18.1302 20.9415 18.0098 20.9784 17.8866 20.9784H17.8861Z" fill="black"/>
<path d="M18.9096 18.9296C18.7682 18.9295 18.6312 18.8808 18.5215 18.7915C17.677 18.0772 16.8734 17.3158 16.1147 16.511C14.635 14.9674 13.942 14.5589 13.1541 14.7551C13.0705 14.7678 12.9908 14.7987 12.9206 14.8458C12.8504 14.8928 12.7914 14.9548 12.7479 15.0272C12.7045 15.0997 12.6775 15.1809 12.6691 15.265C12.6607 15.3491 12.6709 15.434 12.6991 15.5136C12.7349 15.6709 12.7076 15.8359 12.6232 15.9733C12.5388 16.1107 12.4039 16.2096 12.2475 16.2488C12.091 16.288 11.9254 16.2643 11.7862 16.1829C11.647 16.1015 11.5453 15.9687 11.5027 15.8132C11.4342 15.5092 11.4329 15.194 11.4987 14.8895C11.5707 14.5597 11.7374 14.2581 11.9783 14.0217C12.2192 13.7853 12.5238 13.6243 12.8549 13.5585C14.4504 13.161 15.6777 14.2727 17.0051 15.6573C17.7294 16.4244 18.4954 17.1511 19.2995 17.834C19.3983 17.9144 19.4698 18.0235 19.5041 18.1461C19.5385 18.2688 19.534 18.3991 19.4913 18.5191C19.4486 18.6392 19.3698 18.743 19.2657 18.8165C19.1616 18.8899 19.0373 18.9293 18.9099 18.9293L18.9096 18.9296ZM11.5134 24.1426C11.4094 24.1427 11.307 24.1165 11.2158 24.0664C11.1247 24.0163 11.0477 23.9439 10.992 23.8561C10.4577 23.0132 9.92217 22.1711 9.38554 21.3296L9.29095 21.1811C9.1269 20.8862 9.0385 20.5551 9.03363 20.2177C9.02876 19.8802 9.10758 19.5467 9.26305 19.2472C9.40781 18.9607 9.62652 18.7182 9.89653 18.5448C10.1665 18.3713 10.478 18.2732 10.7987 18.2606C11.0357 18.2405 11.2749 18.2591 11.5061 18.3159C12.9328 18.6625 14.2473 19.3677 15.3251 20.3648C15.5856 20.5785 15.8358 20.8046 16.0746 21.0422C16.2495 21.2211 16.3775 21.4403 16.4475 21.6805C16.5174 21.9207 16.527 22.1744 16.4755 22.4192C16.3878 22.7979 16.1554 23.1272 15.828 23.3367C15.3284 23.5768 14.7725 23.6754 14.2208 23.6218C13.8765 23.5831 13.5533 23.4364 13.2975 23.2026L12.5799 22.498C12.5015 22.4224 12.4446 22.3274 12.4148 22.2227C12.3851 22.1179 12.3836 22.0072 12.4105 21.9017C12.4374 21.7962 12.4918 21.6997 12.5681 21.622C12.6444 21.5443 12.74 21.4882 12.845 21.4594C12.9499 21.4306 13.0607 21.4301 13.1659 21.458C13.2711 21.4858 13.3671 21.5411 13.4441 21.6181L14.1472 22.3088C14.2043 22.3565 14.2742 22.3865 14.3481 22.3949C14.6297 22.4152 14.9126 22.3786 15.1798 22.2874C15.2282 22.2517 15.2618 22.1995 15.274 22.1406C15.2801 22.097 15.2758 22.0527 15.2613 22.0111C15.2468 21.9696 15.2227 21.9321 15.1908 21.9018C15.003 21.7149 14.7818 21.5148 14.5444 21.3189C13.618 20.4454 12.4817 19.8262 11.2455 19.5213C11.1343 19.4938 11.0196 19.4827 10.9051 19.4885C10.7932 19.4846 10.6824 19.5128 10.5859 19.5697C10.4894 19.6267 10.4112 19.7101 10.3606 19.81C10.3037 19.9189 10.2717 20.039 10.2669 20.1618C10.2621 20.2845 10.2847 20.4067 10.3329 20.5197L10.4261 20.6662C10.7225 21.1314 11.3712 22.1488 12.0342 23.1953C12.0933 23.2885 12.1262 23.3959 12.1296 23.5062C12.1331 23.6165 12.1069 23.7258 12.0537 23.8225C12.0005 23.9192 11.9224 23.9998 11.8275 24.0559C11.7325 24.1121 11.6243 24.1419 11.514 24.142L11.5134 24.1426ZM18.9997 30.7038C18.905 30.7039 18.8116 30.6822 18.7267 30.6404C18.6417 30.5986 18.5676 30.5378 18.5099 30.4627C18.3541 30.2592 18.2324 30.0958 18.1511 29.9668C17.6096 29.6085 17.0412 29.2926 16.451 29.022C15.151 28.3639 13.68 27.6198 12.9506 26.8297C12.8623 26.7447 12.8014 26.6352 12.7756 26.5154C12.7499 26.3956 12.7605 26.2708 12.806 26.157C12.8517 26.0432 12.9303 25.9457 13.0317 25.8769C13.1332 25.808 13.2528 25.771 13.3754 25.7705C13.4629 25.7705 13.5495 25.7887 13.6296 25.824C13.7097 25.8593 13.7815 25.9109 13.8406 25.9755C14.4057 26.6044 15.8485 27.335 17.0079 27.9213C18.3053 28.5782 18.9401 28.911 19.1919 29.3048C19.2603 29.4129 19.361 29.5456 19.4886 29.7116C19.5587 29.8029 19.6018 29.912 19.6131 30.0265C19.6245 30.141 19.6035 30.2565 19.5526 30.3597C19.5017 30.4629 19.423 30.5499 19.3253 30.6107C19.2276 30.6715 19.1148 30.7037 18.9997 30.7038Z" fill="black"/>
<path d="M16.8667 22.614C16.6457 22.6143 16.4252 22.5922 16.2087 22.5479C16.0497 22.512 15.9113 22.4147 15.8239 22.2771C15.7365 22.1395 15.707 21.9729 15.7421 21.8137C15.7771 21.6546 15.8738 21.5158 16.0109 21.4276C16.148 21.3395 16.3144 21.3092 16.4738 21.3434C16.4819 21.3456 17.3362 21.4933 17.4084 21.1661C17.4439 21.0358 17.4556 20.9001 17.4428 20.7656C17.3129 20.6942 17.213 20.5783 17.1615 20.4392C17.11 20.3002 17.1104 20.1472 17.1625 20.0084C17.2147 19.8696 17.3151 19.7542 17.4454 19.6834C17.5757 19.6126 17.7271 19.5911 17.8719 19.6228C18.1234 19.6861 18.3402 19.8456 18.4754 20.0669C18.5877 20.2742 18.6577 20.5017 18.6812 20.7363C18.7047 20.9708 18.6813 21.2077 18.6124 21.4332C18.5336 21.761 18.3481 22.0534 18.0851 22.2645C17.8222 22.4756 17.4966 22.5933 17.1594 22.5993C17.0621 22.6091 16.9644 22.6143 16.8667 22.614H16.8667Z" fill="black"/>
<path d="M18.2654 20.8918C18.0444 20.8921 17.8239 20.8698 17.6074 20.8255C17.4492 20.7888 17.3119 20.6913 17.2252 20.554C17.1386 20.4168 17.1095 20.2509 17.1445 20.0923C17.2173 19.7624 17.5419 19.5521 17.8728 19.6212C17.8843 19.6229 18.7352 19.77 18.8074 19.4437C18.843 19.3135 18.8546 19.1777 18.8416 19.0433C18.7117 18.9719 18.612 18.856 18.5605 18.717C18.5091 18.5779 18.5095 18.425 18.5616 18.2863C18.6136 18.1474 18.7139 18.032 18.8442 17.9612C18.9744 17.8904 19.1259 17.8689 19.2707 17.9007C19.5222 17.9639 19.739 18.1232 19.8745 18.3444C19.9868 18.5517 20.0566 18.7793 20.0801 19.0139C20.1035 19.2485 20.0801 19.4855 20.0111 19.7109C19.9324 20.0388 19.7469 20.3312 19.484 20.5422C19.221 20.7533 18.8953 20.871 18.5582 20.8768C18.4611 20.887 18.3634 20.8918 18.2654 20.8918ZM14.0794 14.4367C13.9744 14.4365 13.8711 14.4095 13.7794 14.3582C13.6878 14.307 13.6107 14.2331 13.5556 14.1437C13.5006 14.0543 13.4692 13.9522 13.4646 13.8473C13.4601 13.7424 13.4824 13.638 13.5294 13.5441C13.866 12.8757 14.76 11.8148 15.9891 12.0889C16.7175 12.2882 17.3926 12.6467 17.9656 13.1385C18.2336 13.3488 18.2801 13.7366 18.0698 14.0045C17.8595 14.2724 17.4717 14.319 17.2038 14.1087C16.7734 13.7344 16.2682 13.4562 15.7218 13.2926C15.1337 13.1661 14.6344 14.0918 14.6295 14.1011C14.5775 14.2022 14.4987 14.287 14.4016 14.3462C14.3046 14.4054 14.1931 14.4367 14.0794 14.4367Z" fill="black"/>
<path d="M19.2868 18.5778C19.0658 18.5781 18.8454 18.5559 18.629 18.5115C18.5219 18.4895 18.4227 18.4393 18.3414 18.3663C18.2601 18.2932 18.1997 18.1998 18.1664 18.0957C18.1331 17.9916 18.128 17.8806 18.1518 17.7739C18.1755 17.6672 18.2271 17.5688 18.3014 17.4886C18.3756 17.4084 18.4699 17.3494 18.5744 17.3176C18.6789 17.2858 18.7901 17.2823 18.8964 17.3076C18.9017 17.3084 19.7553 17.4564 19.8285 17.1298C19.8643 16.9987 19.8759 16.8622 19.8626 16.7269C19.8082 16.6966 19.7586 16.6584 19.7155 16.6135L19.0189 15.8843C18.9414 15.8066 18.886 15.7097 18.8585 15.6035C18.831 15.4973 18.8324 15.3857 18.8625 15.2802C18.8925 15.1746 18.9501 15.079 19.0294 15.0032C19.1086 14.9273 19.2067 14.874 19.3135 14.8487C19.4203 14.8235 19.5319 14.8272 19.6367 14.8594C19.7416 14.8917 19.8359 14.9514 19.91 15.0323L20.5339 15.6844C20.8325 15.8566 21.2754 16.3034 21.0327 17.3971C20.9539 17.7249 20.7684 18.0173 20.5054 18.2283C20.2425 18.4393 19.9168 18.557 19.5797 18.5629C19.4824 18.573 19.3847 18.5778 19.2868 18.5778ZM32.4303 36.9999H22.2767C21.9378 37.0006 21.6052 36.9078 21.3155 36.7318C21.0259 36.5557 20.7904 36.3032 20.6349 36.002L18.6493 32.1784C18.0997 31.1337 18.327 29.8496 19.2015 29.0569C20.0587 28.2459 20.9697 27.4937 21.9283 26.8054C23.0133 26.1207 24.18 25.5752 25.4011 25.1816C25.6983 25.104 26.0117 25.1142 26.3033 25.2109C26.595 25.3077 26.8523 25.4869 27.0442 25.7268L33.1594 33.2575C33.9959 34.2801 33.9196 35.7702 32.9836 36.7024L32.983 36.7029L32.8656 36.82C32.75 36.9352 32.5935 36.9999 32.4303 36.9999ZM25.8024 26.3619C25.7753 26.3618 25.7484 26.3653 25.7222 26.3723C24.6229 26.735 23.5718 27.2297 22.5917 27.8456C21.6905 28.4938 20.8352 29.2034 20.0316 29.9692C19.8085 30.1712 19.6589 30.4418 19.6065 30.7382C19.5541 31.0346 19.6019 31.34 19.7422 31.6062L21.7298 35.434C21.7816 35.5344 21.86 35.6186 21.9565 35.6774C22.0531 35.7361 22.1639 35.767 22.2769 35.7668H32.1712C32.6042 35.276 32.6178 34.5434 32.203 34.0368L26.087 26.505C26.0532 26.4615 26.0101 26.4261 25.9609 26.4014C25.9116 26.3766 25.8576 26.3632 25.8025 26.3619H25.8024ZM21.661 26.0706C21.5667 26.0706 21.4736 26.0489 21.3892 26.0068C19.8113 25.2294 18.9644 22.1157 18.8732 21.7632C18.8355 21.6061 18.861 21.4405 18.9442 21.302C19.0274 21.1635 19.1617 21.0632 19.318 21.0227C19.4744 20.9821 19.6403 21.0045 19.7803 21.085C19.9204 21.1655 20.0232 21.2977 20.0667 21.4532C20.3586 22.5739 21.1232 24.5011 21.934 24.9005C22.059 24.962 22.1594 25.064 22.219 25.1899C22.2786 25.3158 22.2938 25.4582 22.2621 25.5938C22.2305 25.7294 22.1538 25.8503 22.0447 25.9369C21.9356 26.0234 21.8004 26.0704 21.6611 26.0703L21.661 26.0706Z" fill="black"/>
<path d="M19.5971 33.0814C19.4839 33.0813 19.373 33.05 19.2764 32.991C19.1799 32.932 19.1014 32.8476 19.0496 32.7469C18.9978 32.6463 18.9747 32.5334 18.9827 32.4205C18.9908 32.3077 19.0298 32.1992 19.0954 32.107C20.5015 30.1321 26.4338 26.901 27.1059 26.5389C27.2499 26.4614 27.4188 26.4443 27.5755 26.4913C27.7321 26.5383 27.8637 26.6456 27.9412 26.7896C28.0187 26.9336 28.0359 27.1025 27.9889 27.2591C27.9419 27.4158 27.8345 27.5473 27.6905 27.6249C25.9352 28.5705 21.1491 31.3482 20.0996 32.8226C20.0426 32.9027 19.9672 32.968 19.8798 33.013C19.7924 33.0581 19.6954 33.0815 19.5971 33.0814ZM27.7498 16.0333C27.6039 16.0332 27.4628 15.9814 27.3514 15.887C27.2401 15.7927 27.1658 15.662 27.1418 15.5181L26.7296 13.0467L24.9989 14.8892C24.9248 14.9681 24.8313 15.0262 24.7277 15.0574C24.6241 15.0887 24.514 15.0921 24.4087 15.0673C24.3033 15.0426 24.2062 14.9906 24.1273 14.9166C24.0484 14.8425 23.9903 14.7489 23.959 14.6453C23.9278 14.5417 23.9244 14.4316 23.9491 14.3262C23.9738 14.2209 24.0258 14.1239 24.0999 14.0449L26.6836 11.2946C26.7623 11.2108 26.8628 11.1507 26.9739 11.1211C27.0849 11.0914 27.202 11.0933 27.312 11.1266C27.422 11.16 27.5205 11.2234 27.5963 11.3097C27.6722 11.396 27.7224 11.5019 27.7413 11.6152L28.0775 13.6311L33.0026 5.18815L29.4365 9.05145C29.3593 9.13506 29.2606 9.19571 29.1511 9.2267C29.0417 9.25769 28.9258 9.25782 28.8163 9.22706C28.7069 9.19626 28.6081 9.13584 28.5308 9.05247C28.4536 8.9691 28.4008 8.86602 28.3784 8.75459L27.9965 6.84548L22.9207 12.2558L22.0183 11.4151L22.0245 11.4089L27.9167 5.12831C27.9942 5.04568 28.0929 4.98598 28.2021 4.95575C28.3113 4.92553 28.4267 4.92595 28.5357 4.95697C28.6446 4.98809 28.7429 5.04859 28.8197 5.13184C28.8965 5.21508 28.9489 5.31787 28.9712 5.42894L29.3506 7.32648L35.9299 0.198443C36.033 0.0867561 36.1737 0.0170691 36.3251 0.00274613C36.4764 -0.0115768 36.6277 0.0304725 36.7499 0.12083C36.8721 0.211245 36.9566 0.34358 36.9873 0.492462C37.0179 0.641343 36.9925 0.796292 36.9159 0.9276L28.2825 15.7275C28.2282 15.8206 28.1504 15.8978 28.057 15.9515C27.9635 16.0051 27.8576 16.0333 27.7499 16.0333H27.7498ZM0.616692 36.9999C0.51078 36.9998 0.406665 36.9725 0.314382 36.9205C0.222098 36.8685 0.144758 36.7937 0.0898159 36.7031C0.0348738 36.6126 0.00418231 36.5094 0.000699691 36.4036C-0.00278293 36.2977 0.0210608 36.1927 0.0699325 36.0988L8.08654 20.6823C8.14341 20.5728 8.23185 20.4829 8.34042 20.4242C8.44898 20.3655 8.57267 20.3408 8.69545 20.3532C8.81822 20.3656 8.93445 20.4146 9.02912 20.4937C9.12378 20.5729 9.19252 20.6786 9.22646 20.7972L10.1608 24.0675L11.0633 23.1044L12.5803 21.6179C12.8233 21.3793 13.2138 21.3835 13.4522 21.6269C13.6905 21.8699 13.6866 22.2607 13.4432 22.4989L11.9449 23.9665L10.3167 25.7051C10.2421 25.7847 10.1478 25.8431 10.0433 25.8744C9.93882 25.9056 9.82791 25.9086 9.72191 25.8829C9.61583 25.8573 9.51844 25.804 9.43968 25.7285C9.36092 25.6529 9.3036 25.5579 9.27357 25.4529L8.46594 22.6256L3.29116 32.577L7.56356 27.9484C7.64071 27.8649 7.73942 27.8044 7.84879 27.7735C7.95817 27.7426 8.07396 27.7425 8.18338 27.7732C8.2928 27.804 8.39161 27.8644 8.46888 27.9477C8.54616 28.0311 8.59891 28.1341 8.62131 28.2456L9.00265 30.1536L12.9253 25.9656C12.9426 25.9472 12.9609 25.93 12.9804 25.9139L22.0642 16.223C22.1547 16.1193 22.2772 16.0486 22.4123 16.0221C22.5474 15.9956 22.6874 16.0149 22.8104 16.0768C22.8825 16.1128 22.9468 16.1628 22.9995 16.2238C23.0522 16.2848 23.0923 16.3556 23.1175 16.4322C23.1428 16.5088 23.1526 16.5896 23.1464 16.6699C23.1403 16.7503 23.1182 16.8287 23.0816 16.9005L23.0755 16.9129C23.0491 16.9641 23.0159 17.0114 22.9766 17.0535L13.8316 26.8088C13.8147 26.8273 13.7964 26.8446 13.7769 26.8604L9.0833 31.8715C9.00585 31.9542 8.90711 32.014 8.79793 32.0442C8.68875 32.0744 8.57335 32.074 8.4644 32.0429C8.35545 32.0119 8.25717 31.9514 8.18035 31.8681C8.10353 31.7848 8.05115 31.682 8.02895 31.5709L7.64934 29.674L1.06972 36.8014C1.01203 36.864 0.941969 36.914 0.863979 36.9481C0.785989 36.9823 0.701761 36.9999 0.61662 36.9999H0.616692Z" fill="black"/>
<path d="M25.117 26.529C25.0311 26.5291 24.9462 26.5112 24.8676 26.4766C24.7889 26.4419 24.7185 26.3912 24.6606 26.3277C24.6027 26.2642 24.5588 26.1893 24.5316 26.1078C24.5043 26.0264 24.4944 25.9401 24.5025 25.8546L25.2859 17.7437C25.2879 17.72 25.2915 17.6963 25.2966 17.6728C25.326 17.5401 25.3242 17.4024 25.2914 17.2704C25.2586 17.1385 25.1958 17.0159 25.1077 16.9123C25.0764 16.8752 25.0495 16.8345 25.0276 16.7912L22.887 12.5284C22.8089 12.4662 22.711 12.4341 22.6112 12.4381C22.5794 12.4463 22.5469 12.4519 22.5141 12.4547L19.5877 13.0668C19.104 13.1872 18.6354 13.3614 18.1906 13.5862C18.1613 13.9412 18.2654 14.2943 18.4825 14.5767C18.5559 14.6915 18.6629 14.7809 18.7889 14.8326C18.915 14.8844 19.0539 14.8961 19.1868 14.8661C20.7557 14.5739 21.8846 14.7173 22.5477 15.2909C22.7433 15.4591 22.8983 15.6694 23.0012 15.9059C23.1041 16.1424 23.1523 16.3991 23.1422 16.6569C23.1389 16.7401 23.1188 16.8218 23.0832 16.8971C23.0476 16.9724 22.9971 17.0397 22.9349 17.095C22.8726 17.1503 22.7998 17.1925 22.7208 17.219C22.6419 17.2455 22.5584 17.2558 22.4753 17.2493C22.3923 17.2427 22.3114 17.2195 22.2376 17.181C22.1637 17.1424 22.0985 17.0893 22.0456 17.025C21.9928 16.9606 21.9535 16.8862 21.9301 16.8062C21.9067 16.7263 21.8997 16.6425 21.9095 16.5597C21.9054 16.4951 21.8883 16.4319 21.8592 16.3741C21.83 16.3162 21.7895 16.2648 21.7401 16.223C21.575 16.0802 21.0174 15.7801 19.414 16.0782C18.4133 16.2458 17.4426 15.6491 17.14 14.6808C16.8528 13.9531 16.8323 12.9863 17.4657 12.5837C18.0468 12.2623 18.6684 12.0203 19.3138 11.8642L22.3139 11.2364L22.3337 11.2328C22.3467 11.2299 22.36 11.2271 22.3733 11.2251C22.647 11.1811 22.9274 11.2076 23.1881 11.302C23.4487 11.3963 23.6811 11.5555 23.8632 11.7646C23.8962 11.803 23.9244 11.8453 23.9473 11.8905L26.0997 16.1772C26.2886 16.4168 26.4231 16.6946 26.494 16.9914C26.5649 17.2881 26.5704 17.5968 26.5102 17.8959L26.1186 21.9266C26.1175 21.9382 26.1071 22.0101 26.1053 22.0212L25.7305 25.9701C25.7161 26.1228 25.6453 26.2648 25.5318 26.3681C25.4184 26.4715 25.2705 26.5288 25.117 26.529ZM32.4303 36.9998H22.2798C22.1163 36.9998 21.9595 36.9349 21.8439 36.8193C21.7283 36.7037 21.6633 36.5469 21.6633 36.3833C21.6632 36.3024 21.6792 36.2222 21.7102 36.1473C21.7411 36.0725 21.7865 36.0045 21.8438 35.9472C21.9011 35.89 21.969 35.8445 22.0438 35.8135C22.1187 35.7825 22.1988 35.7666 22.2798 35.7666H32.4302C32.7707 35.7666 33.0468 36.0426 33.0468 36.3833C33.0468 36.7237 32.7707 36.9998 32.4303 36.9998Z" fill="black"/>
</g>
<path d="M58.412 31.8678C58.3186 31.1024 58.244 30.2718 58.188 29.3758C58.1506 28.4611 58.132 27.6118 58.132 26.8278C58.132 25.5771 58.1693 24.3824 58.244 23.2438C58.3373 22.0864 58.44 20.8824 58.552 19.6318C58.6826 18.3624 58.8226 16.9904 58.972 15.5158C59.1213 14.0224 59.252 12.3051 59.364 10.3638C59.6066 10.3638 59.952 10.4384 60.4 10.5878C60.8666 10.7184 61.3333 10.8771 61.8 11.0638C62.2666 11.2504 62.6773 11.4464 63.032 11.6518C63.3866 11.8384 63.592 11.9971 63.648 12.1278C63.3306 12.8558 63.0413 13.8171 62.78 15.0118C62.5373 16.1878 62.332 17.4758 62.164 18.8758C61.996 20.2758 61.8653 21.7131 61.772 23.1878C61.6786 24.6624 61.632 26.0438 61.632 27.3318C61.632 27.9291 61.6413 28.5171 61.66 29.0958C61.6786 29.6744 61.7066 30.2064 61.744 30.6918C62.136 30.1131 62.584 29.2918 63.088 28.2278C63.6106 27.1451 64.1426 25.9411 64.684 24.6158C65.244 23.2904 65.7946 21.9091 66.336 20.4718C66.896 19.0158 67.4093 17.6344 67.876 16.3278C68.3426 15.0024 68.7346 13.8171 69.052 12.7718C69.388 11.7078 69.6213 10.9051 69.752 10.3638C69.9946 10.3638 70.3493 10.4384 70.816 10.5878C71.3013 10.7184 71.768 10.8771 72.216 11.0638C72.6826 11.2504 73.0933 11.4464 73.448 11.6518C73.8026 11.8384 73.9986 11.9971 74.036 12.1278C73.7186 12.8558 73.4293 13.8171 73.168 15.0118C72.9253 16.1878 72.72 17.4758 72.552 18.8758C72.384 20.2758 72.2533 21.7131 72.16 23.1878C72.0666 24.6624 72.02 26.0438 72.02 27.3318C72.02 27.8731 72.02 28.4144 72.02 28.9558C72.0386 29.4784 72.0666 29.9544 72.104 30.3838C72.7013 28.8344 73.3173 27.3038 73.952 25.7918C74.6053 24.2611 75.2493 22.8051 75.884 21.4238C76.5186 20.0238 77.1346 18.7264 77.732 17.5318C78.3293 16.3184 78.88 15.2451 79.384 14.3118C79.888 13.3598 80.3266 12.5758 80.7 11.9598C81.0733 11.3438 81.3626 10.9331 81.568 10.7278C81.9973 10.7838 82.436 10.9424 82.884 11.2038C83.3506 11.4464 83.7613 11.7638 84.116 12.1558C83.5746 12.5851 82.9586 13.2944 82.268 14.2838C81.5773 15.2544 80.868 16.3838 80.14 17.6718C79.412 18.9598 78.6746 20.3318 77.928 21.7878C77.2 23.2438 76.5186 24.6624 75.884 26.0438C75.2493 27.4251 74.68 28.7131 74.176 29.9078C73.6906 31.1024 73.3173 32.0638 73.056 32.7918C72.5706 33.0158 72.0946 33.1278 71.628 33.1278C71.0306 33.0531 70.4613 32.9038 69.92 32.6798C69.3973 32.4558 69.024 32.1851 68.8 31.8678C68.744 31.5691 68.6973 31.2238 68.66 30.8318C68.6226 30.4211 68.5946 30.0198 68.576 29.6278C68.5573 29.2358 68.5386 28.8624 68.52 28.5078C68.52 28.1344 68.52 27.8171 68.52 27.5558C68.52 25.8944 68.5853 24.2051 68.716 22.4878C68.8466 20.7518 69.0053 18.8944 69.192 16.9158C68.7626 18.1851 68.2866 19.5478 67.764 21.0038C67.2413 22.4598 66.6906 23.9064 66.112 25.3438C65.552 26.7624 64.9733 28.1251 64.376 29.4318C63.7973 30.7198 63.228 31.8398 62.668 32.7918C62.1826 33.0158 61.7066 33.1278 61.24 33.1278C60.6426 33.0531 60.0733 32.9038 59.532 32.6798C59.0093 32.4558 58.636 32.1851 58.412 31.8678Z" fill="white"/>
<path d="M90.0603 19.4078C89.9856 20.5651 89.7803 21.5638 89.4443 22.4038C89.1083 23.2251 88.6229 23.9531 87.9883 24.5878C87.3723 25.2038 86.6163 25.7638 85.7203 26.2678C84.8243 26.7718 83.7789 27.2571 82.5843 27.7238C82.5843 27.8358 82.5749 27.9571 82.5563 28.0878C82.5563 28.1998 82.5563 28.3211 82.5563 28.4518C82.5563 28.6944 82.5749 28.9464 82.6123 29.2078C82.6496 29.4691 82.7149 29.7118 82.8083 29.9358C82.9016 30.1598 83.0323 30.3464 83.2003 30.4958C83.3683 30.6264 83.5829 30.6918 83.8443 30.6918C84.3483 30.6918 84.8429 30.5798 85.3283 30.3558C85.8136 30.1318 86.2709 29.8611 86.7003 29.5438C87.1483 29.2078 87.5589 28.8531 87.9323 28.4798C88.3243 28.0878 88.6696 27.7331 88.9683 27.4158C89.1549 27.5838 89.3136 27.7424 89.4443 27.8918C88.6043 29.0118 87.6803 29.9451 86.6723 30.6918C85.6829 31.4198 84.7403 31.8864 83.8443 32.0918C82.5563 31.9424 81.5483 31.4758 80.8203 30.6918C80.1109 29.8891 79.7563 28.9278 79.7563 27.8078C79.7563 27.0424 79.8589 26.2678 80.0643 25.4838C80.2883 24.6811 80.5869 23.9158 80.9603 23.1878C81.3523 22.4411 81.8003 21.7411 82.3043 21.0878C82.8269 20.4344 83.3776 19.8651 83.9563 19.3798C84.5536 18.8944 85.1603 18.5118 85.7763 18.2318C86.4109 17.9518 87.0363 17.8118 87.6523 17.8118C88.5109 17.9238 89.3136 18.4558 90.0603 19.4078ZM88.1283 20.3318C87.6243 20.4064 87.1016 20.6118 86.5603 20.9478C86.0189 21.2838 85.5056 21.7318 85.0203 22.2918C84.5536 22.8518 84.1243 23.5051 83.7323 24.2518C83.3403 24.9984 83.0323 25.8011 82.8083 26.6598C84.3016 25.9131 85.5429 24.9984 86.5323 23.9158C87.5216 22.8144 88.0536 21.6198 88.1283 20.3318Z" fill="white"/>
<path d="M101.017 19.6878C101.203 19.6878 101.418 19.7251 101.661 19.7998C101.922 19.8558 102.155 19.9398 102.361 20.0518C102.566 20.1451 102.734 20.2478 102.865 20.3598C103.014 20.4718 103.089 20.5744 103.089 20.6678C102.715 21.4518 102.37 22.2451 102.053 23.0478C101.735 23.8318 101.465 24.5878 101.241 25.3158C101.017 26.0438 100.839 26.7251 100.709 27.3598C100.597 27.9944 100.541 28.5451 100.541 29.0118C100.541 29.5344 100.597 29.9731 100.709 30.3278C100.821 30.6638 101.007 30.9064 101.269 31.0558C101.045 31.2051 100.755 31.3264 100.401 31.4198C100.046 31.5131 99.7286 31.5598 99.4486 31.5598C98.4406 31.5598 97.9366 30.8691 97.9366 29.4878C97.9366 28.4238 98.2913 26.9678 99.0006 25.1198C98.6273 25.9784 98.1979 26.7904 97.7126 27.5558C97.2272 28.3024 96.7326 28.9651 96.2286 29.5438C95.7246 30.1224 95.2113 30.5984 94.6886 30.9718C94.1846 31.3264 93.7179 31.5411 93.2886 31.6158C92.5979 31.5784 92.0379 31.2518 91.6086 30.6358C91.1792 30.0011 90.9646 29.1984 90.9646 28.2278C90.9646 27.1824 91.1886 26.0811 91.6366 24.9238C92.0846 23.7664 92.6539 22.6931 93.3446 21.7038C94.0539 20.7144 94.8192 19.8931 95.6406 19.2398C96.4619 18.5678 97.2552 18.2131 98.0206 18.1758C98.2073 18.2318 98.4126 18.3438 98.6366 18.5118C98.8792 18.6798 99.1032 18.8758 99.3086 19.0998C99.5326 19.3238 99.7192 19.5571 99.8686 19.7998C100.018 20.0238 100.102 20.2198 100.121 20.3878C99.3739 20.4998 98.5993 20.8638 97.7966 21.4798C97.0126 22.0958 96.2939 22.8424 95.6406 23.7198C95.0059 24.5784 94.4832 25.5024 94.0726 26.4918C93.6619 27.4811 93.4566 28.4051 93.4566 29.2638C93.4566 29.6184 93.5872 29.8424 93.8486 29.9358C94.3899 29.8238 95.0152 29.3664 95.7246 28.5638C96.4339 27.7424 97.2926 26.4824 98.3006 24.7838C98.4873 24.4478 98.6926 24.0744 98.9166 23.6638C99.1593 23.2531 99.4019 22.8238 99.6446 22.3758C99.8873 21.9278 100.121 21.4798 100.345 21.0318C100.587 20.5651 100.811 20.1171 101.017 19.6878Z" fill="white"/>
<path d="M105.696 20.2758C105.603 20.1638 105.519 19.9304 105.444 19.5758C105.369 19.2024 105.332 18.8851 105.332 18.6238C105.817 18.6611 106.284 18.6984 106.732 18.7358C107.18 18.7544 107.591 18.7731 107.964 18.7918C108.244 18.2318 108.543 17.6811 108.86 17.1398C109.196 16.5798 109.513 16.0758 109.812 15.6278C110.129 15.1611 110.419 14.7691 110.68 14.4518C110.96 14.1344 111.175 13.9291 111.324 13.8358C111.511 13.8358 111.744 13.8731 112.024 13.9478C112.323 14.0038 112.621 14.0878 112.92 14.1998C113.219 14.2931 113.489 14.3958 113.732 14.5078C113.975 14.6198 114.143 14.7318 114.236 14.8438C113.676 15.5531 113.191 16.2158 112.78 16.8318C112.388 17.4291 111.959 18.1198 111.492 18.9038C111.865 18.9038 112.239 18.8944 112.612 18.8758C113.004 18.8571 113.396 18.8291 113.788 18.7918C113.881 18.8851 113.956 19.0064 114.012 19.1558C114.068 19.2864 114.096 19.4264 114.096 19.5758C113.181 19.9118 112.071 20.0984 110.764 20.1358C110.297 21.0318 109.877 21.9278 109.504 22.8238C109.149 23.7011 108.841 24.5504 108.58 25.3718C108.337 26.1931 108.141 26.9678 107.992 27.6958C107.861 28.4238 107.796 29.0771 107.796 29.6558C107.796 30.4771 108.104 30.9344 108.72 31.0278C109.28 30.9531 109.812 30.8131 110.316 30.6078C110.82 30.4024 111.268 30.1411 111.66 29.8238C111.772 29.9918 111.837 30.1318 111.856 30.2438C111.744 30.4118 111.548 30.6078 111.268 30.8318C111.007 31.0558 110.717 31.2704 110.4 31.4758C110.083 31.6998 109.775 31.8864 109.476 32.0358C109.177 32.1851 108.953 32.2691 108.804 32.2878C108.337 32.2691 107.871 32.1664 107.404 31.9798C106.937 31.7931 106.508 31.5598 106.116 31.2798C105.743 30.9998 105.435 30.6918 105.192 30.3558C104.949 30.0011 104.828 29.6558 104.828 29.3198C104.828 28.8718 104.884 28.3118 104.996 27.6398C105.127 26.9491 105.304 26.2024 105.528 25.3998C105.752 24.5971 106.013 23.7571 106.312 22.8798C106.611 22.0024 106.937 21.1344 107.292 20.2758H105.696Z" fill="white"/>
<path d="M113.86 30.5238C113.86 29.8704 113.925 29.1051 114.056 28.2278C114.186 27.3318 114.373 26.3798 114.616 25.3718C114.877 24.3638 115.176 23.3091 115.512 22.2078C115.867 21.1064 116.258 20.0051 116.688 18.9038C117.061 17.9144 117.491 16.9158 117.976 15.9078C118.48 14.8998 119.021 13.9104 119.6 12.9398C120.179 11.9691 120.776 11.0451 121.392 10.1678C122.027 9.29043 122.661 8.48777 123.296 7.75977C123.594 7.75977 123.912 7.7971 124.248 7.87177C124.603 7.94643 124.939 8.0491 125.256 8.17977C125.592 8.29177 125.891 8.43177 126.152 8.59977C126.432 8.76777 126.656 8.93577 126.824 9.10377C125.424 10.5411 124.164 11.9971 123.044 13.4718C121.924 14.9278 121.037 16.2998 120.384 17.5878C120.029 18.2971 119.702 18.9598 119.404 19.5758C119.124 20.1918 118.862 20.8078 118.62 21.4238C118.377 22.0211 118.153 22.6278 117.948 23.2438C117.761 23.8411 117.584 24.4758 117.416 25.1478C121 20.5744 123.66 18.2878 125.396 18.2878C125.881 18.2878 126.404 18.4464 126.964 18.7638C127.524 19.0811 128.018 19.5104 128.448 20.0518C127.869 20.6864 127.272 21.4518 126.656 22.3478C126.04 23.2438 125.47 24.1491 124.948 25.0638C124.444 25.9598 124.024 26.7998 123.688 27.5838C123.37 28.3491 123.212 28.9184 123.212 29.2918C123.212 29.4784 123.24 29.6091 123.296 29.6838C123.352 29.7398 123.473 29.7678 123.66 29.7678C123.94 29.7678 124.164 29.7304 124.332 29.6558C124.5 29.5811 124.603 29.5438 124.64 29.5438C124.733 29.6931 124.789 29.7958 124.808 29.8518C124.826 29.9078 124.836 29.9544 124.836 29.9918C124.836 30.0664 124.724 30.1784 124.5 30.3278C124.276 30.4584 124.005 30.5984 123.688 30.7478C123.389 30.8784 123.09 30.9998 122.792 31.1118C122.493 31.2238 122.269 31.2798 122.12 31.2798C121.933 31.2798 121.746 31.2238 121.56 31.1118C121.373 31.0184 121.205 30.8878 121.056 30.7198C120.925 30.5518 120.813 30.3651 120.72 30.1598C120.645 29.9544 120.608 29.7398 120.608 29.5158C120.608 29.2358 120.682 28.8251 120.832 28.2838C121 27.7238 121.224 27.0798 121.504 26.3518C121.784 25.6051 122.12 24.7931 122.512 23.9158C122.904 23.0384 123.324 22.1424 123.772 21.2278C123.772 21.1531 123.735 21.1158 123.66 21.1158C123.604 21.1158 123.454 21.1904 123.212 21.3398C122.988 21.4891 122.773 21.6384 122.568 21.7878C121.896 22.2918 121.215 22.9171 120.524 23.6638C119.852 24.3918 119.189 25.1944 118.536 26.0718C117.901 26.9491 117.294 27.8824 116.716 28.8718C116.156 29.8424 115.671 30.8224 115.26 31.8118C115.204 31.9424 115.12 32.0638 115.008 32.1758C114.896 32.2878 114.802 32.3438 114.728 32.3438C114.672 32.3438 114.588 32.2784 114.476 32.1478C114.382 32.0171 114.289 31.8491 114.196 31.6438C114.121 31.4571 114.046 31.2611 113.972 31.0558C113.897 30.8504 113.86 30.6731 113.86 30.5238Z" fill="white"/>
<path d="M138.377 19.4078C138.302 20.5651 138.097 21.5638 137.761 22.4038C137.425 23.2251 136.939 23.9531 136.305 24.5878C135.689 25.2038 134.933 25.7638 134.037 26.2678C133.141 26.7718 132.095 27.2571 130.901 27.7238C130.901 27.8358 130.891 27.9571 130.873 28.0878C130.873 28.1998 130.873 28.3211 130.873 28.4518C130.873 28.6944 130.891 28.9464 130.929 29.2078C130.966 29.4691 131.031 29.7118 131.125 29.9358C131.218 30.1598 131.349 30.3464 131.517 30.4958C131.685 30.6264 131.899 30.6918 132.161 30.6918C132.665 30.6918 133.159 30.5798 133.645 30.3558C134.13 30.1318 134.587 29.8611 135.017 29.5438C135.465 29.2078 135.875 28.8531 136.249 28.4798C136.641 28.0878 136.986 27.7331 137.285 27.4158C137.471 27.5838 137.63 27.7424 137.761 27.8918C136.921 29.0118 135.997 29.9451 134.989 30.6918C133.999 31.4198 133.057 31.8864 132.161 32.0918C130.873 31.9424 129.865 31.4758 129.137 30.6918C128.427 29.8891 128.073 28.9278 128.073 27.8078C128.073 27.0424 128.175 26.2678 128.381 25.4838C128.605 24.6811 128.903 23.9158 129.277 23.1878C129.669 22.4411 130.117 21.7411 130.621 21.0878C131.143 20.4344 131.694 19.8651 132.273 19.3798C132.87 18.8944 133.477 18.5118 134.093 18.2318C134.727 17.9518 135.353 17.8118 135.969 17.8118C136.827 17.9238 137.63 18.4558 138.377 19.4078ZM136.445 20.3318C135.941 20.4064 135.418 20.6118 134.877 20.9478C134.335 21.2838 133.822 21.7318 133.337 22.2918C132.87 22.8518 132.441 23.5051 132.049 24.2518C131.657 24.9984 131.349 25.8011 131.125 26.6598C132.618 25.9131 133.859 24.9984 134.849 23.9158C135.838 22.8144 136.37 21.6198 136.445 20.3318Z" fill="white"/>
<path d="M139.001 30.4398C139.094 29.8984 139.253 29.1891 139.477 28.3118C139.72 27.4158 140 26.4731 140.317 25.4838C140.634 24.4758 140.97 23.4678 141.325 22.4598C141.68 21.4518 142.025 20.5464 142.361 19.7438C142.604 19.1651 142.818 18.7171 143.005 18.3998C143.192 18.0638 143.397 17.7838 143.621 17.5598C143.882 17.5971 144.153 17.6624 144.433 17.7558C144.713 17.8491 144.984 17.9611 145.245 18.0918C145.506 18.2224 145.74 18.3624 145.945 18.5118C146.15 18.6424 146.309 18.7731 146.421 18.9038C145.917 19.5011 145.469 20.1824 145.077 20.9478C144.704 21.7131 144.321 22.6931 143.929 23.8878C144.937 22.9918 145.824 22.1331 146.589 21.3118C147.373 20.4904 148.101 19.5758 148.773 18.5678C148.885 18.4744 149.081 18.4278 149.361 18.4278C149.622 18.4278 149.874 18.4744 150.117 18.5678C150.36 18.6424 150.528 18.7544 150.621 18.9038C150.285 19.7998 150.117 20.6864 150.117 21.5638C150.117 22.3851 150.238 23.0011 150.481 23.4118C150.462 23.5238 150.332 23.7384 150.089 24.0558C149.865 24.3731 149.613 24.6718 149.333 24.9518C148.829 24.6904 148.381 24.3358 147.989 23.8878C147.597 23.4211 147.308 22.9171 147.121 22.3758C146.244 22.9918 145.497 23.5984 144.881 24.1958C144.265 24.7744 143.733 25.4278 143.285 26.1558C142.856 26.8651 142.482 27.6864 142.165 28.6198C141.866 29.5531 141.577 30.6638 141.297 31.9518C141.129 31.9331 140.924 31.8678 140.681 31.7558C140.457 31.6624 140.224 31.5411 139.981 31.3918C139.757 31.2424 139.552 31.0838 139.365 30.9158C139.178 30.7478 139.057 30.5891 139.001 30.4398Z" fill="white"/>
<defs>
<clipPath id="clip0_190_32">
<rect width="37" height="37" fill="white"/>
</clipPath>
</defs>
</svg>
